<svg width="256" height="197" viewBox="0 0 256 197" fill="none" xmlns="http://www.w3.org/2000/svg">
<g clip-path="url(#clip0_25_127)">
<path d="M245.015 39.0224C244.597 39.3371 244.178 39.5469 243.76 39.7566C243.655 39.3371 243.655 38.9175 243.55 38.4979C243.341 37.2391 242.086 36.0852 240.83 36.9244C240.098 37.4489 239.366 38.0783 238.843 38.7077C237.797 38.0783 236.855 37.4489 235.704 36.9244C233.821 36.0852 232.252 38.0783 233.507 39.7566C235.076 41.6448 236.018 43.8477 236.541 46.1555C236.855 47.5192 238.32 47.729 239.261 47.0996C239.784 47.729 240.621 48.0437 241.458 47.5192C243.76 45.7359 245.747 43.8477 247.421 41.5399C248.572 40.0713 246.48 38.0783 245.015 39.0224Z" fill="white" fill-opacity="0.1"/>
<path d="M20.4005 69.6529C20.4005 69.7578 20.2959 69.9676 20.1913 70.0725C17.5758 71.4362 14.5419 71.5411 11.8218 70.3872C9.9387 69.548 6.59093 67.2402 6.80016 64.7227C7.0094 62.2051 11.0895 62.8345 12.5541 63.2541C15.9019 63.9884 18.7266 66.0863 20.7143 69.0235C20.819 69.2333 20.6097 69.548 20.4005 69.6529ZM19.5635 69.1284C18.0989 67.0304 16.1112 65.4569 13.7049 64.6177C12.3449 64.0933 6.80016 62.9394 8.57867 66.401C10.4618 70.1774 16.1112 70.9117 19.5635 69.1284Z" fill="white" fill-opacity="0.1"/>
<path d="M209.759 169.412C209.759 169.621 209.759 169.936 209.864 170.146C209.968 171.09 208.608 171.09 208.503 170.146C204.633 172.978 199.716 173.712 195.217 172.034C193.229 171.3 187.161 167.838 190.928 165.74C196.159 162.698 202.645 165.635 207.457 167.523C207.876 167.628 208.085 167.733 208.399 167.838C208.294 159.446 213.107 152.208 217.814 145.39C218.128 144.97 218.756 144.865 219.07 145.39C223.045 154.936 217.082 163.747 209.759 169.412ZM207.353 169.307C205.051 167.838 202.645 166.789 199.82 166.37C198.042 166.055 190.718 165.53 191.974 168.572C192.915 170.775 198.146 171.614 200.134 171.614C202.749 171.614 205.26 170.775 207.353 169.307ZM212.27 165.53C213.839 163.957 215.304 162.278 216.454 160.285C218.756 156.299 219.593 151.684 218.128 147.278C213.839 153.467 209.654 160.076 209.654 167.628C209.759 167.523 209.864 167.523 210.073 167.419C210.805 166.999 211.537 166.16 212.27 165.53Z" fill="white" fill-opacity="0.1"/>
<path d="M100.119 88.5347C101.061 92.1012 98.5501 95.6678 94.5746 95.458C95.3069 99.7588 96.4577 103.955 98.4454 107.941C99.387 109.829 100.329 111.612 101.479 113.291C102.107 114.34 103.781 115.703 103.886 116.962C104.409 120.634 95.6208 125.459 93.1099 126.928C92.4822 127.242 91.8545 126.928 91.6453 126.403C91.3314 126.403 91.1222 126.193 90.913 125.879C86.7282 118.431 80.9743 112.347 73.8602 107.836C72.9187 111.927 68.4201 113.71 65.0723 111.193C63.1892 113.71 59.6322 114.025 57.6445 111.508C56.5983 112.557 55.1336 113.186 53.5644 113.186C50.4258 113.186 48.1242 110.563 47.6011 107.626C43.7303 108.046 41.3241 103.85 43.1026 100.703C41.4287 100.388 39.964 99.2344 39.5456 97.4511C38.9179 95.1433 40.1733 93.4649 41.8472 92.311C39.964 90.9473 39.0225 88.4298 39.8594 86.122C40.801 83.7093 43.3118 82.4505 45.718 82.7652C45.718 82.6603 45.8226 82.4505 45.8226 82.3456C46.555 79.933 48.2289 78.6742 50.2166 78.3595C48.5427 73.8488 51.472 70.0725 55.1336 69.2333C55.4475 65.8765 58.0629 63.254 61.4107 63.0442C62.98 58.8483 67.897 57.6944 71.2448 60.8414C73.0233 59.7924 75.1157 59.3728 77.1034 59.5826C79.9281 54.6523 87.1467 54.8621 89.6575 60.1071C91.7499 58.6385 94.6792 58.2189 96.9808 59.5826C99.9101 61.261 101.061 65.0373 99.8055 68.0794C100.329 68.7088 100.747 69.4431 100.852 70.3872C105.769 70.9117 106.919 77.5203 102.526 79.933C105.978 82.7652 104.199 87.9053 100.119 88.5347ZM91.2268 61.6806C91.5407 61.8904 91.7499 61.9953 92.0638 62.2051C93.8423 63.5687 94.6792 65.352 94.8884 67.2402C96.0392 66.7157 97.19 66.6108 98.2362 66.9255C98.7593 64.8275 98.1316 62.5198 96.1439 61.3659C94.47 60.5267 92.6915 60.8414 91.2268 61.6806ZM79.405 60.212C80.6604 60.7365 81.7066 61.6806 82.3343 63.0442C83.7989 61.4708 85.7867 60.5267 87.7744 60.6316C85.7867 57.4846 81.4973 57.3797 79.405 60.212ZM57.3306 69.2333C58.1676 69.3382 59.1091 69.548 59.9461 70.0725C60.4691 66.2961 64.4446 64.0932 67.897 65.7716C68.0016 64.4079 68.6293 63.254 69.5709 62.2051C67.2693 60.3169 64.0262 61.3659 63.2938 64.4079C63.1892 64.8275 62.7707 65.1422 62.2477 65.1422C59.7368 65.1422 57.7491 66.8206 57.3306 69.2333ZM57.6445 106.472C57.0168 106.472 56.3891 106.367 55.7613 106.158C51.8905 104.794 50.6351 101.123 51.2628 97.556C46.6596 97.7658 43.5211 91.3669 47.4965 88.22C47.4965 88.22 47.3919 88.22 47.3919 88.1151C46.4503 87.2759 45.8226 86.122 45.6134 84.9681C44.0441 84.6534 42.161 85.5975 41.6379 87.171C41.1148 89.0592 42.4749 90.9473 44.2534 91.3669C44.5672 91.4718 44.7765 91.6816 44.8811 91.8914C45.1949 92.311 45.1949 92.9404 44.5672 93.2551C43.2072 93.8845 41.3241 94.6188 41.3241 96.4021C41.3241 98.1854 43.1026 99.1295 44.6718 98.605C44.9857 98.5001 45.2996 98.5001 45.5088 98.7099C46.4503 98.7099 46.9734 100.074 46.0319 100.703C42.998 102.381 45.0903 106.472 48.2289 105.423C48.8566 105.214 49.5889 105.738 49.5889 106.472C49.4843 108.675 51.0535 111.088 53.5644 111.193C55.9706 111.193 57.6445 108.885 57.6445 106.472C57.6445 106.577 57.6445 106.577 57.6445 106.472ZM61.9338 99.8637C62.143 98.605 63.9215 99.0246 64.0262 100.178C64.0262 100.283 64.0262 100.388 64.0262 100.388C64.2354 100.493 64.34 100.598 64.5492 100.808C67.7924 102.172 69.4663 101.437 69.4663 98.7099C69.4663 97.8707 70.7217 97.4511 71.1402 98.2903C72.3956 101.018 76.5803 100.598 78.8819 99.3392C82.2297 97.556 81.7066 95.3531 80.0327 92.7306C79.6142 92.1012 80.1373 91.1571 80.8696 91.1571C83.0666 91.4718 84.1128 92.9404 84.322 94.7237C86.2052 95.0384 88.1929 95.0384 89.8668 93.8845C93.633 91.3669 93.1099 85.5975 88.6114 84.3387C87.6698 84.1289 87.5652 82.5554 88.6114 82.3456C89.9714 82.1358 91.2268 81.6113 92.3776 80.5624C94.9931 76.786 94.0515 74.5831 89.4483 73.9537C88.0883 74.2684 87.5652 72.1704 88.9252 71.9606C89.9714 71.7509 91.0176 71.7509 91.8545 71.9606C93.5284 69.2333 93.2146 66.0863 90.7037 64.0932C87.879 61.7855 84.322 62.8345 82.8574 66.0863C82.4389 67.1353 80.9743 66.5059 80.8696 65.5618C80.765 63.4638 79.7188 62.2051 78.2542 61.6806C77.9403 61.7855 77.5219 61.6806 77.208 61.3659C73.3372 60.7365 68.0016 64.0932 71.1402 68.8137C71.8725 69.9676 70.094 71.0166 69.3617 69.8627C69.0478 69.3382 68.8386 68.9186 68.6293 68.499C68.5247 68.499 68.4201 68.3941 68.3155 68.2892C65.4908 65.4569 61.3061 67.7647 62.2477 71.7509C62.4569 72.6949 61.2015 73.5341 60.4691 72.7998C59.3184 71.5411 57.9583 71.0166 56.5983 71.1215C56.4937 71.1215 56.2844 71.1215 56.1798 71.1215C53.2505 71.4362 50.9489 74.5831 52.4136 78.0448C52.4136 78.1497 52.4136 78.1497 52.5182 78.2546C53.8782 78.4644 55.2383 78.9889 56.2844 79.933C57.226 80.6673 55.866 82.0309 54.9244 81.2966C52.832 79.6183 49.1704 80.1428 48.5427 83.0799C48.3335 84.1289 48.6473 85.2828 49.5889 85.9122C50.5305 86.6465 51.472 86.3318 52.5182 86.2269C53.9828 86.122 54.1921 88.1151 53.2505 88.8494C52.309 89.5837 50.9489 89.5837 49.7981 89.269C46.3457 91.5767 49.5889 96.0874 52.9367 94.0943C54.0875 93.36 55.5521 94.8286 54.8198 95.9825C53.3551 98.3952 53.3551 101.962 56.1798 103.325C59.0045 104.899 61.4107 102.591 61.9338 99.8637ZM88.9252 96.6119C88.4021 96.8217 87.7744 96.9266 87.2513 96.9266C87.6698 98.5001 91.436 109.619 91.6453 109.514C92.3776 109.095 90.7037 104.165 90.4945 103.221C89.9714 101.018 89.4483 98.8148 88.9252 96.6119ZM81.4973 101.227C80.765 101.752 79.7188 102.172 78.6727 102.486C79.1958 102.906 79.7188 103.325 80.2419 103.85C81.2881 104.899 81.9158 106.263 82.962 107.207C84.322 108.57 84.9497 107.207 84.5313 105.948C84.322 105.318 83.9036 104.689 83.4851 104.06C82.8574 103.011 82.2297 102.067 81.602 101.018C81.602 101.123 81.602 101.123 81.4973 101.227ZM71.8725 106.787C70.5125 106.053 69.0478 105.318 67.5832 104.584C66.1185 104.794 64.5492 104.374 63.3984 103.116C62.6661 104.584 61.2015 105.738 59.6322 106.263C59.6322 106.367 59.7368 106.472 59.7368 106.577C59.7368 107.626 59.423 108.78 59.0045 109.724C60.1553 111.403 62.8754 111.822 63.8169 109.305C64.0262 108.57 64.9677 108.256 65.5954 108.885C67.7924 111.403 71.6633 110.354 71.8725 106.787ZM93.1099 124.515C90.8083 119.375 87.9837 114.55 84.6359 110.039C83.2759 110.249 82.0204 109.305 81.1835 108.256C79.5096 106.158 78.1496 104.374 75.6387 103.011C74.0695 103.011 72.5002 102.696 71.3494 101.962C71.1402 102.591 70.7217 103.116 70.3032 103.535C79.8235 108.151 87.5652 115.494 92.7961 124.83C92.7961 124.62 92.9007 124.62 93.1099 124.515ZM96.0392 122.837C92.273 118.536 89.1345 113.815 86.4144 108.885C86.2052 109.2 85.9959 109.41 85.6821 109.619C85.6821 109.619 85.5774 109.619 85.5774 109.724C88.9252 114.235 91.6453 118.955 93.9469 124.095C94.6792 123.676 95.3069 123.256 96.0392 122.837ZM98.4454 121.053C96.4577 118.221 94.6792 115.284 93.1099 112.242C92.9007 112.347 92.6915 112.452 92.273 112.452C89.9714 112.661 89.0298 109.2 88.4021 107.731C87.0421 104.374 85.8913 100.913 85.0544 97.4511C85.0544 97.3462 85.0544 97.1364 85.0544 97.0315C84.7405 97.0315 84.4267 96.9266 84.0082 96.9266C83.7989 97.7658 83.4851 98.605 83.0666 99.4442C84.6359 101.542 87.1467 105.004 86.8329 107.521C86.8329 107.521 86.9375 107.626 86.9375 107.731C89.6575 112.976 93.0053 117.801 96.8762 122.312C97.5039 121.892 98.027 121.473 98.4454 121.053ZM94.6792 104.479C95.2023 109.41 98.6547 113.815 101.166 118.221C102.002 117.487 101.898 116.648 100.642 115.913L99.5962 114.445C98.6547 112.976 97.7131 111.403 96.8762 109.829C96.0392 108.046 95.3069 106.263 94.6792 104.479ZM93.633 101.332C93.0053 99.1294 92.5868 96.9266 92.273 94.6188C91.8545 95.0384 91.3314 95.458 90.8083 95.7727C90.8083 95.7727 90.8083 95.8776 90.913 95.8776C91.9591 100.074 92.9007 104.269 93.7376 108.465C93.9469 109.305 94.1561 110.354 93.9469 111.298C95.5162 114.445 97.2947 117.487 99.387 120.424C99.8055 120.004 100.224 119.585 100.538 119.165C97.2947 113.501 92.6915 107.941 93.633 101.332ZM100.852 78.9889C100.956 78.6742 101.166 78.4644 101.479 78.3595C104.932 76.9958 103.572 72.3802 100.119 72.59C99.5962 72.59 99.0732 72.0655 99.0732 71.5411C99.1778 69.548 97.6085 68.1843 95.7254 69.2333C95.4115 69.4431 95.0977 69.3382 94.7838 69.2333C94.5746 70.597 94.1561 71.8557 93.4238 73.1145C94.5746 73.9537 95.4115 75.4223 95.5162 77.2056C95.7254 80.2477 93.8423 82.5554 91.3314 83.7093C93.9469 85.4926 95.0977 88.7445 93.8423 91.9963C93.8423 92.1012 93.9469 92.2061 93.9469 92.311C93.9469 92.6257 94.0515 93.0453 94.0515 93.36C96.9808 93.6747 99.0732 90.9473 97.5039 88.1151C96.9808 87.2759 97.8177 86.4367 98.6547 86.5416C102.421 87.0661 103.258 82.3456 100.015 80.8771C99.1778 80.4575 99.9101 78.9889 100.852 78.9889Z" fill="white" fill-opacity="0.1"/>
<path d="M71.2448 90.213C69.1524 87.5905 65.3862 88.7444 64.7585 91.6816C63.8169 91.1571 62.6661 91.1571 61.9338 91.9963C60.8876 93.1501 61.5153 94.9334 62.7707 95.6677C63.3985 95.9824 63.9215 95.1432 63.2938 94.7236C61.4107 93.6746 63.5031 91.1571 64.7585 92.9403C65.0723 93.3599 65.8047 93.255 65.7 92.6257C65.5954 89.7934 68.8386 88.7444 70.5125 90.8424C70.9309 91.4718 71.6633 90.7375 71.2448 90.213Z" fill="white" fill-opacity="0.1"/>
<path d="M83.2758 77.835C81.8112 77.6252 80.6604 78.6742 80.1373 79.933C79.405 79.4085 78.4634 79.1987 77.5219 79.5134C75.848 80.0379 75.2203 81.926 74.9064 83.4995C74.8018 84.1289 75.7434 84.4436 75.9526 83.8142C76.1618 82.975 76.2664 82.1358 76.7895 81.5064C77.5219 80.5623 79.0911 79.8281 79.8235 81.2966C80.0327 81.7162 80.6604 81.6113 80.765 81.1917C80.8696 80.5623 81.1835 79.7232 81.8112 79.4085C82.6481 78.9889 84.7405 79.4085 84.5313 80.7721C84.4266 81.4015 85.4728 81.7162 85.5774 81.0868C85.7867 79.4085 84.8451 78.0448 83.2758 77.835Z" fill="white" fill-opacity="0.1"/>
<path d="M74.2787 75.737C72.9187 75.0027 71.0356 74.3733 69.5709 75.5272C68.8386 76.1566 68.4201 76.9958 68.5247 77.835C64.5492 76.5762 60.9922 81.2967 63.8169 84.9681C64.2354 85.4926 64.9677 84.7583 64.5492 84.2338C62.143 81.0869 65.8047 77.2056 69.0478 79.3036C69.4663 79.6183 70.094 78.9889 69.7801 78.5693C69.257 76.9958 69.7801 76.1566 71.454 75.9468C72.1864 75.9468 72.9187 76.2615 73.651 76.6811C74.2787 76.9958 74.8018 76.1566 74.2787 75.737Z" fill="white" fill-opacity="0.1"/>
<path d="M154.939 133.326C154.207 139.096 152.219 145.495 145.419 145.809C141.548 146.019 138.619 144.026 137.049 141.089C136.945 141.194 136.84 141.299 136.631 141.299C131.505 142.872 126.274 141.613 121.984 138.571C118.741 136.264 114.87 132.592 115.917 128.186C116.963 123.781 121.357 121.368 125.646 121.473C129.412 121.578 135.271 123.046 137.991 126.193C140.083 122.207 143.013 116.752 148.557 116.962C156.299 117.487 155.567 127.557 154.939 133.326ZM136.108 139.096C135.689 137.627 135.48 136.159 135.585 134.585C135.689 132.487 136.213 130.494 136.84 128.606C136.84 128.606 136.84 128.606 136.736 128.501C135.166 125.459 129.935 124.2 126.692 123.885C121.88 123.361 115.394 126.613 118.951 132.592C122.194 138.152 129.935 140.984 135.899 139.096C136.108 139.096 136.108 139.096 136.108 139.096ZM147.825 119.27C147.616 119.27 151.487 118.326 147.302 119.165C143.117 120.004 132.028 136.893 141.339 142.453C148.976 146.963 152.114 138.362 152.638 132.487C153.161 128.606 154.521 119.165 147.825 119.27Z" fill="white" fill-opacity="0.1"/>
<path d="M144.059 139.306C142.594 139.306 142.594 141.509 144.059 141.509C145.523 141.509 145.523 139.306 144.059 139.306Z" fill="white" fill-opacity="0.1"/>
<path d="M147.825 138.152C146.36 138.152 146.36 140.355 147.825 140.355C149.185 140.459 149.185 138.152 147.825 138.152Z" fill="white" fill-opacity="0.1"/>
<path d="M142.908 137.103C141.443 137.103 141.443 139.306 142.908 139.306C144.373 139.306 144.373 137.103 142.908 137.103Z" fill="white" fill-opacity="0.1"/>
<path d="M127.634 135.529C126.169 135.529 126.169 137.732 127.634 137.732C129.098 137.837 129.098 135.529 127.634 135.529Z" fill="white" fill-opacity="0.1"/>
<path d="M131.4 131.438C129.935 131.438 129.935 133.641 131.4 133.641C132.865 133.641 132.865 131.438 131.4 131.438Z" fill="white" fill-opacity="0.1"/>
<path d="M130.982 135.949V136.368C130.982 137.837 133.179 137.837 133.179 136.368V135.949C133.283 134.48 130.982 134.48 130.982 135.949Z" fill="white" fill-opacity="0.1"/>
<path d="M124.077 131.963C123.031 131.438 122.508 130.284 122.717 129.13C123.031 127.767 120.938 127.137 120.52 128.501C119.997 130.599 120.938 132.802 122.821 133.851C124.286 134.585 125.437 132.697 124.077 131.963Z" fill="white" fill-opacity="0.1"/>
<path d="M146.988 121.368C145.105 122.732 143.85 124.41 143.117 126.613C142.699 127.977 144.896 128.606 145.314 127.242C145.837 125.669 146.779 124.305 148.139 123.361C149.29 122.417 148.139 120.529 146.988 121.368Z" fill="white" fill-opacity="0.1"/>
<path d="M136.422 45.1066C136.422 45.6311 136.003 46.0507 135.48 46.0507C133.074 46.2605 130.563 46.4703 128.157 45.736C127.843 45.8409 127.529 45.8409 127.111 45.736C125.332 45.3164 123.658 45.3164 121.88 45.6311C121.671 45.6311 121.461 45.6311 121.357 45.6311C119.997 46.2605 119.369 46.5752 117.486 46.5752C114.138 46.4703 110.686 46.3654 107.338 46.2605C106.71 46.2605 106.292 45.6311 106.396 45.0017C104.723 45.2115 103.049 45.4213 101.375 45.6311C101.584 46.1556 101.479 46.9947 100.852 46.9947C98.1316 47.4143 95.4115 47.729 92.5868 48.1486C91.9591 48.2535 91.436 47.9388 91.3314 47.2045C91.2268 45.1066 91.1222 43.0086 90.913 40.9106C90.5991 40.7008 90.3899 40.3861 90.2853 39.9665C90.076 38.6028 89.8668 37.1343 89.8668 35.7706C89.8668 35.6657 89.8668 35.6657 89.8668 35.5608C89.7622 35.2461 89.7622 34.9314 89.8668 34.6167C89.4483 32.5187 88.9252 30.4207 88.2975 28.2179C88.2975 28.113 88.2975 28.0081 88.2975 27.9032C87.2513 27.9032 87.2513 26.3297 88.1929 26.015C95.3069 23.1827 102.421 20.0358 109.64 17.3084C109.953 16.8888 110.476 16.5741 111.104 16.5741C111.313 16.5741 111.627 16.5741 111.837 16.5741C112.15 16.4692 112.464 16.3643 112.883 16.2594C114.034 15.8398 115.08 15.5251 116.126 15.3153C116.44 15.1055 116.858 14.8957 117.172 14.581C118.009 13.9516 118.741 14.1614 119.264 14.6859C124.391 14.0565 129.203 15.0006 134.748 17.2035C135.271 17.4133 135.376 17.8329 135.376 18.2525V18.3574C136.736 27.3787 137.154 36.1902 136.422 45.1066ZM95.0977 25.4905C104.618 24.4415 114.138 22.7631 123.449 20.5602C123.345 20.0358 123.554 19.4064 123.972 18.9868C124.809 17.9378 125.96 17.2035 127.215 16.8888C125.228 16.4692 123.135 16.1545 120.834 16.4692C120.52 16.4692 120.206 16.5741 119.892 16.5741C119.892 17.0986 119.578 17.728 119.055 18.0427C116.754 19.7211 113.929 20.6651 111.104 20.6651C110.267 20.6651 109.744 20.2456 109.535 19.7211C104.723 21.6092 99.9101 23.4974 95.0977 25.4905ZM134.852 36.6098C134.852 31.0501 134.434 25.4905 133.702 19.9309C133.388 20.0358 133.074 20.1407 132.655 20.2456C132.132 20.6651 131.505 20.8749 130.877 20.6651C129.412 21.0847 127.948 21.3994 126.588 21.7141C126.169 22.1337 125.541 22.2386 125.018 22.1337C113.615 24.8611 102.002 26.7493 90.2853 27.9032C90.8083 29.6864 91.2268 31.3648 91.5407 33.1481C91.7499 33.1481 91.9591 33.1481 92.273 33.253C94.0515 33.6726 95.3069 35.1412 95.5161 36.9245C95.7254 38.7077 94.6792 40.491 93.1099 41.2253C93.0053 41.2253 92.9007 41.3302 92.7961 41.3302C93.0053 43.0086 93.1099 44.5821 93.1099 46.2605C95.0977 45.9458 97.0854 45.736 99.1778 45.4213C98.5501 42.6939 99.8055 39.5469 102.839 39.1273C106.187 38.6028 108.28 41.54 108.28 44.3723C110.477 44.4772 112.673 44.4772 114.87 44.5821C116.44 44.5821 117.486 44.687 118.846 44.2674C118.637 43.9527 118.637 43.4282 118.846 43.0086C119.683 40.7008 121.775 38.9175 124.286 39.0224C126.797 39.1273 128.889 41.0155 129.517 43.3233C129.517 43.5331 129.622 43.7429 129.622 43.8478C131.4 44.4772 133.388 44.687 134.434 43.638C135.48 42.4841 134.852 38.2881 134.852 36.6098Z" fill="white" fill-opacity="0.1"/>
<path d="M127.738 28.7425C127.634 28.7425 127.634 28.7425 127.529 28.7425C127.32 28.6376 127.111 28.5327 126.797 28.7425C124.495 29.6866 122.508 32.0992 123.972 34.6168C125.332 36.9246 128.157 36.4001 129.412 34.3021C130.668 32.4139 130.982 28.6376 127.738 28.7425Z" fill="white" fill-opacity="0.1"/>
<path d="M102.63 29.4766C100.224 29.4766 98.5501 32.2039 99.5962 34.4068C100.642 36.3999 103.467 36.7146 105.036 35.246C105.35 34.9313 105.455 34.6166 105.559 34.197C106.501 32.099 104.932 29.3717 102.63 29.4766Z" fill="white" fill-opacity="0.1"/>
<path d="M116.021 28.3228C115.917 28.3228 115.812 28.3228 115.707 28.3228C115.184 27.2738 113.72 26.6444 112.569 27.6934C110.058 30.0012 107.861 33.4628 109.953 36.7147C111.941 39.8617 115.812 39.1274 117.695 36.2951C119.369 33.8824 119.683 29.162 116.021 28.3228Z" fill="white" fill-opacity="0.1"/>
<path d="M131.923 40.7009C130.668 40.7009 130.668 42.5891 131.923 42.5891C133.179 42.694 133.179 40.7009 131.923 40.7009Z" fill="white" fill-opacity="0.1"/>
<path d="M131.609 37.2393C130.354 37.2393 130.354 39.1274 131.609 39.1274C132.865 39.1274 132.865 37.2393 131.609 37.2393Z" fill="white" fill-opacity="0.1"/>
<path d="M111.523 41.645H111.209C109.953 41.645 109.953 43.5332 111.209 43.5332H111.523C112.778 43.6381 112.778 41.645 111.523 41.645Z" fill="white" fill-opacity="0.1"/>
<path d="M94.8884 29.7913C93.633 29.7913 93.633 31.6794 94.8884 31.6794C96.1438 31.7843 96.1438 29.7913 94.8884 29.7913Z" fill="white" fill-opacity="0.1"/>
<path d="M151.801 57.7992C150.65 67.345 141.443 71.8557 132.656 71.1214C132.656 71.2263 132.655 71.3312 132.551 71.541C132.446 72.1704 131.4 71.9606 131.505 71.2263C131.505 71.1214 131.505 71.1214 131.505 71.0165C131.191 70.9116 130.982 70.5969 131.191 70.2822C131.4 69.7577 131.714 69.3381 132.028 68.8136C132.865 65.3519 134.434 62.1001 137.468 59.8972C141.653 56.8551 146.57 58.8482 151.173 57.2747C151.487 57.1698 151.905 57.4845 151.801 57.7992ZM134.016 66.296C135.376 64.7225 137.049 63.4638 138.933 62.4148C140.606 61.5756 142.28 61.0511 144.163 60.6315C146.256 60.2119 148.348 60.0021 149.917 58.6384C146.36 59.2678 142.594 58.2188 139.351 59.8972C136.736 61.3658 135.062 63.6736 134.016 66.296ZM150.441 59.5825C148.139 61.4707 144.896 61.3658 142.176 62.205C138.409 63.3589 135.271 65.8764 133.074 69.2332C132.969 69.5479 132.969 69.7577 132.865 70.0724C140.397 70.5969 148.557 67.2401 150.441 59.5825Z" fill="white" fill-opacity="0.1"/>
<path d="M149.813 83.2897C149.394 88.4298 148.348 94.7237 145 98.8148C143.536 100.598 141.548 102.067 139.246 102.381C136.526 102.801 134.539 101.332 131.923 101.123C129.308 100.913 127.634 102.486 125.123 102.381C123.031 102.276 121.148 101.123 119.578 99.6539C116.126 96.4021 114.347 91.3669 114.243 86.6465C114.034 77.7301 121.357 66.2961 131.295 70.9117L131.4 71.0166C135.899 68.7088 141.443 67.1353 145.942 70.4921C149.917 73.5341 150.127 78.884 149.813 83.2897ZM147.093 75.737C144.163 69.1284 137.468 70.3872 132.342 73.1145C131.923 73.3243 131.4 73.2194 131.191 73.0096C130.877 73.1145 130.668 73.1145 130.249 73.0096C119.683 68.0794 114.87 83.7093 116.963 91.1571C118.009 94.9335 120.938 100.493 125.437 100.388C127.738 100.388 129.308 98.5001 131.609 98.3952C135.899 98.2903 136.526 103.535 142.594 98.605C145.314 96.4021 146.36 91.8914 147.093 88.6396C147.72 84.7583 148.662 79.5134 147.093 75.737Z" fill="white" fill-opacity="0.1"/>
<path d="M130.877 60.7365C130.04 59.6875 128.262 60.7365 129.098 61.7855C131.505 65.0374 132.028 69.0235 130.563 72.9048C130.04 74.1635 132.132 74.688 132.551 73.4293C134.225 69.2333 133.597 64.408 130.877 60.7365Z" fill="white" fill-opacity="0.1"/>
<path d="M121.984 76.4712C118.846 80.877 118.218 86.3317 120.101 91.3668C120.834 93.255 123.868 92.4158 123.135 90.5277C121.461 86.2268 121.984 81.821 124.705 78.0447C125.855 76.3663 123.135 74.7928 121.984 76.4712Z" fill="white" fill-opacity="0.1"/>
<path d="M124.077 93.4648C122.089 93.4648 122.089 96.6118 124.077 96.6118C126.065 96.6118 126.065 93.4648 124.077 93.4648Z" fill="white" fill-opacity="0.1"/>
<path d="M205.574 92.5208C205.051 93.5698 204.005 94.3041 202.959 94.7237C201.389 95.2482 199.82 94.9335 198.356 94.409C196.054 93.5698 193.229 91.2621 190.823 93.0453C190.405 93.36 189.777 92.9404 189.881 92.5208C189.568 92.8355 189.254 93.0453 188.94 93.36C188.626 93.6747 187.894 93.36 188.103 92.8355C189.045 89.6886 187.789 86.6465 187.894 83.4995C187.998 80.8771 189.358 79.0938 191.346 77.5203C193.125 76.0517 195.008 74.688 195.008 72.0656C195.008 70.597 194.589 69.2333 194.38 67.7647C194.066 64.8276 194.903 62.31 196.996 60.212C197.519 59.6875 198.251 60.5267 197.728 60.9463C194.485 64.0933 195.74 67.3451 196.054 71.3313C196.263 73.8489 195.217 75.6321 193.334 77.3105C192.078 78.3595 190.509 79.3036 189.672 80.8771C188.94 82.1359 188.94 83.6044 189.045 85.073C189.254 84.3387 189.672 83.8142 190.509 83.4995C191.137 83.1848 191.974 83.2897 192.602 83.3946C192.915 83.3946 193.752 83.7093 194.066 83.4995C195.217 82.975 195.426 81.8212 195.112 80.8771C194.694 79.8281 194.066 78.6742 194.589 77.5203C195.008 76.4713 196.054 75.9468 197.1 75.737C198.774 75.4223 200.134 76.786 201.703 76.786C204.842 76.8909 203.586 73.3244 204.633 71.5411C205.26 70.4921 206.411 69.8627 207.667 69.6529C208.294 69.548 209.027 69.548 209.654 69.6529C211.119 68.3941 210.282 67.2402 207.353 66.1912C207.039 66.2961 206.725 66.401 206.306 66.5059C205.888 66.6108 205.47 66.7157 205.051 66.5059C204.528 66.2961 204.11 65.9814 203.9 65.457C203.063 63.7786 204.423 62.1002 205.574 61.0512C207.143 59.8973 209.131 58.8483 208.19 56.5406C207.353 54.3377 205.156 54.2328 203.482 55.4916C202.436 56.2259 201.808 57.5895 200.553 58.0091C199.088 58.5336 197.832 57.5895 197.205 56.2259C196.786 55.1769 196.786 54.1279 196.891 52.974C196.996 51.2956 197.205 50.876 196.159 49.4074C195.74 48.1486 194.903 47.7291 193.648 48.1486C192.915 48.2535 192.392 48.6731 191.974 49.3025C190.195 50.9809 190.091 53.4985 189.986 55.8063C189.881 56.7504 189.986 58.114 189.463 59.0581C188.626 60.4218 186.952 60.1071 185.906 59.0581C185.383 58.5336 185.278 57.7993 184.86 57.2748C184.232 55.8063 182.872 55.7014 180.571 56.8552C180.152 57.5895 179.943 58.3238 180.047 59.163C179.943 61.0512 180.78 62.8345 181.198 64.7227C181.512 65.3521 181.721 66.0863 181.826 66.8206C182.14 68.9186 180.152 72.9048 183.709 72.695C185.278 72.5901 186.952 72.695 188.208 73.744C189.045 74.4783 189.672 75.737 189.358 76.8909C189.045 78.4644 187.475 78.884 186.22 79.6183C183.604 81.1918 187.057 83.7093 187.475 85.9122C187.789 87.3808 187.475 88.7445 186.848 90.0033C186.848 90.1082 186.743 90.1082 186.743 90.1082C186.743 90.5278 186.638 90.9474 186.638 91.2621C186.638 91.4719 186.534 91.5768 186.324 91.5768C186.115 91.7866 185.697 91.7865 185.592 91.4719C184.546 88.9543 183.5 88.5347 180.78 88.9543C179.943 89.0592 179.21 89.269 178.374 89.0592C177.327 88.8494 176.177 88.22 175.967 87.0661C175.758 86.122 176.595 85.7024 176.595 84.9681C176.595 81.1918 173.143 84.5485 171.783 85.073C170.423 85.5975 169.063 85.2828 168.121 84.2338C167.179 83.2897 166.97 81.9261 167.179 80.6673C167.389 79.933 167.807 79.5134 168.121 78.7791C168.226 78.5693 168.539 78.4644 168.644 78.2546C169.899 73.9538 167.179 75.8419 166.029 75.5272C164.773 75.1076 163.518 75.3174 162.785 73.9538C162.158 72.9048 162.262 71.5411 162.785 70.4921C163.413 69.0235 164.773 68.2892 166.342 68.0794C167.912 67.8696 169.063 68.8137 170.527 68.8137C173.666 68.9186 172.201 66.9255 172.201 65.5618C172.201 64.9325 172.41 64.408 172.724 63.7786C173.352 62.6247 174.503 61.7855 175.758 61.4708C177.223 61.1561 178.687 61.6806 179.734 62.6247C179.106 60.1071 178.478 57.4846 180.257 55.5965C182.035 53.7083 184.441 54.2328 185.592 56.3308C185.801 56.7504 186.011 57.4846 186.324 57.7993C188.835 60.0022 188.731 57.5895 188.835 56.6455C188.94 55.8063 188.94 54.9671 189.045 54.1279C189.149 52.8691 189.358 51.6103 189.881 50.4564C190.823 48.4633 192.602 46.785 195.008 47.0997C197.728 47.4144 198.251 49.9319 198.146 52.3446C198.042 53.2887 197.937 54.1279 198.146 54.9671C198.46 56.5406 198.565 56.8552 200.134 56.5406C201.703 56.3308 201.076 56.5406 201.913 55.8063C202.854 54.9671 203.482 54.1279 204.737 53.8132C206.725 53.2887 208.922 54.1279 209.654 56.121C210.805 59.0581 208.294 60.3169 206.411 61.8904C205.679 62.31 205.26 62.8345 205.051 63.6737C205.574 64.1982 206.097 64.7227 206.62 65.3521C206.83 65.3521 207.457 65.0374 207.667 65.0374C208.085 64.9325 208.503 64.9325 208.922 64.9325C209.759 65.0374 210.596 65.5619 211.119 66.2961C211.956 67.45 211.747 68.8137 211.014 69.7578C212.688 70.2823 214.153 71.5411 214.781 73.0097C215.408 74.3733 215.408 75.9468 214.781 77.3105C214.571 77.7301 214.257 78.0448 214.048 78.4644C213.525 79.3036 213.316 78.7791 213.316 80.0379C213.316 81.5065 213.211 80.6673 213.944 81.2967C215.094 82.3457 216.141 82.2408 216.454 84.024C216.664 85.073 216.35 86.3318 215.722 87.171C214.885 88.3249 213.525 88.8494 212.165 88.9543C210.491 89.1641 209.131 88.1151 207.562 88.1151C205.365 88.3249 206.202 91.2621 205.574 92.5208ZM173.352 64.7227C172.724 66.2961 173.666 67.3451 173.456 68.8137C173.038 71.5411 170.213 69.8627 168.749 69.4431C167.284 69.0235 165.192 68.9186 164.041 70.1774C163.413 70.9117 162.785 72.695 163.518 73.5342C163.936 74.0587 165.61 74.4782 166.238 74.5831C167.284 74.7929 168.121 74.5831 169.063 75.2125C171.678 76.9958 168.958 78.5693 168.226 80.4575C167.912 80.982 167.912 81.6114 168.33 82.2408C168.226 83.6044 168.853 84.024 170.213 83.6044C172.41 83.8142 171.26 83.8142 172.515 83.2897C173.143 82.9751 173.666 82.4506 174.293 82.2408C175.13 81.9261 176.177 81.9261 177.013 82.4506C177.537 82.8701 177.85 83.3946 177.85 84.024C177.85 84.5485 177.432 84.9681 177.327 85.3877C177.013 88.8494 179.524 87.9053 181.094 87.6955C183.291 87.3808 184.546 87.9053 185.592 89.3739C185.592 87.3808 184.964 85.3877 183.5 84.024C182.349 82.8701 180.884 82.5555 179.629 81.6114C178.583 80.7722 178.374 80.0379 178.06 78.6742C177.746 77.3105 177.955 76.2615 176.909 75.2125C175.235 73.5342 173.143 74.1636 171.26 75.0027C170.632 75.3174 170.109 74.3733 170.736 74.0587C172.62 73.1146 174.817 72.5901 176.804 73.6391C179.315 75.0027 178.374 76.8909 179.21 79.1987C179.838 81.0869 182.349 81.5065 183.709 82.6604C184.546 83.2897 185.174 84.1289 185.697 85.073C186.115 85.7024 186.324 86.4367 186.534 87.171C186.638 86.0171 186.324 84.9681 185.592 83.9191C185.174 83.3946 184.546 82.975 184.128 82.3457C183.604 81.5065 183.604 80.7722 184.023 79.933C184.337 79.4085 184.86 78.9889 185.383 78.6742C185.801 78.3595 186.429 78.2546 186.848 77.9399C187.266 77.5203 188.208 75.8419 188.103 75.1076C187.475 72.2754 182.872 74.2685 181.198 73.4293C178.897 72.2754 180.989 68.6039 180.675 66.9255C180.675 66.6108 180.57 66.2961 180.361 65.9814C180.257 65.8765 180.152 65.7716 180.152 65.6667C180.152 65.5618 180.152 65.5619 180.152 65.457C178.687 62.8345 174.817 61.0512 173.352 64.7227ZM189.463 91.4719C189.568 91.367 189.672 91.2621 189.777 91.1572C189.672 90.6327 189.568 90.1082 189.463 89.6886C189.568 90.2131 189.568 90.8425 189.463 91.4719ZM204.633 91.9963C205.365 90.4229 204.319 89.7935 204.633 88.5347C204.737 87.9053 205.156 87.3808 205.783 87.171C207.248 86.6465 209.445 88.1151 211.014 88.1151C213.107 88.22 216.036 86.7514 215.199 84.1289C214.676 82.3457 213.107 82.7653 212.06 81.8212C211.537 81.4016 211.328 80.982 211.328 80.2477C211.328 79.7232 211.642 79.4085 211.956 79.0938C212.897 77.9399 214.048 77.1007 213.944 75.4223C213.839 73.5342 211.956 71.646 209.864 70.9117C209.654 71.0166 209.55 71.1215 209.34 71.2264C208.922 71.4362 208.503 71.0166 208.608 70.597C207.143 70.4921 205.679 71.1215 205.156 72.9048C204.737 74.0587 205.156 75.5272 204.528 76.6811C204.005 77.6252 203.168 78.0448 202.122 78.0448C201.389 78.0448 200.657 77.6252 200.029 77.4154C199.506 77.2056 198.983 76.9958 198.46 76.8909C195.635 77.6252 194.799 78.7791 195.845 80.3526C196.577 82.031 196.996 84.024 194.589 84.5485C192.811 84.8632 189.254 83.4995 189.986 86.9612C190.195 88.22 190.614 89.269 190.718 90.4229C191.765 89.6886 192.811 89.0592 194.066 88.6396C195.531 88.22 196.996 88.22 198.356 87.8004C200.239 87.171 201.389 85.7024 202.331 84.024C203.9 81.1918 206.62 76.9958 210.387 79.4085C210.91 79.7232 210.387 80.6673 209.864 80.3526C205.365 77.4154 203.377 85.8073 200.657 87.9053C198.983 89.0592 197.1 89.1641 195.217 89.5837C193.439 90.0033 192.078 90.7376 190.823 91.7866V91.8914C193.857 90.4229 196.577 93.2551 199.611 93.8845C201.494 94.0943 203.796 93.7796 204.633 91.9963Z" fill="white" fill-opacity="0.1"/>
<path d="M166.342 128.501C164.459 123.361 170.946 120.214 170.736 115.284C170.527 110.354 166.133 107.102 166.97 101.857C167.493 98.2903 169.795 95.0384 172.933 93.2552C177.013 90.9474 182.035 93.2551 185.906 90.7376C185.906 89.8984 186.952 89.0592 187.685 89.8984C188.835 91.1572 189.881 91.1572 190.718 92.6258C190.823 92.8356 190.718 93.0454 190.718 93.2552C191.869 96.9266 190.928 95.9825 192.811 98.7099C194.903 101.752 196.368 105.528 195.322 109.2C194.275 112.871 190.718 115.284 187.371 116.543C180.57 119.165 174.503 119.48 169.063 125.039C168.539 126.088 168.226 127.137 168.539 127.977C168.853 129.235 166.866 129.76 166.342 128.501ZM172.201 119.585C173.561 118.746 175.026 117.906 176.595 117.382C181.303 115.599 187.371 115.703 191.137 111.927C197.414 105.633 189.986 101.752 188.417 96.2972C188.208 95.6678 188.417 94.7237 188.208 94.1992C187.894 93.2552 187.475 92.8356 187.057 92.5209C187.057 92.5209 187.057 92.6258 186.952 92.6258C184.232 94.5139 181.617 93.9894 178.478 94.0943C171.573 94.409 167.598 100.493 169.586 106.997C170.632 110.354 173.038 113.291 173.038 116.857C173.038 117.592 172.724 118.536 172.201 119.585Z" fill="white" fill-opacity="0.1"/>
<path d="M185.906 115.284C186.429 115.389 186.743 114.759 186.429 114.445C181.826 110.144 176.386 107.102 170.423 105.423C178.687 104.165 186.848 107.207 194.485 110.144C195.008 110.354 195.322 109.619 195.008 109.305C188.521 102.171 180.047 97.4511 170.632 95.6678C170.004 95.5629 169.69 96.507 170.318 96.7168C178.792 98.2902 186.429 102.381 192.602 108.361C184.651 105.318 176.281 102.696 167.807 104.899C167.284 105.004 167.284 105.843 167.807 105.948C173.875 107.102 179.315 109.724 184.023 113.71C179.629 112.452 175.235 111.403 170.736 110.459C170.213 110.354 169.795 111.193 170.318 111.403C173.98 113.186 177.432 115.284 180.571 117.801C181.094 118.221 181.826 117.487 181.303 117.067C179.001 115.284 176.595 113.605 174.084 112.137C178.06 113.081 182.035 114.025 185.906 115.284Z" fill="white" fill-opacity="0.1"/>
<path d="M191.346 97.9755C186.743 97.451 182.454 95.9825 178.478 93.5698C177.955 93.2551 177.432 94.0943 177.955 94.5139C182.035 97.0314 186.534 98.6049 191.346 99.1294C191.974 99.1294 191.974 98.0804 191.346 97.9755Z" fill="white" fill-opacity="0.1"/>
<path d="M177.641 179.272C172.933 183.153 165.819 182.734 161.007 179.272C156.508 176.02 153.893 170.251 155.881 164.901C156.927 162.174 159.019 159.656 161.739 158.397C164.982 156.929 170.841 157.558 171.887 152.838C172.096 151.893 173.352 151.893 173.77 152.628C174.503 153.677 174.607 153.782 174.817 154.306C176.177 153.572 177.537 152.942 179.001 152.418C179.943 152.103 180.78 153.467 180.047 154.201C179.001 155.04 178.478 156.299 178.792 157.663V157.768C180.884 164.901 184.651 173.608 177.641 179.272ZM176.7 158.292C176.7 158.187 176.595 158.083 176.595 157.873C176.49 157.663 176.595 157.453 176.595 157.243C176.595 157.138 176.595 156.929 176.595 156.824C172.62 160.39 172.829 167.628 171.05 172.244C170.423 173.922 168.958 176.964 166.97 178.433C169.167 178.538 171.469 177.699 173.143 176.23C175.34 174.237 176.072 171.3 176.281 168.363C176.595 165.111 176.177 161.649 176.7 158.292ZM165.296 163.957C163.204 165.635 161.216 167.733 160.588 170.461C160.065 172.559 160.798 174.657 162.158 176.23C162.576 174.027 164.459 171.405 165.192 170.356C167.807 166.37 170.632 162.383 172.201 157.978C170.318 160.181 167.702 161.964 165.296 163.957ZM173.666 156.719C172.724 160.285 170.946 163.432 168.958 166.579C167.912 168.258 166.761 169.936 165.61 171.614C164.982 172.559 164.25 173.503 163.832 174.552C162.367 176.65 163.099 177.804 165.924 178.013C166.552 177.594 167.075 177.174 167.493 176.545C172.41 171.09 170.423 160.81 175.967 156.089C175.863 156.194 175.758 156.194 175.653 156.299C175.444 156.404 175.235 156.404 175.026 156.404C174.712 156.719 174.189 156.929 173.666 156.719ZM161.635 177.174C159.542 174.866 158.81 171.51 160.17 168.572C162.576 163.327 168.644 161.334 171.783 156.824C170.632 157.873 169.167 158.712 167.702 159.236C165.61 160.076 163.518 159.656 161.425 160.915C158.287 163.013 156.613 167.209 157.345 170.775C157.973 173.293 159.542 175.496 161.635 177.174ZM177.537 160.915C177.327 165.321 177.955 169.831 176.177 173.817C174.607 177.279 171.05 179.797 167.284 179.692C169.272 180.111 171.364 180.006 173.352 179.377C181.931 176.44 179.734 167.733 177.537 160.915Z" fill="white" fill-opacity="0.1"/>
<path d="M213.002 114.13C206.934 115.284 206.202 122.417 204.214 127.137C202.645 131.019 199.716 133.641 196.054 135.529C194.38 136.473 192.602 137.208 190.823 138.047C188.835 145.18 184.964 152.418 177.013 153.782C176.804 153.782 176.7 153.782 176.595 153.677C175.863 154.306 175.13 154.936 174.293 155.565C173.77 155.985 173.038 155.25 173.561 154.831V154.726C173.561 149.9 174.293 144.865 177.955 141.404C179.106 140.355 180.361 139.515 181.721 138.781C181.721 138.676 181.721 138.676 181.721 138.571C183.5 130.494 186.22 122.207 192.811 116.962C193.229 116.647 193.962 117.067 193.648 117.592C192.497 119.69 191.66 121.892 190.928 124.095C191.555 123.151 192.183 122.207 192.915 121.263C196.368 116.647 200.448 112.661 204.946 109.095L205.051 108.99C205.574 108.57 205.993 109.409 205.679 109.829C199.297 117.277 196.054 126.823 189.881 134.48C198.565 128.711 200.971 114.864 212.479 113.081C213.421 112.976 213.734 114.025 213.002 114.13ZM192.915 123.256C189.777 127.662 187.266 132.592 184.755 137.313C185.801 136.788 187.894 135.529 187.998 135.424C194.066 128.711 197.309 120.109 202.436 112.766C198.879 115.808 195.635 119.375 192.915 123.256ZM183.081 138.152C185.278 134.27 187.266 130.389 189.568 126.613C189.463 126.508 189.463 126.403 189.463 126.193C189.986 123.885 190.823 121.578 191.765 119.48C186.848 124.515 184.546 131.333 183.081 138.152ZM186.429 140.355C185.383 140.984 184.337 141.718 183.291 142.557C179.838 145.495 177.118 149.271 175.34 153.467C179.629 149.691 183.395 145.285 186.429 140.355ZM189.568 138.676C188.94 138.991 188.417 139.201 187.789 139.515C187.894 139.62 181.721 148.746 177.85 152.418C184.441 150.74 187.789 144.76 189.568 138.676ZM207.98 115.913C201.18 120.004 198.251 129.445 191.974 134.375C189.463 136.264 186.638 137.417 183.814 138.886C183.709 138.991 181.617 140.04 180.884 140.459C176.595 143.187 175.026 147.383 174.607 152.103C176.281 148.537 178.583 145.285 181.512 142.557C184.023 140.25 193.02 135.739 194.066 135.215C196.472 134.061 198.983 132.697 200.762 130.599C202.959 128.081 203.691 124.83 204.737 121.787C205.574 119.794 206.62 117.592 207.98 115.913Z" fill="white" fill-opacity="0.1"/>
<path d="M76.6849 132.592C76.4757 134.585 75.7434 136.159 75.6387 138.152C75.6387 138.991 75.5341 139.935 75.3249 140.774C74.3833 144.76 71.8725 148.222 68.1063 150.005C63.9215 151.893 60.8876 150.11 56.7029 149.9C54.9244 149.795 50.9489 151.369 50.112 148.642C49.6935 147.278 50.5304 147.068 50.8443 146.019C51.6812 143.502 51.8905 141.404 52.309 138.781C53.7736 130.284 62.7707 127.452 70.1986 129.445C72.1864 127.977 75.5341 127.452 76.6849 130.389C76.9988 131.124 76.7895 131.858 76.6849 132.592ZM74.0695 133.012C73.0233 132.487 72.0817 131.963 71.0356 131.333C70.8263 131.543 70.5125 131.543 70.3032 131.543C70.094 131.648 69.8848 131.648 69.6755 131.543C62.7707 129.655 53.9828 132.697 54.0875 141.089C54.0875 142.662 54.2967 143.711 53.9828 145.18C53.669 146.858 52.6228 145.6 53.669 147.068C54.6105 148.432 54.2967 147.173 55.5521 147.383C61.5153 148.327 67.2693 150.53 71.454 144.341C73.3372 141.508 73.1279 138.676 73.4418 135.424C73.4418 135.529 73.651 133.746 73.7556 133.851C73.8602 133.536 73.9649 133.221 74.0695 133.012Z" fill="white" fill-opacity="0.1"/>
<path d="M69.7801 140.04C68.4201 140.04 68.4201 142.138 69.7801 142.138C71.1402 142.138 71.1402 140.04 69.7801 140.04Z" fill="white" fill-opacity="0.1"/>
<path d="M70.5125 135.529C69.1524 135.529 69.1524 137.627 70.5125 137.627C71.8725 137.627 71.8725 135.529 70.5125 135.529Z" fill="white" fill-opacity="0.1"/>
<path d="M67.0601 138.676C65.7 138.676 65.7 140.774 67.0601 140.774C68.3155 140.774 68.3155 138.676 67.0601 138.676Z" fill="white" fill-opacity="0.1"/>
<path d="M68.1063 134.166C66.7462 134.166 66.7462 136.263 68.1063 136.263C69.3617 136.263 69.3617 134.166 68.1063 134.166Z" fill="white" fill-opacity="0.1"/>
<path d="M57.6445 144.656C56.2844 144.656 56.2844 146.753 57.6445 146.753C59.0045 146.753 59.0045 144.656 57.6445 144.656Z" fill="white" fill-opacity="0.1"/>
<path d="M184.023 9.75555C182.558 16.1544 175.758 19.1964 170.109 16.1544C169.376 16.6789 168.121 15.7348 168.644 14.6858C170.632 10.6996 169.899 5.97919 166.761 2.83222C165.819 1.88813 167.284 0.41955 168.226 1.36364C170.946 4.19591 172.201 7.97227 171.678 11.7486C174.817 9.44085 179.001 8.81146 182.977 8.49676C183.709 8.39186 184.128 9.12615 184.023 9.75555Z" fill="white" fill-opacity="0.1"/>
<path d="M178.269 33.9872C176.49 43.0085 166.656 46.7849 158.392 43.9526C150.022 41.1203 145.419 31.9941 148.139 23.4973C150.65 15.4201 159.228 11.434 167.179 13.4271C167.284 13.4271 167.389 13.532 167.493 13.532C176.7 14.8956 179.943 25.5953 178.269 33.9872ZM166.97 15.6299C166.761 15.6299 166.656 15.525 166.552 15.525C151.277 11.7487 142.908 32.9382 156.508 40.8056C163.309 44.7918 172.933 42.9036 175.863 35.0362C178.478 28.1129 175.026 16.4691 166.97 15.6299Z" fill="white" fill-opacity="0.1"/>
<path d="M174.607 28.6373C174.293 27.0638 171.783 27.6932 172.201 29.2667C173.352 34.5116 169.167 38.8124 164.041 38.3928C162.472 38.288 162.472 40.8055 164.041 40.9104C170.946 41.5398 176.072 35.3508 174.607 28.6373Z" fill="white" fill-opacity="0.1"/>
<path d="M171.887 24.6511C170.213 24.6511 170.213 27.1687 171.887 27.1687C173.561 27.1687 173.561 24.6511 171.887 24.6511Z" fill="white" fill-opacity="0.1"/>
<path d="M154.416 35.9802C153.788 35.9802 153.788 37.0292 154.416 37.0292C155.148 37.0292 155.148 35.9802 154.416 35.9802Z" fill="white" fill-opacity="0.1"/>
<path d="M155.462 32.0991C154.834 32.0991 154.834 33.1481 155.462 33.1481C156.195 33.1481 156.195 32.0991 155.462 32.0991Z" fill="white" fill-opacity="0.1"/>
<path d="M152.324 32.8333C151.696 32.8333 151.696 33.8822 152.324 33.8822C153.056 33.8822 153.056 32.8333 152.324 32.8333Z" fill="white" fill-opacity="0.1"/>
<path d="M159.333 34.197C158.705 34.197 158.705 35.246 159.333 35.246C159.961 35.246 159.961 34.197 159.333 34.197Z" fill="white" fill-opacity="0.1"/>
<path d="M154.102 26.5393H153.788C153.161 26.5393 153.161 27.5883 153.788 27.5883H154.102C154.73 27.5883 154.73 26.5393 154.102 26.5393Z" fill="white" fill-opacity="0.1"/>
<path d="M160.065 19.1965C159.438 19.1965 159.438 20.2455 160.065 20.2455C160.693 20.2455 160.693 19.1965 160.065 19.1965Z" fill="white" fill-opacity="0.1"/>
<path d="M161.425 22.6582H161.112C160.484 22.6582 160.484 23.7072 161.112 23.7072H161.425C162.053 23.7072 162.053 22.6582 161.425 22.6582Z" fill="white" fill-opacity="0.1"/>
<path d="M167.284 21.6091H166.97C166.342 21.6091 166.342 22.6581 166.97 22.6581H167.284C168.016 22.6581 168.016 21.6091 167.284 21.6091Z" fill="white" fill-opacity="0.1"/>
<path d="M136.526 183.048C134.12 197.315 113.615 197 106.501 185.881C103.572 181.265 103.99 175.706 102.107 170.67C100.642 166.684 92.7961 157.034 98.7593 153.887C98.7593 153.782 98.7593 153.782 98.7593 153.677C98.7593 152.838 98.9685 152.208 99.1778 151.474C93.9469 153.257 93.9469 159.446 96.0392 163.747C98.5501 168.887 100.642 173.083 101.793 178.748C102.63 182.839 103.886 186.51 106.815 189.552C116.858 199.937 137.782 198.049 138.828 181.265C138.828 181.265 138.828 181.265 138.828 181.16C138.096 181.895 137.363 182.524 136.526 183.048Z" fill="white" fill-opacity="0.1"/>
<path d="M141.862 176.44C139.665 187.979 125.541 191.335 116.44 185.776C111.418 182.734 107.756 177.594 105.769 172.139C104.199 167.838 103.153 164.377 100.015 160.81C98.6547 159.236 97.19 157.558 96.9808 155.355C96.5623 150.425 101.898 147.068 106.187 146.754C111.837 146.334 116.23 150.11 117.8 155.25C120.834 157.558 126.902 156.509 130.354 157.768C132.865 158.607 135.166 160.076 137.049 161.859C140.92 165.53 142.803 171.09 141.862 176.44ZM136.631 164.377C132.969 160.076 128.157 159.027 122.821 158.607C120.52 158.397 118.637 158.397 116.963 157.138C116.544 157.138 116.126 156.929 116.021 156.404L115.917 156.299C115.603 155.985 115.603 155.565 115.707 155.25C114.661 152.313 112.569 149.9 109.221 149.061C103.049 147.488 96.4577 153.572 101.479 159.236C103.781 161.859 105.35 163.747 106.396 167.104C109.326 175.915 113.929 185.146 124.286 186.195C136.422 187.454 145.105 174.342 136.631 164.377Z" fill="white" fill-opacity="0.1"/>
<path d="M133.806 170.356C132.237 165.845 128.157 163.747 123.658 163.432C121.252 163.328 119.055 164.062 117.381 165.74C115.917 167.209 115.289 169.412 115.498 171.405C115.498 172.454 115.812 173.398 116.335 174.342C118.218 177.489 121.252 179.377 124.809 179.902C126.902 180.216 129.203 179.902 130.982 178.853C133.911 177.279 134.852 173.398 133.806 170.356Z" fill="white" fill-opacity="0.1"/>
<path d="M118.114 190.811C117.486 190.811 117.486 191.86 118.114 191.86C118.846 191.86 118.846 190.811 118.114 190.811Z" fill="white" fill-opacity="0.1"/>
<path d="M122.717 190.811H122.403C121.775 190.811 121.775 191.86 122.403 191.86H122.717C123.345 191.86 123.345 190.811 122.717 190.811Z" fill="white" fill-opacity="0.1"/>
<path d="M116.021 187.874C114.661 187.874 114.661 189.972 116.021 189.972C117.381 189.972 117.381 187.874 116.021 187.874Z" fill="white" fill-opacity="0.1"/>
<path d="M126.902 189.657C125.541 189.657 125.541 191.755 126.902 191.755C128.157 191.755 128.157 189.657 126.902 189.657Z" fill="white" fill-opacity="0.1"/>
<path d="M120.938 188.608C119.578 188.608 119.578 190.706 120.938 190.706C122.298 190.706 122.298 188.608 120.938 188.608Z" fill="white" fill-opacity="0.1"/>
<path d="M113.301 186.091C111.941 186.091 111.941 188.189 113.301 188.189C114.661 188.189 114.661 186.091 113.301 186.091Z" fill="white" fill-opacity="0.1"/>
<path d="M106.919 159.027C104.932 157.768 104.199 155.145 105.455 153.047C106.187 151.893 104.304 150.844 103.676 151.998C101.898 155.04 102.944 159.027 105.978 160.81C107.024 161.544 108.07 159.761 106.919 159.027Z" fill="white" fill-opacity="0.1"/>
<path d="M108.803 162.069C107.443 162.069 107.443 164.167 108.803 164.167C110.058 164.167 110.163 162.069 108.803 162.069Z" fill="white" fill-opacity="0.1"/>
<path d="M126.902 166.055C124.495 165.53 122.089 165.635 119.892 166.579C119.055 166.894 118.532 167.628 118.846 168.468C119.055 169.202 119.997 169.936 120.729 169.517C122.508 168.782 124.286 168.573 126.169 168.992C128.052 169.517 128.889 166.475 126.902 166.055Z" fill="white" fill-opacity="0.1"/>
<path d="M129.935 169.936C127.948 169.936 127.948 173.083 129.935 173.083C132.028 173.083 132.028 169.936 129.935 169.936Z" fill="white" fill-opacity="0.1"/>
<path d="M40.6964 130.284C39.5456 127.557 37.5578 125.144 35.047 123.571C29.6069 120.319 23.3298 122.207 20.0866 115.389C19.4589 114.13 17.6804 115.284 18.3081 116.438C20.5051 120.948 23.7483 122.627 28.4561 123.676C32.6408 124.62 36.0932 125.879 38.2902 129.865C40.1733 133.222 40.3825 137.313 38.7086 140.774C34.5239 149.271 22.7021 150.53 16.0065 144.341C10.1479 138.886 8.89252 127.033 11.2987 119.795C11.7172 118.536 9.72947 118.011 9.31099 119.27C6.80016 126.928 8.05558 139.201 13.7049 145.39C18.7266 150.845 28.7699 151.789 34.9424 147.907C40.801 144.236 43.5211 136.998 40.6964 130.284Z" fill="white" fill-opacity="0.1"/>
<path d="M26.7822 145.075C19.982 142.977 14.9604 137.103 14.1234 129.97C14.0188 129.34 12.9726 129.34 13.0772 129.97C14.0188 137.523 19.2497 143.921 26.4683 146.124C27.2007 146.334 27.4099 145.285 26.7822 145.075Z" fill="white" fill-opacity="0.1"/>
<path d="M37.4532 143.607C32.0131 145.075 27.3053 142.033 23.1206 138.991C22.5975 138.572 22.0744 139.516 22.5975 139.935C27.096 143.187 32.0131 146.334 37.7671 144.656C38.3948 144.446 38.0809 143.397 37.4532 143.607Z" fill="white" fill-opacity="0.1"/>
<path d="M23.4344 132.277C21.1328 131.019 19.3543 129.131 18.4128 126.718C18.2035 126.088 17.1573 126.403 17.3666 127.033C18.4128 129.655 20.2959 131.858 22.9113 133.222C23.539 133.536 24.0621 132.592 23.4344 132.277Z" fill="white" fill-opacity="0.1"/>
<path d="M27.096 125.879C26.4683 125.669 26.1545 126.613 26.7822 126.928C32.3269 129.026 39.0225 131.963 39.441 138.676C39.441 139.306 40.4871 139.306 40.4871 138.676C40.0687 131.333 33.1639 128.187 27.096 125.879Z" fill="white" fill-opacity="0.1"/>
<path d="M13.9142 116.438C13.3911 115.179 13.1819 113.92 13.1819 112.557C13.1819 111.927 12.1357 111.927 12.1357 112.557C12.0311 114.13 12.3449 115.599 12.9726 116.962C13.2865 117.592 14.228 117.067 13.9142 116.438Z" fill="white" fill-opacity="0.1"/>
<path d="M26.3637 111.822C25.2129 116.333 21.0282 118.116 17.262 116.123C16.5296 118.641 16.425 121.053 16.7389 123.676C16.8435 124.725 15.5881 124.935 14.9604 124.41C12.868 122.837 11.4034 121.053 10.0433 118.955C7.42789 121.158 4.08012 120.634 0.732342 119.795C-0.313837 119.48 -0.209219 118.116 0.732342 117.801C5.754 116.123 3.13855 107.312 8.36945 106.263C6.48633 103.116 6.27709 99.4442 7.95098 95.9825C8.47407 94.7238 10.3572 95.7727 9.72948 97.0315C8.47407 99.654 8.6833 102.696 10.148 105.214C11.9265 104.374 13.4957 104.27 15.3788 105.004C17.9943 106.053 21.6559 112.557 24.7945 110.773C25.6314 110.144 26.573 110.878 26.3637 111.822ZM23.6437 113.081C18.8312 113.291 16.6343 104.479 11.2988 106.892C11.2988 106.997 11.2988 106.997 11.2988 107.102C11.4034 107.626 11.0895 108.256 10.3572 108.151C5.754 107.731 6.48633 114.34 5.12629 116.753C4.81244 117.382 4.39397 117.801 4.08012 118.221C6.17247 118.536 8.16021 118.326 9.72948 116.438C10.148 115.913 11.0895 116.123 11.4034 116.648C12.3449 118.326 13.3911 119.795 14.6465 121.053C14.6465 118.746 14.9604 116.543 15.7973 114.235C16.0066 113.71 16.7389 113.186 17.3666 113.606C20.2959 115.179 22.4929 114.969 23.6437 113.081Z" fill="white" fill-opacity="0.1"/>
<path d="M7.53249 110.039C7.32325 111.717 7.11402 113.291 6.90478 114.969C6.80016 115.599 7.84634 115.599 7.95096 114.969C8.1602 113.291 8.36943 111.717 8.57867 110.039C8.68329 109.41 7.63711 109.41 7.53249 110.039Z" fill="white" fill-opacity="0.1"/>
<path d="M17.262 110.773C16.2158 109.409 14.8557 108.465 13.2865 107.836C12.6588 107.626 12.3449 108.57 12.9726 108.885C14.4373 109.514 15.5881 110.354 16.5296 111.612C16.9481 112.032 17.6804 111.298 17.262 110.773Z" fill="white" fill-opacity="0.1"/>
<path d="M19.1451 175.391C19.2497 175.286 19.2497 175.286 19.3543 175.181C20.9236 172.349 21.3421 169.412 20.7143 166.265C20.4005 164.901 18.4127 165.53 18.7266 166.789C19.0405 168.468 19.0405 170.146 18.622 171.719C18.3081 170.88 18.0989 170.041 17.785 169.202C17.3666 167.943 15.3788 168.468 15.7973 169.726C16.1112 170.67 16.3204 171.614 16.6342 172.454C15.4834 171.719 14.4373 170.985 13.3911 170.041C12.5541 169.202 10.9849 170.356 11.7172 171.3C11.8218 171.405 11.8218 171.405 11.9264 171.51C12.868 172.768 14.0188 173.922 15.1696 174.866C13.7049 174.761 12.3449 174.447 10.8803 174.027C9.52023 173.712 9.10176 175.601 10.3572 176.02C12.3449 176.755 14.3327 177.069 16.5296 177.069C16.6342 177.069 16.6342 177.069 16.7389 177.069C17.3666 177.069 17.9943 177.069 18.622 177.069C19.4589 177.279 19.8774 176.02 19.1451 175.391Z" fill="white" fill-opacity="0.1"/>
<path d="M29.7115 189.447C26.0499 193.643 16.425 190.077 13.3911 186.405C9.72946 181.79 13.0772 175.706 18.5174 175.391C18.8312 170.671 24.6898 168.573 28.5607 171.72C33.0593 175.496 33.3731 185.147 29.7115 189.447ZM29.8161 178.013C29.5022 176.545 28.8745 175.076 27.8284 174.027C25.736 171.824 19.7728 171.405 20.6097 176.44C20.819 177.489 19.5635 178.013 18.9358 177.594C13.4957 177.594 12.5541 183.993 16.8435 186.72C18.8312 187.874 22.8067 189.447 25.1083 189.238C29.9207 188.818 30.4438 181.37 29.8161 178.013Z" fill="white" fill-opacity="0.1"/>
<path d="M22.7021 185.776C21.3421 185.776 21.3421 187.874 22.7021 187.874C23.9575 187.874 23.9575 185.776 22.7021 185.776Z" fill="white" fill-opacity="0.1"/>
<path d="M26.1545 185.461C24.7944 185.461 24.7944 187.559 26.1545 187.559C27.5145 187.559 27.5145 185.461 26.1545 185.461Z" fill="white" fill-opacity="0.1"/>
<path d="M18.5174 182.314C17.1573 182.314 17.1573 184.412 18.5174 184.412C19.8774 184.412 19.8774 182.314 18.5174 182.314Z" fill="white" fill-opacity="0.1"/>
<path d="M25.8406 173.608C24.4806 173.608 24.4806 175.706 25.8406 175.706C27.096 175.706 27.096 173.608 25.8406 173.608Z" fill="white" fill-opacity="0.1"/>
<path d="M27.2007 177.803C25.8406 177.803 25.8406 179.901 27.2007 179.901C28.5607 179.901 28.5607 177.803 27.2007 177.803Z" fill="white" fill-opacity="0.1"/>
<path d="M30.9669 21.819C31.0715 21.819 31.1761 21.9239 31.1761 21.9239C34.3147 22.4484 37.244 21.819 39.964 20.1406C41.1148 19.4063 39.8594 17.7279 38.7086 18.4622C37.244 19.4063 35.6747 19.9308 34.1054 20.0357C34.7331 19.5112 35.4655 18.9867 36.0932 18.4622C37.1394 17.623 35.9886 15.9446 34.8378 16.7838C34.1054 17.3083 33.2685 17.9377 32.5362 18.5671C32.7454 17.2034 33.1639 15.9446 33.687 14.6859C34.1054 13.6369 32.5362 12.5879 31.9085 13.532C31.9085 13.6369 31.8038 13.6369 31.8038 13.7418C31.8038 13.7418 31.8038 13.7418 31.8038 13.8467C30.9669 15.2103 30.3392 16.574 29.7115 18.0426C29.3976 16.6789 29.0838 15.2103 28.9792 13.7418C28.8745 12.3781 26.8868 12.5879 26.8868 13.9516C26.8868 16.0495 27.2007 18.1475 28.0376 20.1406C28.0376 20.2455 28.1422 20.2455 28.1422 20.3504C28.3515 20.9798 28.5607 21.5043 28.7699 22.1337C29.3976 22.7631 30.7577 22.7631 30.9669 21.819Z" fill="white" fill-opacity="0.1"/>
<path d="M21.5513 36.6096C16.3204 34.6166 16.3204 24.3365 18.7266 20.2454C21.7605 15.2103 28.6653 16.2593 30.7577 21.2944C35.3608 19.9307 39.2317 24.7561 37.6624 29.4765C35.7793 34.9313 26.8868 38.6027 21.5513 36.6096ZM32.3269 32.7284C33.5823 31.8892 34.7331 30.8402 35.3608 29.4765C36.7209 26.7492 35.047 20.9797 30.5484 23.4973C29.6069 24.0218 28.6653 23.0777 28.8745 22.3434C26.9914 17.3083 20.6097 18.567 19.6682 23.6022C19.2497 25.8051 19.2497 30.1059 20.1913 32.3088C22.179 36.6096 29.293 34.5117 32.3269 32.7284Z" fill="white" fill-opacity="0.1"/>
<path d="M22.4928 28.7423C22.0744 27.4835 20.0866 28.2178 20.5051 29.4766C21.0282 30.7354 23.0159 30.0011 22.4928 28.7423Z" fill="white" fill-opacity="0.1"/>
<path d="M24.0621 31.8893C23.6436 30.6305 21.6559 31.3648 22.0744 32.6236C22.5975 33.8824 24.5852 33.1481 24.0621 31.8893Z" fill="white" fill-opacity="0.1"/>
<path d="M24.376 23.6022C23.9575 22.3434 21.9698 23.0777 22.3882 24.3365C22.9113 25.5953 24.7944 24.861 24.376 23.6022Z" fill="white" fill-opacity="0.1"/>
<path d="M35.047 27.4835C34.6285 26.2247 32.6408 26.959 33.0593 28.2178C33.5823 29.3717 35.4655 28.7423 35.047 27.4835Z" fill="white" fill-opacity="0.1"/>
<path d="M31.5946 30.2108C31.1761 28.952 29.1884 29.6863 29.6069 30.9451C30.13 32.2039 32.1177 31.4696 31.5946 30.2108Z" fill="white" fill-opacity="0.1"/>
<path d="M218.756 187.349C218.233 191.44 216.036 195.741 211.747 196.79C209.027 197.42 206.202 196.581 204.528 194.483C199.82 198.469 193.229 193.224 192.706 187.559C192.392 183.888 193.439 179.377 196.996 177.699C199.82 176.335 202.959 177.174 205.679 178.433C207.98 176.23 211.328 175.496 214.362 176.86C218.442 178.748 219.279 183.363 218.756 187.349ZM213.944 179.797C212.165 178.223 209.445 179.062 207.771 180.426C207.562 181.265 206.62 182 205.679 181.475C204.214 180.741 202.017 179.587 200.134 179.797C196.472 180.216 195.531 183.468 195.531 186.196C195.426 190.391 200.239 195.846 203.796 191.231C204.319 190.601 205.679 190.706 205.993 191.545C208.817 197.839 214.99 192.07 215.827 187.874C216.454 185.251 216.141 181.79 213.944 179.797Z" fill="white" fill-opacity="0.1"/>
<path d="M32.9546 80.0378C32.0131 81.7162 30.13 82.6603 28.3515 82.2407C28.0376 83.7093 26.9914 84.8632 25.3175 85.3877C22.8067 86.2269 20.4005 84.6534 18.9358 82.6603C17.3666 80.6672 16.0065 77.7301 17.1573 75.2125C17.9943 73.3243 19.8774 72.3802 21.7605 72.9047C21.8651 71.2263 22.8067 69.6529 24.4806 68.9186C27.2007 67.6598 30.3392 69.1284 31.9085 71.4361C33.4777 73.8488 34.3147 77.5203 32.9546 80.0378ZM31.49 76.786C31.49 75.4223 31.0715 73.9537 30.2346 72.7998C29.293 71.4361 27.6191 70.1774 25.736 70.7018C24.1667 71.3312 23.4344 73.0096 24.0621 74.4782C24.4806 75.6321 22.9113 76.1566 22.2836 75.3174C22.0744 75.3174 21.8651 75.3174 21.6559 75.2125C19.7728 74.1635 18.9358 77.7301 19.2497 78.9889C19.4589 79.6182 19.8774 80.4574 20.2959 80.9819C20.9236 81.926 21.6559 82.7652 22.7021 83.1848C23.4344 83.7093 24.376 83.7093 25.3175 83.2897C25.736 82.5554 26.0499 81.8211 26.4683 81.0868C26.2591 80.2476 27.2007 79.3035 28.0376 79.9329C30.13 81.5064 31.49 78.6742 31.49 76.786Z" fill="white" fill-opacity="0.1"/>
<path d="M209.654 170.251C208.922 165.53 206.307 161.544 202.54 158.922C201.808 158.397 201.076 159.656 201.808 160.18C204.737 162.278 206.83 165.111 207.771 168.572C208.608 171.614 209.236 177.803 205.365 179.167C204.528 179.482 204.842 180.846 205.783 180.531C209.759 178.957 210.177 173.922 209.654 170.251Z" fill="white" fill-opacity="0.1"/>
<path d="M25.2129 57.3796C25.736 56.96 25.2129 56.1208 24.6898 56.4355C21.8651 58.4286 19.5635 61.0511 19.1451 64.6176C18.7266 68.0793 20.1913 71.436 22.7021 73.6389C23.2252 74.0585 23.9575 73.3242 23.4344 72.9046C18.0989 68.1842 19.8774 61.0511 25.2129 57.3796Z" fill="white" fill-opacity="0.1"/>
<path d="M71.454 39.9664C71.1402 43.8477 68.8386 46.9946 65.3862 48.673C64.8631 48.9877 64.34 48.3583 64.7585 47.8338C68.2109 43.3232 65.2816 37.5537 64.9677 32.099C63.6077 35.3509 61.5153 38.288 58.586 40.7007C57.5398 41.5399 56.0752 40.0713 57.1214 39.2321C61.4107 35.7705 63.9215 31.05 64.34 25.5953C64.4446 24.2316 66.537 24.2316 66.4324 25.5953C66.4324 25.8051 66.3278 26.0149 66.3278 26.3296C66.4324 26.3296 66.4324 26.4345 66.537 26.5394C69.0478 30.4206 71.8725 34.9313 71.454 39.9664ZM70.3032 37.7635C69.8848 34.0921 68.0016 30.8402 66.1185 27.7981C66.1185 28.0079 66.0139 28.1128 66.0139 28.3226C66.2231 28.4275 66.3277 28.6373 66.2231 28.8471C64.5492 34.7215 68.9432 41.1203 66.537 46.6799C69.3617 44.6869 70.7217 41.435 70.3032 37.7635Z" fill="white" fill-opacity="0.1"/>
<path d="M60.4691 45.0014C60.3645 49.0925 57.1214 53.1836 53.0413 54.0227C49.4843 54.757 45.4042 52.3444 45.0903 48.568C44.7765 44.1623 48.8566 39.6516 53.0413 39.0222H53.1459C57.1214 37.5536 60.5738 41.1202 60.4691 45.0014ZM53.4597 40.7006C53.3551 40.8055 53.1459 40.8055 53.0413 40.7006C50.3212 41.33 48.0196 43.6378 47.0781 46.2602C46.0319 49.617 48.5427 52.5542 51.9951 52.3444C55.029 52.1346 57.5398 49.5121 58.3768 46.6798C59.423 43.5329 57.4352 39.232 53.4597 40.7006Z" fill="white" fill-opacity="0.1"/>
<path d="M50.112 47.8337C48.7519 47.8337 48.7519 49.9317 50.112 49.9317C51.472 49.9317 51.472 47.8337 50.112 47.8337Z" fill="white" fill-opacity="0.1"/>
<path d="M56.5983 156.194C56.5983 156.089 56.7029 156.089 56.8075 155.985C56.8075 155.775 56.7029 155.565 56.7029 155.25C56.5983 153.887 58.6906 153.887 58.7953 155.25C59.2137 160.705 61.7246 165.53 66.0139 168.887C67.0601 169.726 65.5954 171.195 64.5492 170.356C61.6199 168.048 59.5276 165.111 58.1676 161.754C57.8537 167.104 54.9244 172.978 58.3768 177.489C58.6906 177.908 58.2722 178.538 57.7491 178.328C54.2967 176.65 51.9951 173.503 51.6812 169.621C51.2628 164.691 54.0875 160.181 56.5983 156.194ZM56.5983 176.44C54.1921 170.88 58.586 164.376 56.9121 158.607C56.8075 158.292 56.9121 158.187 57.1214 158.083C57.1214 157.873 57.0168 157.768 57.0168 157.558C55.029 160.6 53.2505 163.852 52.832 167.523C52.4136 171.195 53.7736 174.447 56.5983 176.44Z" fill="white" fill-opacity="0.1"/>
<path d="M69.8848 168.677H69.9894C74.1741 169.307 78.2542 173.922 77.9403 178.223C77.6265 182.104 73.5464 184.412 69.9894 183.678C65.9093 182.839 62.6661 178.748 62.5615 174.657C62.4569 170.88 66.0139 167.314 69.8848 168.677ZM64.6539 176.545C65.4908 179.377 68.0016 182 71.0356 182.209C74.4879 182.419 76.9988 179.482 75.9526 176.125C75.1156 173.398 72.8141 171.09 69.9894 170.566C69.8848 170.566 69.7801 170.566 69.5709 170.566C65.7 168.992 63.7123 173.293 64.6539 176.545Z" fill="white" fill-opacity="0.1"/>
<path d="M73.0233 177.594C74.3833 177.594 74.3833 179.692 73.0233 179.692C71.6633 179.692 71.6633 177.594 73.0233 177.594Z" fill="white" fill-opacity="0.1"/>
<path d="M242.923 121.368C240.726 123.676 237.169 126.718 233.716 125.984C232.67 125.774 232.147 125.144 231.206 124.62C229.636 123.676 227.753 123.99 226.079 123.361C224.615 122.837 223.464 122.102 222.731 120.739C220.325 116.962 221.685 110.983 222.418 106.892C223.15 102.906 223.778 97.3461 226.916 94.5139C229.95 91.6816 233.612 93.36 236.541 95.5629C236.75 95.6678 236.75 95.8776 236.75 95.9825C239.261 95.3531 242.086 96.4021 243.55 98.9196C245.643 97.7657 248.154 97.3461 250.037 99.2343C252.548 101.752 250.978 105.843 249.932 108.57C248.363 113.186 246.271 117.801 242.923 121.368ZM249.2 106.997C249.618 105.843 250.037 104.794 250.141 103.535C250.56 100.703 248.781 99.4441 244.701 99.8637C243.76 100.388 242.923 101.018 242.086 101.752C241.353 102.381 240.517 101.227 241.249 100.598C241.667 100.283 242.086 99.8637 242.609 99.549C240.621 95.9825 235.495 96.2971 233.926 100.283C233.612 101.122 232.252 100.598 232.566 99.7588C233.193 98.1853 234.239 97.0314 235.495 96.402C232.984 94.6188 229.846 93.2551 227.439 96.1922C226.602 97.1363 226.184 98.3951 225.765 99.6539C224.615 102.906 223.987 106.472 223.568 109.829C223.15 113.081 222.208 117.487 224.405 120.214C226.184 122.417 228.695 121.368 230.996 122.522C231.624 122.941 232.147 123.361 232.67 123.886C234.135 123.99 235.6 124.095 236.96 124.2C238.633 123.781 240.726 121.788 241.877 120.634C243.55 118.85 244.911 116.648 246.061 114.445C247.212 111.927 248.258 109.514 249.2 106.997Z" fill="white" fill-opacity="0.1"/>
<path d="M236.646 86.3318C235.704 86.2269 235.6 87.6955 236.436 87.8004C240.307 88.3248 242.086 92.7306 239.575 95.7727C238.947 96.507 240.098 97.3461 240.726 96.6118C243.969 92.7306 241.667 86.9612 236.646 86.3318Z" fill="white" fill-opacity="0.1"/>
<path d="M231.415 95.8775C227.858 97.0314 226.602 100.598 225.661 103.85C225.452 104.689 226.707 105.318 227.021 104.374C227.858 101.437 228.799 98.1853 231.938 97.1363C232.879 96.9265 232.356 95.6677 231.415 95.8775Z" fill="white" fill-opacity="0.1"/>
<path d="M225.033 106.158L224.928 106.368C224.615 107.207 225.87 107.731 226.289 106.892L226.393 106.682C226.707 105.843 225.452 105.319 225.033 106.158Z" fill="white" fill-opacity="0.1"/>
<path d="M241.249 117.592C241.563 116.752 240.203 116.123 239.889 117.067C239.157 119.27 237.273 120.843 234.972 121.053C234.03 121.158 234.239 122.522 235.181 122.522C237.901 122.312 240.307 120.319 241.249 117.592Z" fill="white" fill-opacity="0.1"/>
<path d="M250.141 165.111C248.781 163.747 247.526 162.279 246.375 160.81C246.271 160.6 246.166 160.495 246.061 160.39C245.329 159.446 244.492 158.397 243.864 157.348C244.597 155.25 245.957 153.572 247.944 152.523C248.781 152.103 248.049 150.635 247.212 151.159C245.957 151.789 244.91 152.733 243.969 153.782C244.283 151.684 245.12 149.796 246.48 148.117C247.107 147.383 245.747 146.544 245.12 147.278C243.341 149.481 242.4 152.208 242.19 155.041C241.353 153.782 240.621 152.418 239.889 151.054C239.889 150.845 239.784 150.53 239.575 150.425C239.366 150.005 239.157 149.691 238.947 149.271C239.157 146.544 239.68 143.816 240.412 141.089C240.726 140.145 239.157 139.725 238.947 140.669C238.424 142.662 238.006 144.656 237.692 146.649C236.96 144.97 236.436 143.397 235.913 141.613C236.018 141.299 235.913 140.774 235.6 140.669C234.972 138.467 234.449 136.264 234.03 134.061C233.821 133.117 232.356 133.431 232.566 134.375C232.984 136.473 233.403 138.466 234.03 140.46C231.729 140.145 229.532 139.306 227.649 137.732C226.916 137.103 226.079 138.467 226.812 139.096C229.009 140.879 231.624 141.928 234.449 142.033C235.286 144.551 236.227 147.068 237.378 149.481C237.378 149.691 237.483 149.9 237.587 150.005C236.123 149.691 234.763 149.061 233.507 148.117C233.403 148.012 233.193 148.012 233.089 148.012C231.833 146.963 230.578 145.914 229.532 144.656C228.904 143.921 227.753 144.97 228.381 145.705C229.427 146.858 230.473 147.907 231.624 148.851C230.682 149.376 229.741 149.481 228.59 149.376C227.649 149.271 227.544 150.845 228.59 150.949C230.264 151.159 231.833 150.74 233.089 149.796C234.763 150.949 236.541 151.579 238.529 151.684C239.993 154.621 241.772 157.348 243.76 159.971C243.237 159.971 242.714 159.866 242.295 159.866C242.086 159.761 241.877 159.761 241.772 159.866C240.412 159.761 238.947 159.761 237.587 159.761C236.646 159.761 236.541 161.334 237.587 161.334C238.529 161.334 239.575 161.334 240.517 161.334C239.68 162.279 238.947 163.223 238.11 164.167C237.483 164.901 238.529 166.055 239.157 165.321L242.4 161.439C243.341 161.544 244.283 161.544 245.224 161.649C246.48 163.118 247.735 164.691 249.095 166.055C249.723 166.894 250.874 165.845 250.141 165.111Z" fill="white" fill-opacity="0.1"/>
<path d="M207.039 36.7147C207.353 34.6167 206.307 30.8404 204.005 30.211C204.528 29.7914 204.005 28.8473 203.377 29.2669C203.273 29.2669 203.168 29.3718 203.168 29.3718C202.959 28.5326 202.959 27.5885 202.436 26.7493C201.808 25.7003 200.866 25.0709 199.716 24.5464C199.192 24.3366 198.774 25.0709 199.088 25.4905C200.448 26.8542 201.18 28.3228 201.599 30.1061C198.669 31.1551 194.799 31.8894 195.74 35.6657C195.845 36.2951 196.786 36.1902 196.891 35.5608C196.996 33.253 200.448 32.5188 202.226 31.8894C202.436 31.7845 202.54 31.7845 202.749 31.6796C203.168 31.8894 203.691 32.2041 203.9 32.309C205.47 33.3579 206.202 34.8265 205.993 36.7147C205.993 37.3441 206.934 37.5539 207.143 36.9245C206.934 36.9245 206.934 36.8196 207.039 36.7147C207.039 36.8196 207.039 36.8196 207.039 36.7147C207.039 36.7147 207.039 36.8196 207.039 36.7147Z" fill="white" fill-opacity="0.1"/>
<path d="M222.313 14.7911C222.104 21.6095 216.768 32.4141 208.922 32.7288C205.993 32.8337 203.377 31.1553 202.645 28.2181C201.913 25.281 203.691 22.7634 205.993 21.085C210.177 18.043 216.664 16.2597 217.291 10.1756C217.605 7.23838 213.316 3.14733 216.454 0.734658C216.559 0.629759 216.664 0.629759 216.768 0.629759C217.396 -0.629027 219.07 0.000366002 219.384 1.46895C219.488 1.99344 219.384 2.41304 219.279 2.83263C219.175 3.98652 219.488 4.93061 220.116 5.8747C220.43 6.50409 220.744 7.13349 221.058 7.76288C221.999 10.0707 222.418 12.4833 222.313 14.7911ZM220.011 8.18247C219.593 7.02859 218.651 5.8747 218.338 4.72081C218.128 3.88162 218.128 3.98652 218.233 3.25223C218.233 2.83263 218.338 2.41304 218.442 1.99344C218.233 1.78365 218.024 1.67875 217.814 1.46895C217.71 1.88854 217.396 1.88854 217.082 1.78365C215.513 3.25223 217.501 5.4551 218.024 6.81879C218.442 7.97268 218.651 9.02166 218.442 10.2805C218.233 12.2735 217.291 14.1617 215.931 15.6303C214.153 17.7283 211.747 19.092 209.34 20.3507C206.307 22.0291 202.436 24.4418 203.9 28.5328C205.888 33.7778 212.06 31.1553 214.781 28.4279C217.291 25.9104 219.279 22.7634 220.325 19.3017C221.476 15.7352 221.476 11.749 220.011 8.18247Z" fill="white" fill-opacity="0.1"/>
<path d="M213.002 26.8543C211.433 28.6376 209.131 29.1621 206.934 28.218C206.307 27.9033 205.888 29.0572 206.62 29.267C209.131 30.4209 212.06 29.6866 213.839 27.6935C214.257 27.169 213.525 26.3298 213.002 26.8543Z" fill="white" fill-opacity="0.1"/>
<path d="M216.036 24.3367C215.304 24.5465 215.617 25.5954 216.245 25.4905C216.978 25.2807 216.664 24.1269 216.036 24.3367Z" fill="white" fill-opacity="0.1"/>
<path d="M242.609 45.1066C241.458 45.3164 241.981 47.0997 243.132 46.8899C252.025 44.8968 256.732 55.072 252.757 62.1002C249.514 67.8696 242.609 69.9676 236.332 69.3382C229.532 68.499 222.836 63.9884 222.522 56.6455C222.208 49.1976 229.113 45.3164 235.6 45.1066C236.75 45.1066 236.75 43.2184 235.6 43.3233C228.067 43.5331 220.325 48.2536 220.639 56.6455C221.058 65.7717 229.846 71.1215 238.215 71.2264C246.375 71.3313 254.954 66.401 256 57.5895C256.837 49.9319 250.246 43.4282 242.609 45.1066Z" fill="white" fill-opacity="0.1"/>
<path d="M231.101 62.205C228.067 59.6874 226.916 55.4915 228.59 51.82C229.113 50.771 227.544 49.8269 227.021 50.8759C225.033 55.1768 226.079 60.3168 229.846 63.4638C230.682 64.1981 232.042 62.9393 231.101 62.205Z" fill="white" fill-opacity="0.1"/>
<path d="M233.193 64.303C232.043 64.303 232.043 66.0863 233.193 66.0863C234.344 66.0863 234.344 64.303 233.193 64.303Z" fill="white" fill-opacity="0.1"/>
</g>
<defs>
<clipPath id="clip0_25_127">
<rect width="256" height="197" fill="white"/>
</clipPath>
</defs>
</svg>
