<svg width="638" height="193" viewBox="0 0 638 193" fill="none" xmlns="http://www.w3.org/2000/svg">
<path d="M427.281 138.852C426.477 138.852 425.706 138.818 424.935 138.718C416.455 137.746 409.919 131.813 409.383 124.607C408.712 115.892 413.841 110.965 417.963 106.977C421.013 104.027 422.857 102.117 422.488 99.9381C422.119 97.86 419.17 96.7539 415.751 95.4803C410.321 93.4357 402.88 90.6538 404.456 81.2689C405.227 76.6434 408.143 73.1576 412.835 71.1466C419.036 68.5322 427.348 69.102 430.666 71.3812C431.538 71.9845 431.739 73.1576 431.169 74.0291C430.566 74.9005 429.393 75.1016 428.521 74.5318C426.644 73.2582 419.84 72.3197 414.31 74.6659C410.791 76.1407 408.746 78.5875 408.176 81.9057C407.171 87.8048 410.891 89.6147 417.058 91.9609C421.215 93.5027 425.505 95.1116 426.209 99.3348C426.946 103.625 423.862 106.608 420.578 109.759C416.656 113.513 412.634 117.434 413.137 124.372C413.539 129.735 418.667 134.227 425.337 134.997C431.806 135.735 439.951 132.718 443.336 121.959C446.587 111.669 441.325 104.228 436.7 97.6924C432.108 91.2236 427.382 84.5201 434.487 77.4144C436.8 75.0681 439.616 74.0291 442.766 74.2637C452.62 75.0011 462.81 88.5757 463.245 89.1455C463.882 89.9834 463.681 91.19 462.843 91.7933C462.005 92.4302 460.799 92.2291 460.195 91.3911C457.547 87.8383 449.235 78.5204 442.498 78.0177C440.454 77.8836 438.711 78.5539 437.169 80.0622C432.543 84.6876 434.89 88.5422 439.783 95.4468C444.677 102.351 450.777 110.965 446.956 123.065C443.303 134.729 434.789 138.852 427.281 138.852Z" fill="#FF8126" fill-opacity="0.08"/>
<path d="M467.67 104.731C467.301 104.731 466.932 104.731 466.564 104.698C454.665 103.793 442.431 88.2404 441.895 87.6036C441.258 86.7657 441.392 85.5925 442.23 84.9222C443.068 84.2854 444.241 84.4194 444.911 85.2574C445.012 85.3914 456.642 100.139 466.865 100.91C469.614 101.111 471.926 100.273 473.971 98.3292C476.988 95.4802 477.893 92.0949 476.753 88.0058C474.306 79.2577 463.447 70.6772 458.955 69.7052C457.916 69.4706 457.279 68.4651 457.514 67.4596C457.749 66.4205 458.754 65.7837 459.76 66.0183C465.29 67.2249 477.524 76.6769 480.44 87.0003C481.948 92.4301 480.641 97.3237 476.619 101.111C474.038 103.491 471.022 104.731 467.67 104.731Z" fill="#FF8126" fill-opacity="0.08"/>
<path d="M453.604 67.7513C454.989 67.1775 455.647 65.5893 455.073 64.204C454.499 62.8187 452.911 62.1609 451.526 62.7347C450.14 63.3085 449.482 64.8967 450.056 66.282C450.63 67.6673 452.218 68.3251 453.604 67.7513Z" fill="#FF8126" fill-opacity="0.08"/>
<path d="M446.52 64.8784C447.261 64.8784 447.861 64.2782 447.861 63.5377C447.861 62.7973 447.261 62.197 446.52 62.197C445.78 62.197 445.179 62.7973 445.179 63.5377C445.179 64.2782 445.78 64.8784 446.52 64.8784Z" fill="#FF8126" fill-opacity="0.08"/>
<path d="M443.403 62.8338C443.403 63.2025 443.101 63.4707 442.766 63.4707C442.431 63.4707 442.129 63.169 442.129 62.8338C442.129 62.4652 442.431 62.197 442.766 62.197C443.101 62.197 443.403 62.4652 443.403 62.8338Z" fill="#FF8126" fill-opacity="0.08"/>
<path d="M441.224 142.74C440.789 142.74 440.521 142.706 440.453 142.706C439.414 142.606 438.644 141.667 438.744 140.628C438.845 139.589 439.783 138.818 440.822 138.919C441.224 138.952 450.274 139.589 456.475 127.892C458.486 124.138 459.491 121.423 460.229 119.445C462.374 113.68 463.413 112.574 472.898 110.295C485.736 107.178 491.601 104.899 493.646 96.0834C494.685 91.6591 490.596 86.0952 486.674 80.7324C482.686 75.3026 478.932 70.1744 479.267 65.1468C479.334 64.1077 480.239 63.3033 481.278 63.3704C482.317 63.4374 483.121 64.3424 483.054 65.3814C482.82 69.0348 486.339 73.8278 489.724 78.4867C494.182 84.5534 498.774 90.8212 497.333 96.9549C494.718 108.15 486.674 110.865 473.77 113.982C465.558 115.959 465.424 116.328 463.748 120.786C462.977 122.864 461.905 125.713 459.793 129.702C453.358 141.768 443.973 142.74 441.224 142.74Z" fill="#FF8126" fill-opacity="0.08"/>
<path d="M400.936 137.277C400.3 137.277 399.663 136.941 399.294 136.338C390.646 121.925 397.652 114.317 401.875 109.759C402.981 108.586 404.087 107.345 404.288 106.608C404.556 105.569 404.422 105.267 401.841 103.692C399.897 102.519 397.484 101.044 395.641 98.1615C391.451 91.7262 395.339 83.0787 395.507 82.71C395.942 81.7715 397.082 81.3358 398.02 81.7715C398.959 82.2072 399.395 83.3468 398.959 84.2853C398.925 84.3858 395.808 91.391 398.825 96.0834C400.199 98.2286 402.143 99.4017 403.819 100.441C406.132 101.848 409.048 103.625 407.942 107.58C407.506 109.189 406.199 110.63 404.657 112.306C400.534 116.797 395.372 122.395 402.545 134.36C403.081 135.265 402.78 136.439 401.908 136.975C401.607 137.209 401.272 137.277 400.936 137.277Z" fill="#FF8126" fill-opacity="0.08"/>
<path d="M409.299 141.378C409.665 139.829 408.706 138.277 407.156 137.911C405.607 137.545 404.055 138.504 403.689 140.054C403.323 141.603 404.282 143.155 405.832 143.521C407.381 143.887 408.934 142.928 409.299 141.378Z" fill="#FF8126" fill-opacity="0.08"/>
<path d="M415.651 144.583C415.651 145.79 414.679 146.762 413.472 146.762C412.265 146.762 411.293 145.79 411.293 144.583C411.293 143.377 412.265 142.405 413.472 142.405C414.679 142.405 415.651 143.377 415.651 144.583Z" fill="#FF8126" fill-opacity="0.08"/>
<path d="M419.002 148.136C419.761 148.136 420.377 147.521 420.377 146.762C420.377 146.003 419.761 145.388 419.002 145.388C418.243 145.388 417.628 146.003 417.628 146.762C417.628 147.521 418.243 148.136 419.002 148.136Z" fill="#FF8126" fill-opacity="0.08"/>
<path d="M443.738 160.169C441.56 160.169 439.314 159.901 436.934 159.364C430.7 157.923 426.108 155.074 425.907 154.974C425.002 154.404 424.734 153.231 425.304 152.359C425.873 151.454 427.013 151.186 427.918 151.756C428.119 151.89 444.71 161.945 455.737 151.957C459.927 148.17 461.771 143.477 463.547 138.919C466.731 130.774 470.049 122.361 486.406 121.356C494.082 120.886 499.981 122.83 503.902 127.087C510.472 134.26 508.93 145.254 508.863 145.689C508.695 146.728 507.757 147.432 506.718 147.298C505.679 147.131 504.975 146.192 505.109 145.153C505.109 145.053 506.45 135.467 501.087 129.634C497.97 126.249 493.11 124.741 486.641 125.143C472.697 125.981 470.217 132.316 467.066 140.293C465.223 145.019 463.111 150.382 458.251 154.739C454.33 158.325 449.369 160.169 443.738 160.169Z" fill="#FF8126" fill-opacity="0.08"/>
<path d="M456.173 177.598C452.654 177.598 450.241 176.592 450.107 176.559C449.135 176.157 448.699 175.051 449.101 174.079C449.503 173.107 450.609 172.671 451.581 173.073C452.051 173.274 462.307 177.263 470.351 165.062C473.569 160.202 475.68 155.376 477.524 151.153C480.775 143.678 483.624 137.209 490.596 139.053C494.517 140.058 495.959 142.505 496.461 144.382C497.936 149.711 493.948 156.884 489.356 161.644C487.981 163.051 487.412 164.627 487.814 165.833C488.082 166.604 488.719 167.14 489.59 167.274C491.434 167.576 494.618 166.269 498.07 161.711C498.707 160.873 499.88 160.705 500.718 161.342C501.556 161.979 501.724 163.152 501.087 163.99C497.266 169.118 492.841 171.665 488.953 171.028C486.674 170.66 484.864 169.151 484.16 167.04C483.289 164.459 484.194 161.442 486.574 158.996C490.998 154.437 493.646 148.605 492.774 145.388C492.406 144.047 491.367 143.175 489.59 142.706C486.071 141.768 484.496 144.55 480.943 152.661C479.133 156.851 476.854 162.046 473.468 167.174C468.374 174.883 462.307 177.062 458.151 177.531C457.514 177.564 456.844 177.598 456.173 177.598Z" fill="#FF8126" fill-opacity="0.08"/>
<path d="M506.32 156.564C507.459 155.426 507.459 153.579 506.32 152.441C505.182 151.302 503.335 151.302 502.197 152.441C501.058 153.579 501.058 155.426 502.197 156.564C503.335 157.703 505.182 157.703 506.32 156.564Z" fill="#FF8126" fill-opacity="0.08"/>
<path d="M403.584 164.392C403.249 164.392 402.88 164.292 402.579 164.09C372.949 145.421 380.223 127.925 385.049 116.361C385.786 114.552 386.49 112.876 386.993 111.367C388.3 107.312 386.926 103.926 385.183 99.6362C382.669 93.536 379.586 85.9275 384.68 74.0959C393.261 54.22 427.717 52.0748 429.158 52.0078C430.197 51.9408 431.102 52.7452 431.169 53.7842C431.236 54.8233 430.432 55.7283 429.393 55.7953C429.058 55.8288 395.808 57.8734 388.166 75.6041C383.708 85.9275 386.256 92.1618 388.702 98.195C390.579 102.787 392.356 107.111 390.647 112.507C390.11 114.149 389.373 115.926 388.602 117.803C386.256 123.467 383.574 129.903 384.747 137.075C386.122 145.522 392.658 153.331 404.657 160.873C405.528 161.443 405.796 162.616 405.26 163.487C404.824 164.09 404.221 164.392 403.584 164.392Z" fill="#FF8126" fill-opacity="0.08"/>
<path d="M523.912 122.093C521.767 122.093 519.555 121.523 517.242 120.35C508.829 116.16 506.114 103.524 503.265 90.1843C501.455 81.7379 499.578 72.9898 496.193 66.0852C488.182 49.6281 451.548 55.7618 451.179 55.8288C450.14 55.9964 449.168 55.3261 448.967 54.287C448.799 53.248 449.47 52.276 450.509 52.0749C452.118 51.8067 490.328 45.4049 499.578 64.4428C503.131 71.7832 505.075 80.7323 506.919 89.4134C509.6 101.848 512.114 113.579 518.884 116.965C521.8 118.44 524.482 118.674 526.761 117.736C531.487 115.758 533.632 109.423 533.666 109.356C534.001 108.351 535.073 107.814 536.079 108.15C537.084 108.485 537.621 109.557 537.286 110.529C537.185 110.865 534.604 118.574 528.236 121.221C526.895 121.791 525.454 122.093 523.912 122.093Z" fill="#FF8126" fill-opacity="0.08"/>
<path d="M522.974 104.932C521.968 104.932 521.13 104.128 521.063 103.122C521.063 102.955 520.326 85.3243 518.583 71.5151C517.98 66.6216 520.46 57.5383 527.8 53.6503C533.498 50.6337 543.587 49.9634 559.34 63.8061C560.144 64.51 560.211 65.6831 559.508 66.4875C558.804 67.2919 557.631 67.3589 556.826 66.6551C545.631 56.8009 536.213 53.4827 529.577 57.002C524.08 59.9181 521.868 67.0238 522.37 71.0459C524.113 85.0227 524.851 102.787 524.884 102.955C524.918 103.994 524.113 104.899 523.074 104.932C523.041 104.932 523.007 104.932 522.974 104.932Z" fill="#FF8126" fill-opacity="0.08"/>
<path d="M538.459 100.139C538.66 101.882 537.386 103.457 535.61 103.658C533.867 103.859 532.292 102.586 532.09 100.809C531.889 99.0664 533.163 97.491 534.939 97.2899C536.716 97.0888 538.258 98.3625 538.459 100.139Z" fill="#FF8126" fill-opacity="0.08"/>
<path d="M535.61 91.9942C535.71 92.8992 535.04 93.7036 534.168 93.8041C533.263 93.9047 532.459 93.2343 532.359 92.3629C532.258 91.4914 532.928 90.6535 533.8 90.5529C534.738 90.4524 535.543 91.0892 535.61 91.9942Z" fill="#FF8126" fill-opacity="0.08"/>
<path d="M533.766 86.8325C533.8 87.2682 533.498 87.6704 533.029 87.7375C532.593 87.771 532.191 87.4693 532.124 87.0001C532.057 86.5308 532.392 86.1621 532.861 86.0951C533.331 86.0616 533.733 86.3967 533.766 86.8325Z" fill="#FF8126" fill-opacity="0.08"/>
<path d="M553.34 120.92C552.301 120.92 551.43 120.082 551.43 119.009C551.43 117.97 552.268 117.099 553.34 117.099C553.374 117.099 558.569 117.032 561.351 113.982C562.759 112.44 563.329 110.362 563.094 107.68C562.792 104.128 559.34 94.508 554.312 85.2237C547.911 73.392 542.849 69.1018 540.235 69.0012C538.425 68.9342 537.051 69.4369 536.012 70.5095C533.699 72.9563 533.565 77.8834 533.699 79.5928C533.8 80.6318 533.029 81.5703 531.956 81.6373C530.917 81.7379 529.979 80.967 529.912 79.8944C529.878 79.5592 529.275 72.0513 533.263 67.8616C535.073 65.9511 537.453 65.0461 540.369 65.1467C546.637 65.3813 553.24 75.1684 557.664 83.3467C562.524 92.3294 566.479 102.586 566.881 107.278C567.217 111.032 566.278 114.149 564.133 116.496C560.211 120.886 553.609 120.92 553.34 120.92Z" fill="#FF8126" fill-opacity="0.08"/>
<path d="M414.679 170.358C416.548 170.358 418.064 168.843 418.064 166.973C418.064 165.103 416.548 163.588 414.679 163.588C412.809 163.588 411.293 165.103 411.293 166.973C411.293 168.843 412.809 170.358 414.679 170.358Z" fill="#FF8126" fill-opacity="0.08"/>
<path d="M425.873 170.626C425.873 171.833 424.901 172.805 423.695 172.805C422.488 172.805 421.516 171.833 421.516 170.626C421.516 169.42 422.488 168.448 423.695 168.448C424.901 168.448 425.873 169.453 425.873 170.626Z" fill="#FF8126" fill-opacity="0.08"/>
<path d="M432.946 173.174C432.946 174.012 432.275 174.682 431.437 174.682C430.599 174.682 429.929 174.012 429.929 173.174C429.929 172.336 430.599 171.665 431.437 171.665C432.275 171.665 432.946 172.336 432.946 173.174Z" fill="#FF8126" fill-opacity="0.08"/>
<path d="M436.901 175.687C437.178 175.687 437.403 175.462 437.403 175.185C437.403 174.907 437.178 174.682 436.901 174.682C436.623 174.682 436.398 174.907 436.398 175.185C436.398 175.462 436.623 175.687 436.901 175.687Z" fill="#FF8126" fill-opacity="0.08"/>
<path d="M525.823 183.866C524.549 183.866 523.342 183.43 522.236 182.592C517.611 178.972 516.036 168.247 515.566 163.822C514.628 154.974 515.298 146.259 517.309 141.097C521.13 131.243 527.331 127.992 534.47 124.238C536.749 123.031 539.129 121.791 541.643 120.25C549.352 115.457 543.821 99.7703 541.04 94.1394C540.637 93.3349 541.107 92.43 542.079 92.1283C543.051 91.7931 544.157 92.1954 544.559 92.9998C545.028 93.9047 555.553 115.524 543.956 122.73C541.341 124.372 538.894 125.646 536.548 126.852C529.476 130.573 524.348 133.254 520.929 142.036C519.052 146.829 518.449 155.074 519.354 163.554C520.225 171.833 522.404 178.436 524.884 180.38C525.588 180.916 525.957 180.816 526.158 180.749C526.359 180.682 527.096 180.279 527.499 177.833C527.867 175.721 527.867 172.838 527.867 169.52C527.867 156.65 527.901 137.243 549.452 130.673C550.424 130.372 551.53 130.774 551.899 131.578C552.268 132.383 551.765 133.254 550.793 133.556C531.722 139.354 531.688 156.784 531.688 169.52C531.688 176.995 531.688 182.391 527.465 183.631C526.895 183.799 526.359 183.866 525.823 183.866Z" fill="#FF8126" fill-opacity="0.08"/>
<path d="M551.397 174.782C549.184 174.782 547.81 173.777 547.106 173.006C544.09 169.788 544.525 162.783 548.346 153.767C551.296 146.829 559.273 142.941 567.753 138.852C575.931 134.863 584.411 130.74 587.461 123.903C591.584 114.652 589.64 104.027 585.718 98.7312C584.143 96.6196 582.367 95.5135 580.825 95.7146C576.836 96.2174 575.093 107.68 575.194 115.255C575.194 116.294 574.356 117.166 573.317 117.166C573.317 117.166 573.317 117.166 573.283 117.166C572.244 117.166 571.406 116.328 571.373 115.289C571.373 115.088 571.306 109.926 572.211 104.563C573.518 96.6866 576.266 92.4299 580.322 91.8936C583.305 91.5249 586.288 93.1337 588.735 96.4185C593.427 102.753 595.673 114.719 590.914 125.411C587.294 133.556 578.177 137.98 569.395 142.237C561.586 146.024 554.212 149.611 551.832 155.242C548.346 163.453 548.313 168.783 549.855 170.392C550.525 171.095 551.698 171.163 553.374 170.559C555.419 169.822 556.324 167.509 557.698 163.789C559.642 158.459 562.29 151.186 572.043 148.605C573.049 148.337 574.088 148.94 574.356 149.946C574.624 150.951 574.021 151.991 573.015 152.259C565.172 154.337 563.195 159.767 561.284 165.062C559.843 169.017 558.502 172.738 554.681 174.112C553.408 174.581 552.335 174.782 551.397 174.782Z" fill="#FF8126" fill-opacity="0.08"/>
<path d="M581.261 178.503C580.087 178.503 579.015 178.302 578.043 177.866C576.199 177.062 573.283 174.715 574.389 168.18C575.227 163.286 579.752 157.353 585.45 149.812C595.304 136.841 607.572 120.719 605.728 103.223C603.483 82.006 589.908 60.4542 579.115 54.354C577.238 53.2815 574.557 52.2424 572.479 53.2145C571.507 53.6837 570.904 54.4211 570.568 55.5607C568.557 62.4318 577.44 78.5202 581.026 84.1511C581.596 85.0226 581.328 86.1957 580.456 86.7655C579.585 87.3353 578.412 87.0671 577.842 86.1957C576.434 83.9835 564.1 64.2417 566.949 54.5216C567.585 52.343 568.96 50.7006 570.904 49.7957C572.881 48.8907 576.199 48.3544 581.026 51.0693C586.959 54.4211 593.427 61.6944 598.824 71.0122C604.656 81.101 608.443 92.3964 609.549 102.854C611.56 121.858 598.254 139.354 588.5 152.158C583.305 158.962 578.814 164.861 578.143 168.85C577.775 170.928 577.741 173.609 579.618 174.414C582.534 175.687 590.31 172.738 597.349 163.822C607.739 150.65 617.526 138.248 620.61 111.233C620.744 110.194 621.683 109.457 622.722 109.557C623.761 109.691 624.498 110.63 624.398 111.669C621.213 139.757 611.091 152.594 600.366 166.135C594.265 173.81 586.824 178.503 581.261 178.503Z" fill="#FF8126" fill-opacity="0.08"/>
<path d="M560.262 132.414C560.496 130.971 559.516 129.611 558.073 129.376C556.629 129.142 555.269 130.123 555.035 131.566C554.8 133.01 555.781 134.37 557.224 134.604C558.668 134.838 560.028 133.858 560.262 132.414Z" fill="#FF8126" fill-opacity="0.08"/>
<path d="M567.083 127.322C567.083 128.294 566.278 129.098 565.306 129.098C564.334 129.098 563.53 128.294 563.53 127.322C563.53 126.35 564.334 125.545 565.306 125.545C566.312 125.579 567.083 126.35 567.083 127.322Z" fill="#FF8126" fill-opacity="0.08"/>
<path d="M571.339 121.557C571.339 122.126 570.904 122.562 570.334 122.562C569.764 122.562 569.328 122.126 569.328 121.557C569.328 120.987 569.764 120.551 570.334 120.551C570.904 120.551 571.339 120.987 571.339 121.557Z" fill="#FF8126" fill-opacity="0.08"/>
<path d="M624.611 105.874C625.566 104.919 625.566 103.37 624.611 102.414C623.655 101.459 622.106 101.459 621.15 102.414C620.195 103.37 620.195 104.919 621.15 105.874C622.106 106.83 623.655 106.83 624.611 105.874Z" fill="#FF8126" fill-opacity="0.08"/>
<path d="M624.867 97.3572C624.867 98.3963 624.029 99.2342 622.99 99.2342C621.951 99.2342 621.113 98.3963 621.113 97.3572C621.113 96.3182 621.951 95.4802 622.99 95.4802C624.029 95.4802 624.867 96.3182 624.867 97.3572Z" fill="#FF8126" fill-opacity="0.08"/>
<path d="M622.42 93.1001C623.124 93.1001 623.694 92.5298 623.694 91.8264C623.694 91.123 623.124 90.5527 622.42 90.5527C621.717 90.5527 621.146 91.123 621.146 91.8264C621.146 92.5298 621.717 93.1001 622.42 93.1001Z" fill="#FF8126" fill-opacity="0.08"/>
<path d="M630.029 141.198C635.961 123.266 638.24 105.904 636.699 90.9217C635.358 77.9839 631.403 69.4705 628.185 65.8171C626.509 63.9066 624.867 63.1022 623.325 63.4038C621.85 63.7055 620.107 64.8115 620.074 68.599C620.04 70.543 620.476 72.9228 620.878 75.202C621.213 77.0119 621.716 79.9615 621.515 81.034C621.247 81.0005 620.878 80.7994 620.174 79.995C619.035 78.6207 617.627 76.1405 615.683 72.7217C614.611 70.8112 613.37 68.6661 611.896 66.1522C603.751 52.4436 589.037 45.606 588.433 45.3044C587.461 44.8686 586.355 45.2708 585.92 46.2428C585.484 47.1813 585.886 48.3209 586.858 48.7567C586.992 48.8237 601.136 55.4266 608.644 68.0963C610.119 70.543 611.326 72.6882 612.398 74.5986C614.443 78.185 615.918 80.7994 617.292 82.4082C617.962 83.2126 619.973 85.5924 623.09 84.5534C624.666 84.0171 625.437 82.4753 625.37 79.9614C625.336 78.3861 625.001 76.5091 624.632 74.5316C624.264 72.4535 623.526 68.2638 624.062 67.2248C624.565 67.4929 625.772 68.4985 627.28 71.1464C633.682 82.3747 637.302 107.144 626.442 140.025C626.107 141.03 626.643 142.103 627.649 142.438C627.85 142.505 628.051 142.539 628.252 142.539C629.023 142.505 629.76 141.969 630.029 141.198Z" fill="#FF8126" fill-opacity="0.08"/>
<path d="M626.074 149.946C627.61 149.946 628.855 148.701 628.855 147.164C628.855 145.628 627.61 144.382 626.074 144.382C624.537 144.382 623.292 145.628 623.292 147.164C623.292 148.701 624.537 149.946 626.074 149.946Z" fill="#FF8126" fill-opacity="0.08"/>
<path d="M624.599 152.694C624.599 153.566 623.895 154.236 623.057 154.236C622.219 154.236 621.515 153.532 621.515 152.694C621.515 151.823 622.219 151.153 623.057 151.153C623.895 151.153 624.599 151.823 624.599 152.694Z" fill="#FF8126" fill-opacity="0.08"/>
<path d="M621.482 156.448C621.482 157.052 621.012 157.521 620.409 157.521C619.806 157.521 619.336 157.052 619.336 156.448C619.336 155.845 619.806 155.376 620.409 155.376C621.012 155.376 621.482 155.845 621.482 156.448Z" fill="#FF8126" fill-opacity="0.08"/>
<path d="M168.56 140.628C167.856 140.628 167.118 140.595 166.448 140.494C158.839 139.522 152.974 133.589 152.505 126.383C151.901 117.669 156.493 112.741 160.214 108.753C162.962 105.803 164.604 103.893 164.269 101.714C163.934 99.6361 161.286 98.5301 158.236 97.2564C153.376 95.2118 146.673 92.4299 148.114 83.045C148.818 78.4196 151.399 74.9337 155.622 72.9227C161.186 70.3083 168.627 70.8781 171.61 73.1573C172.381 73.7606 172.582 74.9337 172.045 75.8052C171.509 76.6767 170.437 76.8778 169.666 76.308C167.99 75.0343 161.89 74.0958 156.929 76.442C153.778 77.9168 151.935 80.3636 151.432 83.6818C150.561 89.5809 153.845 91.3908 159.409 93.7371C163.13 95.2789 166.951 96.8877 167.621 101.111C168.291 105.401 165.509 108.384 162.593 111.535C159.074 115.289 155.454 119.21 155.923 126.148C156.292 131.511 160.884 136.003 166.85 136.774C172.649 137.511 179.956 134.494 183.006 123.735C185.922 113.445 181.196 106.004 177.039 99.4686C172.917 92.9997 168.694 86.2962 175.062 79.1905C177.14 76.8442 179.654 75.8052 182.503 76.0398C191.351 76.7772 200.468 90.3518 200.87 90.9216C201.44 91.7595 201.273 92.9661 200.535 93.5695C199.764 94.2063 198.725 94.0052 198.156 93.1673C195.776 89.6144 188.335 80.2965 182.268 79.7938C180.425 79.6597 178.883 80.3301 177.509 81.8383C173.353 86.4638 175.464 90.3183 179.855 97.2229C184.246 104.127 189.709 112.741 186.29 124.841C182.905 136.539 175.297 140.628 168.56 140.628Z" fill="#FF8126" fill-opacity="0.08"/>
<path d="M207.172 107.178C206.803 107.178 206.434 107.178 206.066 107.144C194.167 106.239 181.933 90.687 181.397 90.0502C180.76 89.2123 180.894 88.0392 181.732 87.3688C182.57 86.732 183.743 86.8661 184.413 87.704C184.514 87.8381 196.144 102.586 206.367 103.357C209.116 103.558 211.428 102.72 213.473 100.776C219.037 95.5136 217.529 89.2123 215.249 84.855C211.73 78.0174 204.96 73.392 197.15 72.4535C187.866 71.3139 175.699 68.5655 170.638 61.862C168.694 59.2812 167.956 56.3316 168.459 53.0804C168.794 50.8348 170.001 48.9913 171.945 47.6506C179.453 42.4554 196.982 46.0753 197.72 46.2093C198.759 46.4104 199.396 47.416 199.195 48.455C198.993 49.4941 197.988 50.1309 196.949 49.9298C192.323 48.9578 179.218 47.2149 174.123 50.7677C173.017 51.5386 172.414 52.4771 172.213 53.6502C171.878 55.8624 172.347 57.7729 173.688 59.5493C176.972 63.8731 185.687 67.1913 197.619 68.6325C206.669 69.7386 214.512 75.1349 218.635 83.0786C222.69 90.8882 221.752 98.1279 216.087 103.524C213.54 105.971 210.557 107.178 207.172 107.178Z" fill="#FF8126" fill-opacity="0.08"/>
<path d="M180.726 145.187C180.291 145.187 180.023 145.153 179.955 145.153C178.916 145.053 178.146 144.114 178.246 143.075C178.347 142.036 179.285 141.265 180.324 141.366C180.726 141.399 189.776 142.036 195.977 130.338C197.988 126.584 198.993 123.869 199.731 121.892C201.876 116.127 202.915 115.021 212.4 112.742C225.238 109.625 231.103 107.345 233.148 98.5302C234.187 94.1059 230.098 88.542 226.176 83.1792C222.188 77.7494 218.434 72.6212 218.769 67.5936C218.836 66.5545 219.741 65.7501 220.78 65.8171C221.819 65.8842 222.623 66.7891 222.556 67.8282C222.322 71.4816 225.841 76.2746 229.226 80.9335C233.684 87.0002 238.276 93.268 236.835 99.4017C234.22 110.597 226.176 113.311 213.272 116.429C205.06 118.406 204.926 118.775 203.25 123.233C202.479 125.311 201.407 128.16 199.295 132.148C192.893 144.248 183.508 145.187 180.726 145.187Z" fill="#FF8126" fill-opacity="0.08"/>
<path d="M183.24 162.615C181.062 162.615 178.816 162.347 176.436 161.811C170.202 160.37 165.61 157.521 165.409 157.42C164.504 156.85 164.236 155.677 164.806 154.806C165.375 153.901 166.548 153.633 167.42 154.203C167.588 154.303 184.179 164.392 195.239 154.404C199.429 150.616 201.273 145.924 203.049 141.365C206.233 133.221 209.551 124.808 225.908 123.802C233.584 123.333 239.483 125.277 243.404 129.534C249.974 136.706 248.432 147.7 248.365 148.136C248.197 149.175 247.259 149.879 246.22 149.745C245.181 149.577 244.477 148.639 244.611 147.6C244.611 147.499 245.951 137.913 240.589 132.081C237.472 128.696 232.612 127.187 226.143 127.59C212.199 128.428 209.719 134.762 206.568 142.74C204.725 147.466 202.613 152.828 197.753 157.186C193.832 160.772 188.871 162.615 183.24 162.615Z" fill="#FF8126" fill-opacity="0.08"/>
<path d="M195.709 180.045C192.189 180.045 189.776 179.039 189.642 179.006C188.67 178.604 188.234 177.498 188.636 176.526C189.039 175.554 190.145 175.118 191.117 175.52C191.586 175.721 201.842 179.71 209.887 167.509C213.104 162.649 215.216 157.823 217.059 153.566C220.311 146.092 223.16 139.623 230.131 141.466C234.053 142.472 235.494 144.919 235.997 146.796C237.472 152.125 233.483 159.298 228.891 164.057C227.517 165.465 226.947 167.04 227.349 168.247C227.617 169.018 228.254 169.554 229.126 169.688C230.969 169.99 234.153 168.683 237.606 164.124C238.242 163.286 239.416 163.119 240.253 163.755C241.091 164.392 241.259 165.565 240.622 166.403C236.801 171.532 232.377 174.079 228.489 173.442C226.21 173.073 224.4 171.565 223.696 169.453C222.824 166.873 223.729 163.856 226.109 161.409C230.533 156.851 233.181 151.019 232.31 147.801C231.941 146.46 230.902 145.589 229.126 145.12C225.606 144.215 224.031 146.963 220.478 155.074C218.668 159.264 216.389 164.459 213.004 169.588C207.909 177.297 201.842 179.475 197.686 179.944C197.016 180.011 196.346 180.045 195.709 180.045Z" fill="#FF8126" fill-opacity="0.08"/>
<path d="M245.821 159.019C246.96 157.88 246.96 156.034 245.821 154.895C244.682 153.757 242.836 153.757 241.697 154.895C240.559 156.034 240.559 157.88 241.697 159.019C242.836 160.158 244.682 160.158 245.821 159.019Z" fill="#FF8126" fill-opacity="0.08"/>
<path d="M263.448 124.54C261.302 124.54 259.09 123.97 256.778 122.797C248.365 118.607 245.65 105.971 242.801 92.631C240.991 84.1846 239.114 75.4366 235.729 68.5319C227.718 52.0748 191.083 58.2086 190.715 58.2756C189.676 58.4432 188.704 57.7728 188.502 56.7338C188.335 55.6947 189.005 54.7227 190.044 54.5216C191.653 54.2535 229.863 47.8516 239.114 66.8896C242.667 74.2299 244.611 83.1791 246.454 91.8601C249.136 104.295 251.649 116.026 258.42 119.412C261.336 120.886 264.017 121.121 266.33 120.149C271.023 118.205 273.201 111.837 273.235 111.77C273.57 110.764 274.642 110.228 275.648 110.563C276.653 110.898 277.19 111.971 276.855 112.976C276.754 113.311 274.173 121.02 267.805 123.668C266.431 124.238 264.956 124.54 263.448 124.54Z" fill="#FF8126" fill-opacity="0.08"/>
<path d="M262.509 107.379C261.504 107.379 260.666 106.574 260.599 105.569C260.599 105.401 259.861 87.7711 258.118 73.9619C257.515 69.0683 259.995 59.9851 267.336 56.0971C273.034 53.0805 283.122 52.4101 298.876 66.2529C299.68 66.9567 299.747 68.1299 299.043 68.9343C298.339 69.7387 297.166 69.8057 296.362 69.1019C285.167 59.2477 275.749 55.9295 269.112 59.4488C263.615 62.3648 261.403 69.4706 261.906 73.4927C263.649 87.4694 264.386 105.234 264.42 105.401C264.453 106.44 263.649 107.345 262.61 107.379C262.543 107.379 262.509 107.379 262.509 107.379Z" fill="#FF8126" fill-opacity="0.08"/>
<path d="M277.961 102.586C278.162 104.329 276.888 105.904 275.112 106.105C273.369 106.306 271.793 105.033 271.592 103.256C271.391 101.513 272.665 99.9381 274.441 99.737C276.218 99.5694 277.793 100.843 277.961 102.586Z" fill="#FF8126" fill-opacity="0.08"/>
<path d="M275.145 94.441C275.246 95.346 274.575 96.1504 273.704 96.2509C272.799 96.3515 271.995 95.6811 271.894 94.8097C271.793 93.9047 272.464 93.1003 273.335 92.9997C274.24 92.8992 275.045 93.5695 275.145 94.441Z" fill="#FF8126" fill-opacity="0.08"/>
<path d="M273.302 89.3131C273.335 89.7488 273.034 90.151 272.564 90.218C272.129 90.2516 271.726 89.9499 271.659 89.4807C271.626 89.0449 271.928 88.6427 272.397 88.5757C272.832 88.5086 273.235 88.8438 273.302 89.3131Z" fill="#FF8126" fill-opacity="0.08"/>
<path d="M292.842 123.4C291.803 123.4 290.932 122.562 290.932 121.49C290.932 120.451 291.77 119.579 292.842 119.579C292.876 119.579 298.071 119.512 300.853 116.462C302.261 114.92 302.831 112.842 302.596 110.161C302.294 106.608 298.842 96.9885 293.814 87.7042C287.413 75.8725 282.351 71.5822 279.737 71.4817C277.927 71.4147 276.553 71.9174 275.514 72.99C273.201 75.4368 273.067 80.3638 273.201 82.0732C273.302 83.1123 272.531 84.0508 271.458 84.1178C270.419 84.2184 269.481 83.4474 269.414 82.3749C269.38 82.0397 268.777 74.5318 272.765 70.3421C274.575 68.4316 276.955 67.5266 279.871 67.6272C286.139 67.8618 292.742 77.6489 297.166 85.8272C302.026 94.8099 305.981 105.066 306.383 109.759C306.719 113.513 305.78 116.63 303.635 118.976C299.714 123.333 293.144 123.4 292.842 123.4Z" fill="#FF8126" fill-opacity="0.08"/>
<path d="M262.811 177.933C261.101 177.933 259.526 177.296 258.219 176.056C253.627 171.632 253.024 159.733 256.811 147.767C260.632 135.667 266.833 131.679 273.972 127.053C276.251 125.579 278.631 124.037 281.145 122.126C288.887 116.227 283.323 96.9883 280.541 90.0837C280.139 89.1116 280.609 88.0056 281.581 87.6034C282.553 87.2011 283.659 87.6704 284.061 88.6424C284.53 89.782 295.055 116.294 283.458 125.143C280.843 127.154 278.396 128.696 276.05 130.238C268.978 134.796 263.85 138.114 260.431 148.907C256.845 160.269 257.85 170.425 260.833 173.308C261.403 173.877 262.409 174.514 264.252 173.844C266.397 173.073 267.202 168.682 268.107 163.588C269.983 153.365 272.531 139.354 289.088 134.897C290.094 134.628 291.133 135.232 291.401 136.237C291.669 137.243 291.066 138.282 290.06 138.55C275.816 142.371 273.603 154.504 271.86 164.224C270.721 170.459 269.749 175.821 265.559 177.363C264.654 177.765 263.716 177.933 262.811 177.933Z" fill="#FF8126" fill-opacity="0.08"/>
<path d="M290.932 177.229C288.72 177.229 287.346 176.224 286.642 175.453C283.625 172.235 284.061 165.23 287.882 156.214C290.831 149.276 298.809 145.388 307.288 141.298C315.467 137.31 323.947 133.187 326.997 126.35C331.119 117.099 329.175 106.474 325.254 101.178C323.679 99.0663 321.902 97.9603 320.36 98.1614C316.372 98.6641 314.629 110.127 314.729 117.702C314.729 118.741 313.891 119.613 312.852 119.613C312.852 119.613 312.852 119.613 312.819 119.613C311.78 119.613 310.942 118.775 310.908 117.736C310.908 117.534 310.841 112.373 311.746 107.01C313.053 99.1334 315.802 94.8767 319.858 94.3404C322.841 93.9717 325.824 95.5805 328.27 98.8652C332.963 105.2 335.209 117.166 330.449 127.858C326.829 136.003 317.712 140.427 308.931 144.684C301.121 148.471 293.747 152.058 291.368 157.688C287.882 165.9 287.848 171.23 289.39 172.838C290.06 173.542 291.234 173.609 292.909 173.006C294.954 172.269 295.859 169.956 297.233 166.235C299.177 160.906 301.825 153.633 311.579 151.052C312.584 150.784 313.623 151.387 313.891 152.393C314.16 153.398 313.556 154.437 312.551 154.705C304.708 156.784 302.73 162.213 300.82 167.509C299.378 171.464 298.038 175.185 294.217 176.559C292.909 177.062 291.837 177.229 290.932 177.229Z" fill="#FF8126" fill-opacity="0.08"/>
<path d="M320.763 180.95C319.589 180.95 318.517 180.749 317.545 180.313C315.701 179.508 312.785 177.162 313.891 170.626C314.729 165.733 319.254 159.8 324.952 152.259C334.806 139.287 347.107 123.166 345.23 105.669C342.985 84.4528 329.41 62.901 318.617 56.8008C316.74 55.7283 314.059 54.6892 311.981 55.6612C311.009 56.1305 310.406 56.8679 310.07 58.0075C308.059 64.8785 316.942 80.967 320.528 86.5979C321.098 87.4694 320.83 88.6425 319.958 89.2123C319.087 89.7821 317.914 89.5139 317.344 88.6425C315.936 86.4303 303.602 66.6885 306.451 56.9684C307.087 54.7898 308.462 53.1474 310.406 52.2424C312.383 51.3375 315.701 50.8012 320.528 53.5161C326.46 56.8679 332.929 64.1412 338.326 73.459C344.158 83.5478 347.945 94.8432 349.051 105.301C351.062 124.305 337.756 141.801 328.002 154.605C322.807 161.409 318.316 167.308 317.645 171.297C317.277 173.375 317.243 176.056 319.12 176.861C322.036 178.134 329.812 175.185 336.851 166.269C347.241 153.097 357.028 140.695 360.112 113.68C360.246 112.641 361.185 111.87 362.224 112.004C363.263 112.138 364 113.077 363.9 114.116C360.715 142.203 350.593 155.041 339.868 168.582C333.767 176.257 326.326 180.95 320.763 180.95Z" fill="#FF8126" fill-opacity="0.08"/>
<path d="M298.813 136.511C299.956 135.598 300.143 133.932 299.23 132.789C298.318 131.646 296.652 131.459 295.509 132.371C294.366 133.284 294.179 134.95 295.091 136.093C296.004 137.236 297.67 137.423 298.813 136.511Z" fill="#FF8126" fill-opacity="0.08"/>
<path d="M306.618 129.802C306.618 130.774 305.814 131.578 304.842 131.578C303.87 131.578 303.065 130.774 303.065 129.802C303.065 128.83 303.87 128.026 304.842 128.026C305.814 128.026 306.618 128.797 306.618 129.802Z" fill="#FF8126" fill-opacity="0.08"/>
<path d="M310.875 124.004C310.875 124.573 310.439 125.009 309.869 125.009C309.3 125.009 308.864 124.573 308.864 124.004C308.864 123.434 309.3 122.998 309.869 122.998C310.406 122.998 310.875 123.467 310.875 124.004Z" fill="#FF8126" fill-opacity="0.08"/>
<path d="M363.377 108.863C364.625 108.346 365.218 106.914 364.701 105.666C364.184 104.417 362.753 103.825 361.504 104.342C360.256 104.859 359.663 106.29 360.18 107.539C360.697 108.787 362.128 109.38 363.377 108.863Z" fill="#FF8126" fill-opacity="0.08"/>
<path d="M362.525 101.681C363.562 101.681 364.402 100.84 364.402 99.8038C364.402 98.7671 363.562 97.9268 362.525 97.9268C361.489 97.9268 360.648 98.7671 360.648 99.8038C360.648 100.84 361.489 101.681 362.525 101.681Z" fill="#FF8126" fill-opacity="0.08"/>
<path d="M363.196 94.2737C363.196 94.9775 362.626 95.5473 361.922 95.5473C361.218 95.5473 360.648 94.9775 360.648 94.2737C360.648 93.5698 361.218 93 361.922 93C362.626 93 363.196 93.5698 363.196 94.2737Z" fill="#FF8126" fill-opacity="0.08"/>
<path d="M369.53 143.645C375.463 125.713 377.742 108.351 376.2 93.3685C374.86 80.4308 370.905 71.9173 367.687 68.2639C366.011 66.3534 364.369 65.549 362.827 65.8507C361.352 66.1523 359.609 67.2584 359.576 71.0459C359.542 72.9899 359.978 75.3696 360.38 77.6488C360.715 79.4588 361.218 82.4083 361.017 83.4809C360.749 83.4474 360.38 83.2463 359.676 82.4418C358.537 81.0676 357.129 78.5873 355.185 75.1685C354.112 73.258 352.872 71.1129 351.398 68.5991C343.253 54.8904 328.539 48.0529 327.935 47.7512C326.997 47.3155 325.857 47.7512 325.421 48.6897C324.986 49.6282 325.388 50.7678 326.36 51.2035C326.494 51.2706 340.605 57.84 348.146 70.5431C349.621 72.9899 350.828 75.135 351.9 77.0455C353.945 80.6319 355.42 83.2463 356.794 84.8551C357.464 85.6595 359.475 88.0393 362.592 87.0002C364.168 86.4639 364.939 84.9221 364.872 82.4083C364.838 80.833 364.503 78.956 364.134 76.9785C363.765 74.9004 363.028 70.7107 363.564 69.6717C364.067 69.9398 365.274 70.9453 366.782 73.5932C373.184 84.8216 376.804 109.591 365.944 142.472C365.609 143.477 366.145 144.55 367.151 144.885C367.352 144.952 367.553 144.986 367.754 144.986C368.525 144.952 369.262 144.449 369.53 143.645Z" fill="#FF8126" fill-opacity="0.08"/>
<path d="M365.609 152.393C367.145 152.393 368.391 151.147 368.391 149.611C368.391 148.074 367.145 146.829 365.609 146.829C364.072 146.829 362.827 148.074 362.827 149.611C362.827 151.147 364.072 152.393 365.609 152.393Z" fill="#FF8126" fill-opacity="0.08"/>
<path d="M364.134 155.141C364.134 156.013 363.43 156.683 362.592 156.683C361.721 156.683 361.051 155.979 361.051 155.141C361.051 154.303 361.754 153.599 362.592 153.599C363.43 153.599 364.134 154.303 364.134 155.141Z" fill="#FF8126" fill-opacity="0.08"/>
<path d="M359.911 159.968C360.503 159.968 360.984 159.488 360.984 158.895C360.984 158.303 360.503 157.823 359.911 157.823C359.319 157.823 358.838 158.303 358.838 158.895C358.838 159.488 359.319 159.968 359.911 159.968Z" fill="#FF8126" fill-opacity="0.08"/>
<path d="M58.6556 5.78701C57.8512 5.78701 57.0803 5.75349 56.3094 5.65293C47.8295 4.68092 41.2936 -1.25167 40.7573 -8.45793C40.0869 -17.1725 45.2151 -22.0996 49.3378 -26.0881C52.3879 -29.0377 54.2313 -30.9482 53.8626 -33.1268C53.4939 -35.2049 50.5444 -36.311 47.1256 -37.5847C41.6958 -39.6292 34.2549 -42.4112 35.8302 -51.7961C36.6011 -56.4215 39.5171 -59.9073 44.2096 -61.9184C50.4103 -64.5327 58.7227 -63.9629 62.0409 -61.6837C62.9124 -61.0804 63.1135 -59.9073 62.5437 -59.0359C61.9403 -58.1644 60.7672 -57.9633 59.8958 -58.5331C58.0188 -59.8068 51.2147 -60.7453 45.6844 -58.399C42.165 -56.9243 40.1205 -54.4775 39.5507 -51.1592C38.5451 -45.2602 42.2656 -43.4502 48.4328 -41.104C52.589 -39.5622 56.8792 -37.9533 57.5831 -33.7301C58.3205 -29.4399 55.2368 -26.4568 51.9521 -23.3062C48.0306 -19.5522 44.0085 -15.6307 44.5112 -8.69256C44.9135 -3.32976 50.0416 1.16159 56.7116 1.9325C63.1805 2.66988 71.3252 -0.346699 74.7105 -11.1058C77.9617 -21.3957 72.6995 -28.8366 68.074 -35.3725C63.4821 -41.8414 58.7562 -48.5449 65.8619 -55.6506C68.1746 -57.9968 70.9901 -59.0359 74.1407 -58.8012C83.9949 -58.0639 94.1842 -44.4893 94.6199 -43.9195C95.2567 -43.0815 95.0556 -41.8749 94.2177 -41.2716C93.3798 -40.6347 92.1731 -40.8359 91.5698 -41.6738C88.9219 -45.2266 80.6096 -54.5445 73.8726 -55.0473C71.828 -55.1813 70.0851 -54.511 68.5433 -53.0027C63.9179 -48.3773 66.2641 -44.5228 71.1577 -37.6182C76.0512 -30.7136 82.1514 -22.0996 78.3304 -9.99974C74.6435 1.69788 66.13 5.78701 58.6556 5.78701Z" fill="#FF8126" fill-opacity="0.08"/>
<path d="M72.5654 9.6751C72.1297 9.6751 71.8615 9.64159 71.7945 9.64159C70.7554 9.54105 69.9845 8.60255 70.0851 7.56351C70.1857 6.52446 71.1241 5.75356 72.1632 5.85411C72.5654 5.88763 81.6151 6.52447 87.8159 -5.17314C89.8269 -8.9271 90.8324 -11.642 91.5698 -13.6196C93.7149 -19.3846 94.754 -20.4906 104.239 -22.7698C117.077 -25.887 122.942 -28.1661 124.987 -36.9813C126.026 -41.4056 121.937 -46.9695 118.015 -52.3323C114.027 -57.7621 110.273 -62.8903 110.608 -67.9179C110.675 -68.957 111.58 -69.7614 112.619 -69.6943C113.658 -69.6273 114.462 -68.7223 114.395 -67.6833C114.161 -64.0299 117.68 -59.2369 121.065 -54.5779C125.523 -48.5113 130.115 -42.2435 128.674 -36.1098C126.059 -24.915 118.015 -22.2 105.111 -19.0829C96.8991 -17.1054 96.765 -16.7367 95.0892 -12.2789C94.3183 -10.2008 93.2457 -7.35178 91.1341 -3.3632C84.7322 8.73662 75.3473 9.6751 72.5654 9.6751Z" fill="#FF8126" fill-opacity="0.08"/>
<path d="M32.2774 4.2452C31.6405 4.2452 31.0037 3.91002 30.635 3.3067C21.9875 -11.1058 28.9926 -18.7143 33.2158 -23.2727C34.3219 -24.4458 35.428 -25.6859 35.6291 -26.4233C35.8972 -27.4623 35.7632 -27.764 33.1823 -29.3393C31.2383 -30.5124 28.8251 -31.9872 26.9816 -34.8697C22.7919 -41.3051 26.6799 -49.9526 26.8475 -50.3213C27.2832 -51.2598 28.4228 -51.6955 29.3613 -51.2598C30.2998 -50.824 30.7356 -49.6845 30.2998 -48.746C30.2663 -48.6454 27.1492 -41.6403 30.1658 -36.9478C31.54 -34.8027 33.484 -33.6296 35.1599 -32.5905C37.4726 -31.1828 40.3886 -29.4064 39.2825 -25.4513C38.8468 -23.8425 37.5396 -22.4012 35.9978 -20.7253C31.8751 -16.234 26.7135 -10.6366 33.8862 1.32917C34.4225 2.23415 34.1208 3.40726 33.2494 3.94354C32.9477 4.14465 32.6125 4.2452 32.2774 4.2452Z" fill="#FF8126" fill-opacity="0.08"/>
<path d="M37.8413 10.5465C39.4332 10.5465 40.7238 9.25596 40.7238 7.66399C40.7238 6.07203 39.4332 4.78149 37.8413 4.78149C36.2493 4.78149 34.9588 6.07203 34.9588 7.66399C34.9588 9.25596 36.2493 10.5465 37.8413 10.5465Z" fill="#FF8126" fill-opacity="0.08"/>
<path d="M44.8129 13.7306C46.0161 13.7306 46.9915 12.7552 46.9915 11.5519C46.9915 10.3487 46.0161 9.37329 44.8129 9.37329C43.6097 9.37329 42.6343 10.3487 42.6343 11.5519C42.6343 12.7552 43.6097 13.7306 44.8129 13.7306Z" fill="#FF8126" fill-opacity="0.08"/>
<path d="M51.684 13.7307C51.684 14.4681 51.0807 15.1049 50.3098 15.1049C49.5724 15.1049 48.9356 14.5016 48.9356 13.7307C48.9356 12.9933 49.5389 12.3564 50.3098 12.3564C51.0807 12.3564 51.684 12.9933 51.684 13.7307Z" fill="#FF8126" fill-opacity="0.08"/>
<path d="M75.0792 27.1042C72.9006 27.1042 70.6549 26.8361 68.2752 26.2998C62.0409 24.8585 57.449 22.0096 57.2479 21.909C56.3429 21.3392 56.0748 20.1661 56.6446 19.2946C57.2144 18.3897 58.3875 18.1215 59.259 18.6913C59.4601 18.8254 76.0512 28.8806 87.0785 18.8924C91.2682 15.1049 93.1116 10.4125 94.8881 5.85411C98.0722 -2.29064 101.39 -10.7035 117.747 -11.7091C125.423 -12.1783 131.322 -10.2343 135.243 -5.97757C141.813 1.19518 140.271 12.1889 140.204 12.6247C140.036 13.6637 139.098 14.3676 138.059 14.2335C137.02 14.0659 136.316 13.1274 136.45 12.0884C136.45 11.9878 137.79 2.40181 132.428 -3.43023C129.311 -6.8155 124.451 -8.3238 117.982 -7.92159C104.038 -7.08365 101.558 -0.748836 98.4074 7.22833C96.5639 11.9543 94.4523 17.3171 89.5923 21.6744C85.6707 25.2943 80.7437 27.1042 75.0792 27.1042Z" fill="#FF8126" fill-opacity="0.08"/>
<path d="M87.5477 44.5332C84.0284 44.5332 81.6151 43.5277 81.4811 43.4941C80.509 43.0919 80.0733 41.9858 80.4755 41.0138C80.8777 40.0418 81.9838 39.6061 82.9558 40.0083C83.4251 40.2094 93.6814 44.198 101.726 31.9976C104.943 27.1376 107.055 22.3111 108.898 18.0879C112.15 10.6135 114.999 4.14459 121.97 5.98805C125.892 6.99357 127.333 9.44036 127.836 11.3173C129.311 16.6466 125.322 23.8194 120.73 28.5789C119.356 29.9866 118.786 31.5619 119.188 32.7685C119.456 33.5394 120.093 34.0757 120.965 34.2098C122.808 34.5114 125.992 33.2043 129.445 28.6459C130.081 27.8079 131.255 27.6404 132.093 28.2772C132.93 28.914 133.098 30.0871 132.461 30.9251C128.64 36.0533 124.216 38.6006 120.328 37.9638C118.049 37.5951 116.239 36.0868 115.535 33.9752C114.663 31.3943 115.568 28.3777 117.948 25.931C122.372 21.3726 125.02 15.5405 124.149 12.3229C123.78 10.9822 122.741 10.1107 120.965 9.64147C117.445 8.73649 115.87 11.4849 112.317 19.5962C110.507 23.7858 108.228 28.9811 104.843 34.1092C99.7481 41.8183 93.6814 43.9969 89.5253 44.4661C88.8549 44.4997 88.1846 44.5332 87.5477 44.5332Z" fill="#FF8126" fill-opacity="0.08"/>
<path d="M137.877 23.3006C138.89 22.0481 138.695 20.2121 137.443 19.1998C136.19 18.1874 134.354 18.3821 133.342 19.6345C132.329 20.887 132.524 22.723 133.777 23.7354C135.029 24.7477 136.865 24.5531 137.877 23.3006Z" fill="#FF8126" fill-opacity="0.08"/>
<path d="M34.9252 31.3609C34.5901 31.3609 34.2214 31.2604 33.9197 31.0593C4.29024 12.39 11.5635 -5.10611 16.3901 -16.6697C17.1274 -18.4796 17.8313 -20.1555 18.3341 -21.6638C19.6413 -25.7194 18.267 -29.1046 16.5241 -33.3949C14.0103 -39.4951 10.9267 -47.1035 16.0214 -58.9352C24.5348 -78.7776 58.9908 -80.9227 60.4656 -80.9897C61.5046 -81.0568 62.4096 -80.2524 62.4766 -79.2133C62.5437 -78.1743 61.7392 -77.2693 60.7002 -77.2023C60.365 -77.1688 27.1157 -75.1242 19.4737 -57.3934C15.0158 -47.07 17.5632 -40.8358 20.0099 -34.8026C21.8869 -30.2107 23.6634 -25.887 21.954 -20.4906C21.4177 -18.8483 20.6803 -17.0719 19.9094 -15.1949C17.5632 -9.53042 14.8818 -3.09505 16.0549 4.07769C17.4291 12.5241 23.9315 20.3337 35.9643 27.8751C36.8357 28.4449 37.1039 29.618 36.5676 30.4895C36.1989 31.0593 35.5621 31.3609 34.9252 31.3609Z" fill="#FF8126" fill-opacity="0.08"/>
<path d="M48.5774 36.1723C49.808 34.7649 49.6646 32.6263 48.2572 31.3957C46.8497 30.1651 44.7112 30.3085 43.4806 31.716C42.25 33.1234 42.3934 35.262 43.8008 36.4926C45.2083 37.7232 47.3468 37.5798 48.5774 36.1723Z" fill="#FF8126" fill-opacity="0.08"/>
<path d="M57.2479 37.5951C57.2479 38.8018 56.2759 39.7738 55.0693 39.7738C53.8626 39.7738 52.8906 38.8018 52.8906 37.5951C52.8906 36.3885 53.8626 35.4165 55.0693 35.4165C56.2759 35.45 57.2479 36.422 57.2479 37.5951Z" fill="#FF8126" fill-opacity="0.08"/>
<path d="M64.3201 40.1091C64.3201 40.9471 63.6497 41.6174 62.8118 41.6174C61.9739 41.6174 61.3035 40.9471 61.3035 40.1091C61.3035 39.2712 61.9739 38.6008 62.8118 38.6008C63.6162 38.6008 64.3201 39.2712 64.3201 40.1091Z" fill="#FF8126" fill-opacity="0.08"/>
<path d="M68.2752 42.6564C68.5528 42.6564 68.7779 42.4313 68.7779 42.1536C68.7779 41.876 68.5528 41.6509 68.2752 41.6509C67.9975 41.6509 67.7724 41.876 67.7724 42.1536C67.7724 42.4313 67.9975 42.6564 68.2752 42.6564Z" fill="#FF8126" fill-opacity="0.08"/>
<path d="M157.164 64.778C155.89 64.778 154.683 64.2417 153.577 63.2026C148.952 58.7783 147.376 45.6059 146.907 40.1426C145.969 29.2829 146.639 18.5908 148.65 12.256C152.471 0.156219 158.672 -3.83236 165.811 -8.45778C168.09 -9.93255 170.47 -11.4744 172.984 -13.3849C180.693 -19.2504 175.162 -38.523 172.381 -45.4276C171.978 -46.3996 172.448 -47.5057 173.42 -47.9079C174.392 -48.3101 175.498 -47.8408 175.9 -46.8688C176.369 -45.7292 186.894 -19.2169 175.297 -10.3683C172.682 -8.35723 170.235 -6.81542 167.889 -5.27362C160.817 -0.715237 155.689 2.60299 152.27 13.3956C150.393 19.2947 149.79 29.417 150.695 39.8074C151.566 49.9632 153.745 58.0744 156.225 60.4542C156.929 61.1245 157.298 60.9905 157.499 60.8899C157.7 60.8229 158.437 60.3201 158.839 57.3371C159.208 54.7227 159.208 51.2034 159.208 47.1477C159.208 31.361 159.242 7.49654 180.793 -0.547653C181.765 -0.916348 182.872 -0.413578 183.24 0.55843C183.609 1.53044 183.106 2.63651 182.134 3.0052C163.063 10.1444 163.029 31.5286 163.029 47.1477C163.029 56.3315 163.029 62.9345 158.806 64.4763C158.27 64.6774 157.733 64.778 157.164 64.778Z" fill="#FF8126" fill-opacity="0.08"/>
<path d="M182.771 41.7177C180.559 41.7177 179.185 40.7122 178.481 39.9413C175.464 36.7236 175.9 29.7184 179.721 20.7022C182.67 13.7641 190.648 9.87606 199.127 5.78692C207.306 1.79834 215.786 -2.32432 218.836 -9.16189C222.958 -18.4127 221.014 -29.0378 217.093 -34.3335C215.518 -36.4451 213.741 -37.5512 212.199 -37.3501C208.211 -36.8473 206.468 -25.3844 206.568 -17.8094C206.568 -16.7704 205.73 -15.8989 204.691 -15.8989C204.691 -15.8989 204.691 -15.8989 204.658 -15.8989C203.619 -15.8989 202.781 -16.7368 202.747 -17.7759C202.747 -17.977 202.68 -23.1387 203.585 -28.5015C204.892 -36.3781 207.641 -40.6348 211.697 -41.1711C214.68 -41.5398 217.663 -39.931 220.109 -36.6462C224.802 -30.3114 227.048 -18.3457 222.288 -7.6536C218.668 0.491154 209.551 4.91546 200.77 9.17218C192.96 12.9597 185.586 16.546 183.207 22.177C179.721 30.3888 179.687 35.718 181.229 37.3269C181.899 38.0308 183.073 38.0978 184.748 37.4945C186.793 36.7571 187.698 34.4444 189.072 30.7239C191.016 25.3947 193.664 18.1214 203.418 15.5405C204.423 15.2724 205.462 15.8757 205.73 16.8812C205.999 17.8867 205.395 18.9258 204.39 19.1939C196.547 21.272 194.569 26.7018 192.659 31.9976C191.217 35.9527 189.877 39.6731 186.056 41.0473C184.748 41.5501 183.676 41.7177 182.771 41.7177Z" fill="#FF8126" fill-opacity="0.08"/>
<path d="M212.602 45.4716C211.428 45.4716 210.356 45.2706 209.384 44.8348C207.54 44.0304 204.624 41.6842 205.73 35.1483C206.568 30.2547 211.093 24.3221 216.791 16.7807C226.645 3.80939 238.946 -12.3125 237.069 -29.8087C234.824 -51.0253 221.249 -72.577 210.456 -78.6772C208.579 -79.7498 205.898 -80.7888 203.82 -79.8168C202.848 -79.3476 202.245 -78.6102 201.909 -77.4706C199.898 -70.5995 208.781 -54.5111 212.367 -48.8801C212.937 -48.0087 212.669 -46.8356 211.797 -46.2658C210.926 -45.696 209.753 -45.9641 209.183 -46.8356C207.775 -49.0477 195.441 -68.7895 198.29 -78.5096C198.926 -80.6883 200.301 -82.3306 202.245 -83.2356C204.222 -84.1406 207.54 -84.6768 212.367 -81.9619C218.3 -78.6102 224.768 -71.3369 230.165 -62.019C235.997 -51.9302 239.784 -40.6348 240.89 -30.1774C242.901 -11.1729 229.595 6.3232 219.841 19.1269C214.646 25.9309 210.155 31.83 209.484 35.8186C209.116 37.8967 209.082 40.5781 210.959 41.3825C213.875 42.6562 221.651 39.7066 228.69 30.791C239.08 17.6186 248.868 5.21712 251.951 -21.798C252.085 -22.837 253.024 -23.5744 254.063 -23.4739C255.102 -23.3398 255.839 -22.4013 255.739 -21.3623C252.554 6.72541 242.432 19.5626 231.707 33.1037C225.606 40.7792 218.165 45.4716 212.602 45.4716Z" fill="#FF8126" fill-opacity="0.08"/>
<path d="M189.005 1.59727C190.468 1.59727 191.653 0.411771 191.653 -1.05061C191.653 -2.51299 190.468 -3.69849 189.005 -3.69849C187.543 -3.69849 186.357 -2.51299 186.357 -1.05061C186.357 0.411771 187.543 1.59727 189.005 1.59727Z" fill="#FF8126" fill-opacity="0.08"/>
<path d="M261.369 8.13325C267.302 -9.79861 269.581 -27.1607 268.039 -42.143C266.699 -55.0808 262.744 -63.5942 259.526 -67.2476C257.85 -69.1581 256.208 -69.9625 254.666 -69.6609C253.191 -69.3592 251.448 -68.2531 251.415 -64.4657C251.381 -62.5217 251.817 -60.1419 252.219 -57.8627C252.554 -56.0528 253.057 -53.1032 252.856 -52.0307C252.588 -52.0642 252.219 -52.2653 251.515 -53.0697C250.376 -54.4439 248.968 -56.9242 247.024 -60.343C245.951 -62.2535 244.711 -64.3986 243.237 -66.9124C235.092 -80.6211 220.378 -87.4587 219.774 -87.7603C218.836 -88.1961 217.696 -87.7939 217.26 -86.8218C216.825 -85.8834 217.227 -84.7438 218.199 -84.308C218.333 -84.241 232.477 -77.638 239.985 -64.9684C241.46 -62.5217 242.667 -60.3765 243.739 -58.466C245.784 -54.8797 247.259 -52.2653 248.633 -50.6565C249.303 -49.852 251.314 -47.4723 254.431 -48.5113C256.007 -49.0476 256.778 -50.5894 256.711 -53.1032C256.677 -54.6786 256.342 -56.5555 255.973 -58.5331C255.604 -60.6112 254.867 -64.8008 255.403 -65.8399C255.906 -65.5717 257.113 -64.5662 258.621 -61.9183C265.023 -50.69 268.643 -25.9205 257.783 6.96014C257.448 7.96566 257.984 9.03822 258.99 9.37339C259.191 9.44043 259.392 9.47395 259.593 9.47395C260.364 9.44043 261.135 8.93767 261.369 8.13325Z" fill="#FF8126" fill-opacity="0.08"/>
<path d="M260.116 14.7414C260.468 13.2459 259.54 11.7483 258.045 11.3967C256.549 11.045 255.052 11.9723 254.7 13.4678C254.348 14.9634 255.276 16.4609 256.771 16.8126C258.267 17.1643 259.764 16.237 260.116 14.7414Z" fill="#FF8126" fill-opacity="0.08"/>
<path d="M255.973 19.6633C255.973 20.5348 255.269 21.2051 254.431 21.2051C253.56 21.2051 252.89 20.5013 252.89 19.6633C252.89 18.7919 253.593 18.1215 254.431 18.1215C255.269 18.088 255.973 18.7919 255.973 19.6633Z" fill="#FF8126" fill-opacity="0.08"/>
<path d="M252.856 23.4173C252.856 24.0206 252.387 24.4898 251.784 24.4898C251.18 24.4898 250.711 24.0206 250.711 23.4173C250.711 22.814 251.18 22.3447 251.784 22.3447C252.387 22.3447 252.856 22.814 252.856 23.4173Z" fill="#FF8126" fill-opacity="0.08"/>
<path d="M253.158 41.0475C253.024 41.0475 252.89 41.0475 252.789 41.0475C249.806 40.9134 247.46 39.8074 245.784 37.6958C241.963 32.8357 243.572 24.4899 243.639 24.1547C243.84 23.1156 244.845 22.4453 245.884 22.6464C246.923 22.8475 247.594 23.853 247.393 24.8921C247.024 26.8361 246.521 32.5005 248.8 35.3495C249.739 36.5562 251.113 37.193 252.957 37.26C261.705 37.5952 273.536 17.3842 275.983 1.99962C277.793 -9.49689 276.586 -20.6917 275.38 -31.5179C274.24 -41.7072 273.201 -51.3267 275.179 -59.3374C277.458 -68.5212 283.357 -74.5208 293.747 -78.1743C308.629 -83.4365 318.416 -78.9452 323.98 -74.2527C329.98 -69.1916 332.427 -62.9573 332.527 -62.6892C332.896 -61.7172 332.427 -60.6111 331.421 -60.2424C330.449 -59.8737 329.343 -60.3429 328.974 -61.3485C328.941 -61.4155 326.729 -67.0464 321.433 -71.4708C314.428 -77.2693 305.546 -78.3418 295.021 -74.6214C285.971 -71.4372 280.843 -66.2755 278.899 -58.466C277.089 -51.0921 278.095 -41.8078 279.201 -31.9871C280.374 -21.4291 281.681 -9.46336 279.771 2.5359C277.19 18.2221 265.023 41.0475 253.158 41.0475Z" fill="#FF8126" fill-opacity="0.08"/>
<path d="M303.702 4.91565C302.898 4.91565 302.127 4.88213 301.356 4.78158C292.876 3.80957 286.34 -2.12303 285.804 -9.32929C285.133 -18.0438 290.262 -22.9709 294.384 -26.9595C297.434 -29.909 299.278 -31.8195 298.909 -33.9982C298.54 -36.0763 295.591 -37.1823 292.172 -38.456C286.742 -40.5006 279.301 -43.2825 280.877 -52.6674C281.648 -57.2928 284.564 -60.7787 289.256 -62.7897C295.457 -65.4041 303.769 -64.8343 307.087 -62.5551C307.959 -61.9518 308.16 -60.7787 307.59 -59.9072C306.987 -59.0357 305.814 -58.8346 304.942 -59.4044C303.065 -60.6781 296.261 -61.6166 290.731 -59.2704C287.211 -57.7956 285.167 -55.3488 284.597 -52.0306C283.592 -46.1315 287.312 -44.3216 293.479 -41.9753C297.635 -40.4335 301.926 -38.8247 302.63 -34.6015C303.367 -30.3113 300.283 -27.3282 296.999 -24.1775C293.077 -20.4236 289.055 -16.502 289.558 -9.56392C289.96 -4.20111 295.088 0.29023 301.758 1.06113C308.227 1.79852 316.372 -1.21806 319.757 -11.9772C323.008 -22.267 317.746 -29.7079 313.121 -36.2438C308.529 -42.7127 303.803 -49.4162 310.908 -56.5219C313.221 -58.8682 316.037 -59.9072 319.187 -59.6726C329.041 -58.9352 339.231 -45.3606 339.666 -44.7908C340.303 -43.9529 340.102 -42.7462 339.264 -42.1429C338.426 -41.5061 337.22 -41.7072 336.616 -42.5451C333.968 -46.098 325.656 -55.4159 318.919 -55.9186C316.874 -56.0862 315.132 -55.3823 313.59 -53.8741C308.964 -49.2486 311.311 -45.3941 316.204 -38.4895C321.098 -31.5849 327.198 -22.9709 323.377 -10.8711C319.723 0.792992 311.21 4.91565 303.702 4.91565Z" fill="#FF8126" fill-opacity="0.08"/>
<path d="M317.612 8.8038C317.176 8.8038 316.908 8.77029 316.841 8.77029C315.802 8.66973 315.031 7.73124 315.132 6.69219C315.232 5.65315 316.171 4.88225 317.21 4.9828C317.612 5.01632 326.662 5.65315 332.862 -6.04446C334.873 -9.79842 335.879 -12.5133 336.616 -14.4909C338.761 -20.2559 339.8 -21.362 349.286 -23.6412C362.123 -26.7583 367.989 -29.0375 370.033 -37.8526C371.072 -42.2769 366.983 -47.8408 363.062 -53.2036C359.073 -58.6334 355.319 -63.7616 355.654 -68.7892C355.721 -69.8283 356.626 -70.6327 357.665 -70.5657C358.704 -70.4986 359.509 -69.5937 359.442 -68.5546C359.207 -64.9012 362.726 -60.1082 366.112 -55.4493C370.57 -49.3826 375.161 -43.1148 373.72 -36.9811C371.106 -25.7863 363.062 -23.0714 350.157 -19.9542C341.946 -17.9767 341.812 -17.608 340.136 -13.1502C339.365 -11.0721 338.292 -8.2231 336.181 -4.23452C329.779 7.83179 320.394 8.8038 317.612 8.8038Z" fill="#FF8126" fill-opacity="0.08"/>
<path d="M320.159 26.2328C317.981 26.2328 315.735 25.9647 313.355 25.4284C307.121 23.9872 302.529 21.1382 302.328 21.0376C301.423 20.4678 301.155 19.2947 301.725 18.4233C302.294 17.5183 303.467 17.2502 304.339 17.82C304.607 17.9875 321.131 28.0093 332.158 18.0211C336.348 14.2336 338.192 9.54114 339.968 4.98276C343.152 -3.16199 346.47 -11.5749 362.827 -12.5804C370.502 -13.0496 376.402 -11.1056 380.323 -6.84891C386.893 0.323832 385.351 11.3176 385.284 11.7533C385.116 12.7923 384.178 13.4962 383.139 13.3621C382.1 13.1945 381.396 12.2561 381.53 11.217C381.53 11.1165 382.87 1.53046 377.508 -4.30158C374.391 -7.68685 369.53 -9.19513 363.062 -8.79292C349.118 -7.95498 346.638 -1.62018 343.487 6.35698C341.644 11.0829 339.532 16.4457 334.672 20.803C330.751 24.3894 325.79 26.2328 320.159 26.2328Z" fill="#FF8126" fill-opacity="0.08"/>
<path d="M332.594 43.6618C329.075 43.6618 326.662 42.6563 326.528 42.6228C325.556 42.2206 325.12 41.1145 325.522 40.1425C325.924 39.1705 327.03 38.7348 328.002 39.137C328.472 39.3381 338.728 43.3267 346.772 31.1263C349.99 26.2663 352.101 21.4397 353.945 17.2165C357.196 9.74212 360.045 3.27325 367.017 5.11671C370.938 6.12224 372.38 8.56901 372.882 10.446C374.357 15.7753 370.368 22.948 365.777 27.7075C364.402 29.1152 363.833 30.6906 364.235 31.8972C364.503 32.6681 365.14 33.2044 366.011 33.3385C367.855 33.6401 371.039 32.3329 374.491 27.7745C375.128 26.9366 376.301 26.769 377.139 27.4059C377.977 28.0427 378.145 29.2158 377.508 30.0537C373.687 35.1819 369.262 37.7292 365.374 37.0924C363.095 36.7237 361.285 35.2154 360.581 33.1038C359.71 30.523 360.615 27.5064 362.995 25.0596C367.419 20.5013 370.067 14.6692 369.195 11.4515C368.827 10.1108 367.788 9.23936 366.011 8.77012C362.492 7.86515 360.917 10.6136 357.364 18.7248C355.554 22.9145 353.275 28.1097 349.889 33.2379C344.795 40.9469 338.728 43.1256 334.572 43.5948C333.901 43.6283 333.231 43.6618 332.594 43.6618Z" fill="#FF8126" fill-opacity="0.08"/>
<path d="M382.714 22.6435C383.853 21.5047 383.853 19.6584 382.714 18.5196C381.575 17.3808 379.729 17.3809 378.59 18.5196C377.451 19.6584 377.452 21.5047 378.59 22.6435C379.729 23.7822 381.575 23.7822 382.714 22.6435Z" fill="#FF8126" fill-opacity="0.08"/>
<path d="M291.066 36.4222C292.936 36.4222 294.451 34.9065 294.451 33.0369C294.451 31.1673 292.936 29.6516 291.066 29.6516C289.196 29.6516 287.681 31.1673 287.681 33.0369C287.681 34.9065 289.196 36.4222 291.066 36.4222Z" fill="#FF8126" fill-opacity="0.08"/>
<path d="M302.294 36.7238C302.294 37.9304 301.322 38.9024 300.116 38.9024C298.909 38.9024 297.937 37.9304 297.937 36.7238C297.937 35.5172 298.909 34.5452 300.116 34.5452C301.322 34.5452 302.294 35.5172 302.294 36.7238Z" fill="#FF8126" fill-opacity="0.08"/>
<path d="M309.367 39.2378C309.367 40.0757 308.696 40.7461 307.858 40.7461C307.02 40.7461 306.35 40.0757 306.35 39.2378C306.35 38.3998 307.02 37.7295 307.858 37.7295C308.696 37.7295 309.367 38.3998 309.367 39.2378Z" fill="#FF8126" fill-opacity="0.08"/>
<path d="M313.322 41.7514C313.599 41.7514 313.824 41.5263 313.824 41.2486C313.824 40.9709 313.599 40.7458 313.322 40.7458C313.044 40.7458 312.819 40.9709 312.819 41.2486C312.819 41.5263 313.044 41.7514 313.322 41.7514Z" fill="#FF8126" fill-opacity="0.08"/>
<path d="M399.73 41.5168C398.02 41.5168 396.445 40.88 395.138 39.6398C390.546 35.2155 389.943 23.3168 393.73 11.351C397.551 -0.748798 403.752 -4.73738 410.891 -9.3628C413.17 -10.8376 415.55 -12.3794 418.064 -14.2899C425.806 -20.189 420.242 -39.428 417.46 -46.3326C417.058 -47.3046 417.527 -48.4107 418.5 -48.8129C419.472 -49.2151 420.578 -48.7459 420.98 -47.7739C421.449 -46.6343 431.973 -20.1219 420.376 -11.2733C417.762 -9.26225 415.315 -7.72044 412.969 -6.17863C405.897 -1.62025 400.769 1.69799 397.35 12.4906C393.73 23.8531 394.769 34.0089 397.752 36.8914C398.322 37.4277 399.328 38.098 401.171 37.4277C403.316 36.6567 404.121 32.266 405.026 27.1713C406.902 16.9484 409.45 2.93813 426.007 -1.5197C427.013 -1.78784 428.052 -1.18452 428.32 -0.179001C428.588 0.826527 427.985 1.86557 426.979 2.13371C412.735 5.9547 410.522 18.088 408.779 27.8081C407.64 34.0424 406.668 39.4052 402.478 40.947C401.54 41.3492 400.601 41.5168 399.73 41.5168Z" fill="#FF8126" fill-opacity="0.08"/>
<path d="M427.817 40.8463C425.605 40.8463 424.231 39.8408 423.527 39.0699C420.511 35.8522 420.946 28.8471 424.767 19.8309C427.717 12.8927 435.694 9.00471 444.174 4.91558C452.352 0.926994 460.832 -3.19566 463.882 -10.0332C468.005 -19.2841 466.061 -29.9091 462.139 -35.2049C460.564 -37.3165 458.788 -38.4225 457.246 -38.2214C453.257 -37.7187 451.514 -26.2557 451.615 -18.6807C451.615 -17.6417 450.777 -16.7702 449.738 -16.7702C449.738 -16.7702 449.738 -16.7702 449.704 -16.7702C448.665 -16.7702 447.827 -17.6082 447.794 -18.6472C447.794 -18.8483 447.727 -24.01 448.632 -29.3728C449.939 -37.2494 452.687 -41.5062 456.743 -42.0424C459.726 -42.4111 462.709 -40.8023 465.156 -37.5176C469.848 -31.1828 472.094 -19.217 467.335 -8.52494C463.715 -0.380192 454.598 4.04412 445.816 8.30085C438.007 12.0883 430.633 15.6747 428.253 21.3056C424.767 29.5174 424.734 34.8467 426.276 36.4555C426.946 37.1594 428.119 37.2264 429.795 36.6231C431.84 35.8857 432.745 33.573 434.119 29.8526C436.063 24.5233 438.711 17.25 448.464 14.6692C449.47 14.401 450.509 15.0043 450.777 16.0099C451.045 17.0154 450.442 18.0544 449.436 18.3226C441.593 20.4007 439.616 25.8305 437.705 31.1263C436.264 35.0813 434.923 38.8018 431.102 40.176C429.828 40.6787 428.756 40.8463 427.817 40.8463Z" fill="#FF8126" fill-opacity="0.08"/>
<path d="M457.648 44.5668C456.475 44.5668 455.402 44.3657 454.43 43.93C452.587 43.1256 449.671 40.7794 450.777 34.2434C451.615 29.3499 456.14 23.4173 461.838 15.8758C471.692 2.90457 483.993 -13.2173 482.116 -30.7135C479.87 -51.93 466.295 -73.4818 455.503 -79.582C453.626 -80.6546 450.944 -81.6936 448.866 -80.7216C447.894 -80.2523 447.291 -79.515 446.956 -78.3754C444.945 -71.5043 453.827 -55.4159 457.413 -49.7849C457.983 -48.9135 457.715 -47.7404 456.844 -47.1706C455.972 -46.6008 454.799 -46.8689 454.229 -47.7404C452.821 -49.9525 440.487 -69.6943 443.336 -79.4144C443.973 -81.593 445.347 -83.2354 447.291 -84.1404C449.269 -85.0453 452.587 -85.5816 457.413 -82.8667C463.346 -79.515 469.815 -72.2417 475.211 -62.9238C481.043 -52.835 484.831 -41.5396 485.937 -31.0822C487.948 -12.0777 474.641 5.41839 464.888 18.2221C459.693 25.0261 455.201 30.9252 454.531 34.9138C454.162 36.9919 454.129 39.6733 456.006 40.4777C458.922 41.7514 466.698 38.8018 473.736 29.8862C484.127 16.7138 493.914 4.31232 496.998 -22.7028C497.132 -23.7418 498.07 -24.5127 499.109 -24.3787C500.148 -24.2446 500.886 -23.3061 500.785 -22.2671C497.601 5.82061 487.479 18.6243 476.753 32.1989C470.653 39.8744 463.212 44.5668 457.648 44.5668Z" fill="#FF8126" fill-opacity="0.08"/>
<path d="M435.916 -0.08155C436.95 -1.1156 436.95 -2.79214 435.916 -3.82619C434.882 -4.86024 433.205 -4.86023 432.171 -3.82618C431.137 -2.79213 431.137 -1.11559 432.171 -0.0815428C433.205 0.952509 434.882 0.952502 435.916 -0.08155Z" fill="#FF8126" fill-opacity="0.08"/>
<path d="M506.45 7.26192C512.382 -10.6699 514.661 -28.032 513.12 -43.0143C511.779 -55.9521 507.824 -64.4656 504.606 -68.119C502.93 -70.0295 501.288 -70.8339 499.746 -70.5322C498.271 -70.2306 496.528 -69.1245 496.495 -65.337C496.461 -63.393 496.897 -61.0132 497.299 -58.7341C497.634 -56.9241 498.137 -53.9746 497.936 -52.902C497.668 -52.9355 497.299 -53.1366 496.595 -53.9411C495.456 -55.3153 494.048 -57.7956 492.104 -61.2144C491.031 -63.1248 489.791 -65.27 488.317 -67.7838C480.172 -81.4924 465.458 -88.33 464.854 -88.6317C463.916 -89.0674 462.776 -88.6652 462.34 -87.6932C461.905 -86.7547 462.307 -85.6151 463.279 -85.1794C463.413 -85.1123 477.524 -78.5429 485.065 -65.8398C486.54 -63.393 487.747 -61.2479 488.819 -59.3374C490.864 -55.751 492.339 -53.1702 493.713 -51.5278C494.383 -50.7234 496.394 -48.3436 499.511 -49.3827C501.087 -49.9189 501.858 -51.4608 501.791 -53.9746C501.757 -55.5499 501.422 -57.4269 501.053 -59.4044C500.685 -61.4825 499.947 -65.6722 500.483 -66.7112C500.986 -66.4431 502.193 -65.4376 503.701 -62.7897C510.103 -51.5613 513.723 -26.7919 502.863 6.08881C502.528 7.09433 503.064 8.16689 504.07 8.50206C504.271 8.5691 504.472 8.60262 504.673 8.60262C505.444 8.56911 506.181 8.03282 506.45 7.26192Z" fill="#FF8126" fill-opacity="0.08"/>
<path d="M502.494 16.01C504.031 16.01 505.276 14.7644 505.276 13.228C505.276 11.6916 504.031 10.446 502.494 10.446C500.958 10.446 499.712 11.6916 499.712 13.228C499.712 14.7644 500.958 16.01 502.494 16.01Z" fill="#FF8126" fill-opacity="0.08"/>
<path d="M501.02 18.7584C501.02 19.6298 500.316 20.3002 499.478 20.3002C498.606 20.3002 497.936 19.5963 497.936 18.7584C497.936 17.9204 498.64 17.2166 499.478 17.2166C500.316 17.2166 501.02 17.8869 501.02 18.7584Z" fill="#FF8126" fill-opacity="0.08"/>
<path d="M496.83 23.5851C497.422 23.5851 497.903 23.1049 497.903 22.5125C497.903 21.9201 497.422 21.4399 496.83 21.4399C496.238 21.4399 495.757 21.9201 495.757 22.5125C495.757 23.1049 496.238 23.5851 496.83 23.5851Z" fill="#FF8126" fill-opacity="0.08"/>
<path d="M55.9407 145.555C53.2593 145.555 50.6114 143.946 48.3993 140.963C43.7068 134.628 41.4612 122.663 46.2206 111.97C49.8405 103.826 58.9573 99.4014 67.7389 95.1447C75.5485 91.3572 82.9223 87.7708 85.302 82.1399C88.7879 73.9281 88.8214 68.5988 87.2796 66.99C86.6092 66.2861 85.4361 66.2191 83.7602 66.8224C81.7157 67.5598 80.8107 69.8725 79.4365 73.5929C77.4925 78.9222 74.8446 86.1955 65.091 88.7764C64.0855 89.0445 63.0464 88.4412 62.7783 87.4357C62.5102 86.4301 63.1135 85.3911 64.119 85.123C71.9621 83.0449 73.9396 77.615 75.8501 72.3193C77.2914 68.3642 78.6321 64.6438 82.4531 63.2696C86.6763 61.7613 88.989 63.3366 89.9945 64.4092C93.0111 67.6268 92.5753 74.632 88.7543 83.6482C85.8048 90.5863 77.8276 94.4743 69.3477 98.5635C61.1694 102.552 52.6895 106.675 49.6394 113.512C45.5168 122.763 47.4608 133.388 51.3823 138.684C52.9577 140.796 54.7341 141.902 56.2759 141.7C60.298 141.198 62.0074 129.735 61.9068 122.16C61.9068 121.121 62.7448 120.249 63.7838 120.249C63.7838 120.249 63.7838 120.249 63.8173 120.249C64.8564 120.249 65.6943 121.087 65.7278 122.126C65.7278 122.327 65.7949 127.489 64.8899 132.852C63.5827 140.728 60.8343 144.985 56.7787 145.521C56.5105 145.555 56.2424 145.555 55.9407 145.555Z" fill="#FF8126" fill-opacity="0.08"/>
<path d="M62.8453 188.391C61.0689 188.391 58.8568 187.888 56.1753 186.38C50.2427 183.028 43.7739 175.755 38.3775 166.437C32.5455 156.348 28.758 145.052 27.6519 134.595C25.6409 115.591 38.9473 98.0945 48.7009 85.2908C53.8962 78.4868 58.3875 72.5877 59.0579 68.5991C59.4265 66.521 59.4601 63.8396 57.5831 63.0352C54.6671 61.728 46.891 64.7111 39.8523 73.6267C29.4619 86.7991 19.6748 99.2006 16.5912 126.216C16.4571 127.255 15.5186 128.026 14.4796 127.892C13.4405 127.757 12.7031 126.819 12.8037 125.78C16.0214 97.6923 26.1437 84.8551 36.8693 71.2805C44.2096 61.9961 53.561 57.0691 59.1249 59.5494C60.9684 60.3538 63.8844 62.7 62.7783 69.2359C61.9404 74.1295 57.4155 80.0621 51.7175 87.6035C41.8634 100.575 29.5624 116.697 31.4394 134.193C33.6851 155.409 47.2597 176.961 58.0523 183.061C59.9293 184.134 62.6107 185.173 64.6888 184.201C65.6608 183.732 66.2641 182.994 66.5993 181.855C68.6103 174.984 59.7282 158.895 56.1418 153.264C55.572 152.393 55.8402 151.22 56.7116 150.65C57.5831 150.08 58.7562 150.348 59.326 151.22C60.7337 153.432 73.0682 173.174 70.2192 182.894C69.5824 185.072 68.2081 186.715 66.2641 187.62C65.4262 188.055 64.2866 188.391 62.8453 188.391Z" fill="#FF8126" fill-opacity="0.08"/>
<path d="M79.5371 108.083C80.9994 108.083 82.1849 106.897 82.1849 105.435C82.1849 103.972 80.9994 102.787 79.5371 102.787C78.0747 102.787 76.8892 103.972 76.8892 105.435C76.8892 106.897 78.0747 108.083 79.5371 108.083Z" fill="#FF8126" fill-opacity="0.08"/>
<path d="M70.0851 110.094C70.0851 109.122 70.8895 108.317 71.8615 108.317C72.8335 108.317 73.638 109.122 73.638 110.094C73.638 111.066 72.8335 111.87 71.8615 111.87C70.856 111.87 70.0851 111.066 70.0851 110.094Z" fill="#FF8126" fill-opacity="0.08"/>
<path d="M65.8284 115.892C65.8284 115.322 66.2641 114.886 66.8339 114.886C67.4037 114.886 67.8394 115.322 67.8394 115.892C67.8394 116.462 67.4037 116.898 66.8339 116.898C66.2641 116.864 65.8284 116.428 65.8284 115.892Z" fill="#FF8126" fill-opacity="0.08"/>
<path d="M16.6335 133.85C16.9441 132.535 16.1297 131.217 14.8146 130.906C13.4995 130.596 12.1816 131.41 11.8711 132.725C11.5606 134.04 12.3749 135.358 13.69 135.669C15.0051 135.979 16.323 135.165 16.6335 133.85Z" fill="#FF8126" fill-opacity="0.08"/>
<path d="M12.3009 140.092C12.3009 139.053 13.1389 138.215 14.1779 138.215C15.2169 138.215 16.0549 139.053 16.0549 140.092C16.0549 141.131 15.2169 141.969 14.1779 141.969C13.1389 141.969 12.3009 141.131 12.3009 140.092Z" fill="#FF8126" fill-opacity="0.08"/>
<path d="M14.7477 146.862C15.4511 146.862 16.0214 146.292 16.0214 145.589C16.0214 144.885 15.4511 144.315 14.7477 144.315C14.0443 144.315 13.474 144.885 13.474 145.589C13.474 146.292 14.0443 146.862 14.7477 146.862Z" fill="#FF8126" fill-opacity="0.08"/>
<path d="M51.2818 191.172C51.7175 190.234 51.3153 189.094 50.3433 188.659C50.2092 188.592 36.0648 181.989 28.5569 169.319C27.0821 166.872 25.8755 164.727 24.803 162.817C22.7584 159.23 21.2836 156.649 19.9094 155.007C19.2391 154.203 17.228 151.823 14.1109 152.862C12.5355 153.398 11.7646 154.94 11.8317 157.454C11.8652 159.029 12.2004 160.906 12.5691 162.884C12.9378 164.962 13.6751 169.151 13.1389 170.191C12.6361 169.922 11.4295 168.917 9.92118 166.269C3.51934 155.041 -0.100554 130.271 10.7591 97.3905C11.0943 96.3849 10.558 95.3124 9.55249 94.9772C8.54696 94.642 7.4744 95.1783 7.13923 96.1838C1.20663 114.183 -1.07256 131.545 0.469245 146.527C1.80995 159.465 5.76501 167.978 8.98269 171.632C10.6586 173.542 12.3009 174.347 13.8427 174.045C15.3175 173.743 17.0604 172.637 17.0939 168.85C17.1274 166.906 16.6917 164.526 16.2895 162.247C15.9543 160.437 15.4516 157.487 15.6527 156.415C15.9208 156.448 16.2895 156.649 16.9934 157.454C18.133 158.828 19.5407 161.308 21.4847 164.727C22.5573 166.638 23.7974 168.783 25.2722 171.297C33.417 185.005 48.1311 191.843 48.7345 192.144C49.0026 192.245 49.2707 192.312 49.5389 192.312C50.2763 192.279 50.9466 191.876 51.2818 191.172Z" fill="#FF8126" fill-opacity="0.08"/>
<path d="M11.0943 93.0668C12.6307 93.0668 13.8762 91.8213 13.8762 90.2849C13.8762 88.7484 12.6307 87.5029 11.0943 87.5029C9.55786 87.5029 8.31234 88.7484 8.31234 90.2849C8.31234 91.8213 9.55786 93.0668 11.0943 93.0668Z" fill="#FF8126" fill-opacity="0.08"/>
<path d="M12.5691 84.7208C12.5691 83.8493 13.2729 83.179 14.1109 83.179C14.9823 83.179 15.6527 83.8828 15.6527 84.7208C15.6527 85.5587 14.9488 86.2626 14.1109 86.2626C13.2394 86.2961 12.5691 85.5923 12.5691 84.7208Z" fill="#FF8126" fill-opacity="0.08"/>
<path d="M15.6862 80.9671C15.6862 80.3638 16.1554 79.8945 16.7588 79.8945C17.3621 79.8945 17.8313 80.3638 17.8313 80.9671C17.8313 81.5704 17.3621 82.0397 16.7588 82.0397C16.1554 82.0397 15.6862 81.5704 15.6862 80.9671Z" fill="#FF8126" fill-opacity="0.08"/>
<path d="M288.929 23.4625C289.441 21.282 288.088 19.0992 285.908 18.5872C283.727 18.0752 281.544 19.4277 281.032 21.6082C280.52 23.7887 281.873 25.9715 284.053 26.4835C286.234 26.9955 288.417 25.643 288.929 23.4625Z" fill="#FF8126" fill-opacity="0.08"/>
<path d="M128.439 126.92C121.736 126.92 116.339 123.333 112.016 116.026C107.625 108.619 104.843 98.2287 102.195 88.2069C100.72 82.6765 99.3459 77.4813 97.7035 72.7554C95.0221 64.9458 90.7989 59.7506 85.1345 57.3373C76.2188 53.5163 66.6663 57.773 66.5658 57.8401C65.6273 58.2758 64.4877 57.8401 64.052 56.9016C63.6162 55.9631 64.052 54.8235 64.9905 54.3878C65.4597 54.1867 76.1853 49.3937 86.6092 53.8515C93.2792 56.7005 98.2063 62.6666 101.256 71.5152C102.932 76.3753 104.407 81.9056 105.815 87.2349C108.396 97.022 111.077 107.111 115.233 114.082C119.624 121.49 125.054 124.238 132.227 122.663C141.98 120.551 140.841 111.401 137.556 92.5977C134.74 76.5428 131.255 56.5329 136.617 34.9476C136.886 33.9421 137.891 33.3053 138.93 33.5734C139.936 33.8416 140.572 34.8471 140.304 35.8861C135.143 56.7005 138.528 76.2412 141.276 91.9609C142.818 100.776 144.159 108.384 143.522 114.183C142.818 121.021 139.366 125.009 132.997 126.383C131.489 126.752 129.914 126.92 128.439 126.92Z" fill="#FF8126" fill-opacity="0.08"/>
<path d="M127.065 112.842C126.059 112.842 125.054 112.574 124.115 112.038C119.054 109.155 116.205 98.5303 112.284 83.8496C111.546 81.1012 110.775 78.2522 109.971 75.3027C104.474 55.4603 97.5359 51.17 97.4689 51.1365C96.5639 50.6338 96.2288 49.4942 96.7315 48.5557C97.2343 47.6507 98.4074 47.3155 99.3124 47.8183C99.6475 47.9859 107.591 52.5778 113.624 74.2971C114.462 77.2467 115.2 80.1292 115.937 82.8776C119.356 95.6143 122.305 106.642 125.992 108.72C126.562 109.055 127.098 109.088 127.735 108.921C127.735 108.921 128.707 108.586 128.64 104.027C128.607 100.34 127.936 95.3796 127.165 89.6482C125.49 76.9115 123.378 61.0577 126.696 48.9914C126.964 47.9859 128.037 47.3826 129.042 47.6507C130.048 47.9188 130.651 48.9914 130.383 49.9969C127.266 61.3258 129.311 76.7439 130.953 89.1454C132.696 102.418 133.869 111.166 128.774 112.608C128.204 112.742 127.635 112.842 127.065 112.842Z" fill="#FF8126" fill-opacity="0.08"/>
<path d="M118.013 48.9336C118.483 46.9334 117.242 44.9309 115.242 44.4609C113.242 43.991 111.239 45.2316 110.769 47.2319C110.299 49.2322 111.54 51.2347 113.54 51.7046C115.541 52.1745 117.543 50.9339 118.013 48.9336Z" fill="#FF8126" fill-opacity="0.08"/>
<path d="M116.641 60.622C117.881 60.622 118.887 59.6166 118.887 58.3763C118.887 57.136 117.881 56.1306 116.641 56.1306C115.401 56.1306 114.395 57.136 114.395 58.3763C114.395 59.6166 115.401 60.622 116.641 60.622Z" fill="#FF8126" fill-opacity="0.08"/>
<path d="M119.456 66.856C119.456 67.6269 118.82 68.2637 118.049 68.2637C117.278 68.2637 116.641 67.6269 116.641 66.856C116.641 66.0851 117.278 65.4482 118.049 65.4482C118.82 65.4482 119.456 66.0515 119.456 66.856Z" fill="#FF8126" fill-opacity="0.08"/>
<path d="M125.054 93.2008C125.054 93.9381 124.484 94.5079 123.747 94.5079C123.009 94.5079 122.439 93.9381 122.439 93.2008C122.439 92.4634 123.009 91.8936 123.747 91.8936C124.451 91.8936 125.054 92.4634 125.054 93.2008Z" fill="#FF8126" fill-opacity="0.08"/>
<path d="M297.166 55.2925C296.697 55.2925 296.261 55.1249 295.892 54.7897C284.698 44.6004 270.754 43.3603 255.537 51.2034C246.153 56.0299 238.477 54.9573 233.718 53.2144C228.522 51.3039 225.539 48.2203 225.405 48.0862C224.668 47.3153 224.701 46.1087 225.472 45.4048C226.243 44.6674 227.416 44.701 228.154 45.4719C228.589 45.9076 238.41 55.7953 253.795 47.8516C262.341 43.4608 270.587 41.6844 278.329 42.5558C285.67 43.3938 292.44 46.5779 298.406 52.0078C299.177 52.7117 299.244 53.9183 298.54 54.6892C298.172 55.0579 297.669 55.2925 297.166 55.2925Z" fill="#FF8126" fill-opacity="0.08"/>
<path d="M355.822 69.0349C355.118 69.0349 354.481 68.6662 354.146 67.9958C353.442 66.6551 347.442 54.5218 350.291 47.1815C351.196 44.8688 352.839 43.2599 355.185 42.422C361.922 39.9417 365.508 47.4831 368.357 53.5163C369.598 56.1306 370.871 58.812 372.212 60.4544C373.687 62.2308 374.592 62.0632 375.295 61.7616C377.541 60.8566 379.485 58.8456 381.731 56.4993C387.261 50.8014 394.87 42.9583 413.673 45.1704C414.712 45.3045 415.449 46.243 415.349 47.282C415.215 48.3211 414.276 49.0584 413.237 48.9579C396.311 46.9804 390.01 53.4492 384.479 59.1472C382.033 61.661 379.72 64.0408 376.77 65.2809C374.893 66.0518 372.078 66.2529 369.296 62.8677C367.654 60.8566 366.346 58.1082 364.939 55.1586C361.922 48.8573 359.71 44.8017 356.492 46.0084C355.185 46.4776 354.347 47.3155 353.844 48.5892C351.934 53.4828 355.855 63.0353 357.531 66.2865C358 67.2249 357.632 68.3645 356.693 68.8338C356.425 68.9678 356.123 69.0349 355.822 69.0349Z" fill="#FF8126" fill-opacity="0.08"/>
<path d="M377.499 53.4808C379.483 52.659 380.425 50.3846 379.604 48.4007C378.782 46.4168 376.507 45.4747 374.524 46.2965C372.54 47.1182 371.598 49.3927 372.419 51.3766C373.241 53.3605 375.516 54.3025 377.499 53.4808Z" fill="#FF8126" fill-opacity="0.08"/>
<path d="M380.122 43.8967C381.436 43.8967 382.502 42.8312 382.502 41.5169C382.502 40.2026 381.436 39.1372 380.122 39.1372C378.808 39.1372 377.742 40.2026 377.742 41.5169C377.742 42.8312 378.808 43.8967 380.122 43.8967Z" fill="#FF8126" fill-opacity="0.08"/>
<path d="M387.194 40.277C387.916 40.277 388.501 39.6917 388.501 38.9698C388.501 38.2478 387.916 37.6626 387.194 37.6626C386.472 37.6626 385.887 38.2478 385.887 38.9698C385.887 39.6917 386.472 40.277 387.194 40.277Z" fill="#FF8126" fill-opacity="0.08"/>
<path d="M22.1551 75.6378C21.5853 75.6378 20.982 75.3697 20.6133 74.8669C19.9764 74.029 20.1775 72.8223 21.0155 72.219C21.0825 72.1855 27.8195 67.1579 34.2214 61.3929C46.0531 50.7008 45.5168 47.4496 45.4498 47.1144C45.2822 46.6117 44.1761 46.2094 42.5337 46.0754C30.0987 45.2374 22.3897 39.0367 18.0995 33.9756C13.4405 28.5457 11.7311 23.317 11.6641 23.0824C11.3624 22.0768 11.8987 21.0043 12.9042 20.7026C13.9098 20.401 14.9823 20.9372 15.284 21.9428C15.284 21.9763 16.8593 26.7693 21.049 31.6628C26.5794 38.1317 33.8862 41.7181 42.7683 42.3214C46.2877 42.556 48.4328 43.8297 49.1032 46.0754C49.807 48.4551 49.2707 52.9465 36.7687 64.2419C30.2328 70.1409 23.3617 75.2356 23.2947 75.3026C22.926 75.5037 22.5573 75.6378 22.1551 75.6378Z" fill="#FF8126" fill-opacity="0.08"/>
<path d="M17.5967 66.2528C17.7308 66.1858 21.1831 64.4764 24.7024 61.9961C29.7635 58.4097 32.3444 54.9574 32.3444 51.7732C32.3444 50.3655 31.674 48.8237 23.1941 44.1648C19.105 41.9191 14.9823 39.908 14.9488 39.908C14.0103 39.4388 12.8707 39.841 12.4015 40.7795C11.9322 41.718 12.3344 42.8576 13.2729 43.3268C19.7083 46.444 27.0821 50.5666 28.4899 52.1419C28.0206 55.5272 20.982 60.3872 15.9208 62.834C14.9823 63.3033 14.5801 64.4429 15.0494 65.3814C15.3845 66.0517 16.0549 66.4539 16.7588 66.4539C17.0269 66.4539 17.3286 66.3869 17.5967 66.2528Z" fill="#FF8126" fill-opacity="0.08"/>
<path d="M179.821 171.129C174.492 171.129 170.168 170.258 166.448 168.481C160.046 165.465 155.32 159.666 151.533 150.315C147.376 140.058 142.248 139.757 134.439 139.321C129.713 139.053 124.35 138.718 118.183 136.204C108.53 132.215 103.1 120.853 99.1448 112.574C97.8041 109.759 96.6645 107.345 95.5584 105.636C94.2848 103.625 93.6814 103.558 93.6814 103.558C92.0391 103.826 91.1676 105.837 89.8269 109.356C88.1846 113.647 86.14 118.942 80.6766 123.032C72.1632 129.366 73.6715 139.388 73.7385 139.79C73.9061 140.829 73.2022 141.801 72.1632 141.969C71.1242 142.137 70.1521 141.433 69.9846 140.394C69.884 139.891 68.007 127.691 78.3975 119.948C82.9893 116.529 84.7323 111.971 86.2741 107.949C87.7488 104.061 89.1566 100.374 93.0781 99.7704C96.9662 99.1671 99.3124 104.094 102.564 110.898C106.25 118.641 111.345 129.232 119.624 132.651C125.188 134.964 130.216 135.232 134.64 135.5C142.885 135.969 149.991 136.405 155.052 148.874C161.588 164.995 170.403 169.42 190.111 166.403C191.15 166.236 192.122 166.973 192.29 167.979C192.458 169.018 191.72 169.99 190.715 170.157C186.625 170.794 183.039 171.129 179.821 171.129Z" fill="#FF8126" fill-opacity="0.08"/>
<path d="M172.347 180.246C164.806 180.246 158.839 178.201 154.113 174.045C149.354 169.822 146.874 164.358 144.662 159.498C142.081 153.834 140.472 150.616 137.422 150.616C123.713 150.616 106.686 144.516 99.5805 130.841C98.3404 128.428 96.3628 125.612 94.0836 125.813C90.8324 126.082 86.5757 132.048 83.9949 139.991C81.7157 146.996 79.5706 148.136 76.7551 148.974C75.5149 149.343 74.5429 149.644 73.2358 151.488C72.1967 152.929 71.8615 154.471 72.2302 156.247C73.6045 162.783 84.1289 170.224 88.084 172.537C88.989 173.073 89.2906 174.246 88.7544 175.151C88.2181 176.056 87.045 176.358 86.14 175.821C85.5032 175.453 70.4873 166.571 68.4763 157.052C67.873 154.236 68.4428 151.622 70.1186 149.276C72.1967 146.393 74.1743 145.823 75.6155 145.388C77.2243 144.885 78.498 144.516 80.3415 138.852C82.8888 131.076 87.7153 122.562 93.7485 122.059C97.2678 121.758 100.351 124.137 102.932 129.132C109.301 141.365 124.819 146.862 137.388 146.862C143.053 146.862 145.499 152.259 148.114 157.99C152.404 167.409 157.231 178.101 176.369 176.324C177.408 176.224 178.347 176.995 178.447 178.034C178.548 179.073 177.777 180.011 176.738 180.112C175.229 180.179 173.755 180.246 172.347 180.246Z" fill="#FF8126" fill-opacity="0.08"/>
<path d="M95.4458 180.655C97.1476 180.59 98.4743 179.157 98.4089 177.456C98.3435 175.754 96.9109 174.427 95.209 174.492C93.5072 174.558 92.1806 175.99 92.246 177.692C92.3114 179.394 93.744 180.721 95.4458 180.655Z" fill="#FF8126" fill-opacity="0.08"/>
<path d="M105.044 179.609C106.229 179.609 107.189 178.649 107.189 177.464C107.189 176.279 106.229 175.319 105.044 175.319C103.859 175.319 102.899 176.279 102.899 177.464C102.899 178.649 103.859 179.609 105.044 179.609Z" fill="#FF8126" fill-opacity="0.08"/>
<path d="M113.055 175.587C113.055 176.224 112.552 176.727 111.915 176.727C111.278 176.727 110.775 176.224 110.775 175.587C110.775 174.95 111.278 174.448 111.915 174.448C112.552 174.448 113.055 174.95 113.055 175.587Z" fill="#FF8126" fill-opacity="0.08"/>
<path d="M99.3124 191.743C92.2737 191.743 86.4752 190.234 81.9503 187.251C76.4534 183.598 75.1127 179.039 75.0457 178.838C74.744 177.833 75.3474 176.76 76.3529 176.492C77.3584 176.19 78.3975 176.794 78.6991 177.766C78.7661 177.933 79.8722 181.386 84.2965 184.235C88.5197 186.95 96.698 189.564 111.58 186.581C125.422 183.799 130.115 179.408 129.914 176.224C129.713 173.006 124.417 169.319 115.937 168.716C102.463 167.778 85.9054 164.828 83.3916 156.013C82.0844 151.454 86.5757 144.181 92.4078 141.332C95.3908 139.857 103.133 137.545 110.407 147.466C111.043 148.304 110.842 149.51 110.004 150.114C109.167 150.751 107.96 150.549 107.357 149.712C103.301 144.181 98.7426 142.472 94.1172 144.717C89.3912 147.03 86.4081 152.661 87.0785 154.94C88.5197 160.035 99.4129 163.755 116.239 164.895C125.992 165.565 133.366 170.224 133.735 175.956C133.969 179.643 131.523 186.447 112.351 190.268C107.591 191.273 103.267 191.743 99.3124 191.743Z" fill="#FF8126" fill-opacity="0.08"/>
<path d="M120.401 154.639C120.671 152.976 119.543 151.409 117.88 151.138C116.218 150.868 114.65 151.996 114.38 153.659C114.109 155.322 115.238 156.889 116.9 157.159C118.563 157.43 120.13 156.301 120.401 154.639Z" fill="#FF8126" fill-opacity="0.08"/>
<path d="M126.562 160.504C127.784 160.504 128.774 159.513 128.774 158.292C128.774 157.07 127.784 156.08 126.562 156.08C125.34 156.08 124.35 157.07 124.35 158.292C124.35 159.513 125.34 160.504 126.562 160.504Z" fill="#FF8126" fill-opacity="0.08"/>
<path d="M132.327 163.052C133.031 163.052 133.601 162.481 133.601 161.778C133.601 161.074 133.031 160.504 132.327 160.504C131.624 160.504 131.053 161.074 131.053 161.778C131.053 162.481 131.624 163.052 132.327 163.052Z" fill="#FF8126" fill-opacity="0.08"/>
<path d="M143.662 178.001C144.603 177.611 145.049 176.533 144.66 175.592C144.27 174.652 143.192 174.205 142.251 174.595C141.31 174.984 140.864 176.063 141.253 177.003C141.643 177.944 142.721 178.391 143.662 178.001Z" fill="#FF8126" fill-opacity="0.08"/>
<path d="M178.045 192.58C156.359 192.58 146.337 182.491 145.868 181.989C145.131 181.218 145.164 180.045 145.935 179.307C146.706 178.57 147.879 178.603 148.617 179.341C148.65 179.374 151.801 182.558 158.27 185.173C164.269 187.62 174.459 190.066 188.838 187.955C203.518 185.81 209.685 182.625 214.21 180.279C218.702 177.967 221.953 176.291 229.662 177.129C243.169 178.603 246.555 171.163 247.929 165.431C248.164 164.426 249.203 163.789 250.208 164.023C251.214 164.258 251.851 165.297 251.616 166.302C249.27 176.157 243.002 181.117 233.014 181.117C231.807 181.117 230.567 181.05 229.226 180.916C222.657 180.212 220.143 181.486 215.953 183.665C211.194 186.111 204.691 189.463 189.407 191.709C185.285 192.312 181.497 192.58 178.045 192.58Z" fill="#FF8126" fill-opacity="0.08"/>
<path d="M407.606 186.447C406.031 186.447 404.456 185.91 403.182 184.838C395.808 178.57 380.859 169.353 363.43 178.302C362.492 178.771 361.352 178.402 360.883 177.464C360.414 176.525 360.782 175.386 361.721 174.916C370.368 170.492 379.385 169.621 388.535 172.369C396.043 174.615 401.975 178.804 405.662 181.955C406.869 182.994 408.679 182.894 409.785 181.788C409.684 180.95 407.841 177.799 400.367 172.067C394.467 167.543 387.161 163.085 381.697 160.705C377.374 158.795 369.128 162.247 358.47 170.392C349.956 176.894 342.817 184.201 342.75 184.268C342.013 185.005 340.806 185.039 340.069 184.301C339.331 183.564 339.298 182.357 340.035 181.62C340.337 181.318 347.409 174.079 356.123 167.409C368.29 158.091 377.407 154.672 383.206 157.219C394.132 162.012 412.064 174.548 413.472 180.916C413.74 182.156 413.472 183.329 412.735 184.201C411.36 185.676 409.483 186.447 407.606 186.447Z" fill="#FF8126" fill-opacity="0.08"/>
<path d="M616.052 49.7959C615.918 49.7959 615.784 49.7959 615.616 49.7624C614.577 49.5277 613.94 48.5222 614.175 47.4832C622.051 12.6585 619.001 -38.925 600.366 -61.5158C593.662 -69.6605 585.35 -73.6156 575.663 -73.3475C552.469 -72.6436 543.051 -35.7408 534.772 -3.16179C528.035 23.3506 522.203 46.2765 509.667 48.8909C503.533 50.1646 498.774 49.2931 495.523 46.3101C490.16 41.3495 491.233 32.5008 491.3 32.1321C491.434 31.0931 492.406 30.3557 493.445 30.4898C494.484 30.6239 495.221 31.5624 495.087 32.6014C495.087 32.702 494.216 39.9082 498.137 43.5281C500.416 45.6397 504.036 46.2095 508.896 45.1705C519.119 43.0253 524.951 20.1329 531.118 -4.10027C539.732 -37.9865 549.486 -76.3975 575.563 -77.1684C586.456 -77.5036 595.807 -73.0458 603.282 -63.9626C615.08 -49.6506 619.471 -27.462 621.079 -11.3401C623.09 8.70341 621.917 30.4563 617.895 48.3211C617.694 49.1926 616.923 49.7959 616.052 49.7959Z" fill="#FF8126" fill-opacity="0.08"/>
<path d="M518.415 9.64178C518.382 9.64178 518.315 9.64178 518.281 9.64178C517.242 9.57475 516.438 8.66977 516.505 7.59721C516.505 7.42962 517.678 -8.18954 522.37 -26.5236C528.739 -51.3266 538.224 -69.0908 550.559 -79.2802C559.943 -87.0227 570.87 -90.2404 583.037 -88.7991C584.076 -88.6651 584.813 -87.7266 584.713 -86.6875C584.579 -85.6485 583.64 -84.9111 582.601 -85.0117C571.474 -86.3188 561.519 -83.4028 552.972 -76.3642C538.392 -64.2978 530.281 -42.1428 526.057 -25.6522C521.432 -7.61974 520.292 7.69775 520.292 7.86534C520.225 8.90439 519.387 9.64178 518.415 9.64178Z" fill="#FF8126" fill-opacity="0.08"/>
<path d="M598.321 38.7686C597.282 38.7686 596.243 38.5675 595.237 38.1318C588.199 35.2157 583.573 22.4456 578.646 8.9045C573.619 -4.93823 567.921 -20.6244 560.714 -19.7865C545.967 -18.0771 545.43 7.5638 545.43 7.79842C545.43 8.83746 544.559 9.6754 543.52 9.6754H543.486C542.447 9.6754 541.609 8.80394 541.609 7.7649C541.609 6.55827 542.213 -21.4624 560.279 -23.5405C570.501 -24.7136 576.199 -8.99386 582.233 7.66434C586.623 19.8312 591.182 32.4003 596.679 34.6795C597.919 35.1822 599.125 35.1152 600.5 34.4783C603.851 32.903 606.365 28.5122 607.739 21.7082C609.75 11.8876 609.415 -2.52497 606.801 -17.876C604.488 -31.4506 600.701 -43.0476 597.416 -46.7346C596.712 -47.5055 596.779 -48.7121 597.55 -49.416C598.321 -50.1198 599.528 -50.0528 600.231 -49.2819C608.376 -40.1987 615.918 0.592152 611.46 22.4456C609.784 30.5568 606.633 35.752 602.108 37.8971C600.835 38.4669 599.561 38.7686 598.321 38.7686Z" fill="#FF8126" fill-opacity="0.08"/>
<path d="M548.656 20.1833C549.098 18.3098 547.938 16.4323 546.064 15.9899C544.191 15.5475 542.313 16.7077 541.871 18.5813C541.429 20.4548 542.589 22.3323 544.462 22.7747C546.336 23.2171 548.213 22.0569 548.656 20.1833Z" fill="#FF8126" fill-opacity="0.08"/>
<path d="M548.749 27.1379C548.749 28.3445 547.777 29.3165 546.57 29.3165C545.363 29.3165 544.391 28.3445 544.391 27.1379C544.391 25.9312 545.363 24.9592 546.57 24.9592C547.777 24.9927 548.749 25.9648 548.749 27.1379Z" fill="#FF8126" fill-opacity="0.08"/>
<path d="M548.749 35.5844C549.767 35.5844 550.592 34.759 550.592 33.7409C550.592 32.7228 549.767 31.8975 548.749 31.8975C547.73 31.8975 546.905 32.7228 546.905 33.7409C546.905 34.759 547.73 35.5844 548.749 35.5844Z" fill="#FF8126" fill-opacity="0.08"/>
<path d="M551.028 51.2036C547.274 51.2036 544.023 49.8629 541.375 47.1815C532.761 38.5005 533.632 18.5576 533.666 17.7196C533.699 16.6806 534.604 15.8762 535.643 15.9097C536.682 15.9432 537.487 16.8482 537.453 17.8872C537.453 18.1218 536.649 37.0257 544.056 44.5001C546.101 46.5447 548.514 47.4832 551.497 47.3826C552.972 47.3156 554.078 46.8128 554.983 45.7738C559.307 40.7797 557.765 25.6968 556.491 13.597C555.016 -0.681481 554.447 -8.1894 558.603 -9.96583C559.776 -10.4686 560.983 -10.4351 562.089 -9.86528C565.373 -8.1894 566.915 -2.35736 569.362 7.83196C571.574 17.0828 574.322 28.5793 579.25 33.0036C580.02 33.7075 580.087 34.9141 579.384 35.685C578.68 36.4559 577.473 36.5229 576.702 35.8191C570.904 30.5903 568.122 18.9598 565.641 8.70342C564.133 2.36861 562.223 -5.54152 560.346 -6.51353C560.279 -6.54704 560.245 -6.58056 560.078 -6.48001C560.078 -6.48001 559.139 -5.84318 559.173 -0.681484C559.206 3.07248 559.709 7.96603 560.245 13.1948C561.653 26.7023 563.228 42.0198 557.832 48.2541C556.223 50.0975 554.145 51.0695 551.631 51.1701C551.43 51.2036 551.229 51.2036 551.028 51.2036Z" fill="#FF8126" fill-opacity="0.08"/>
<path d="M598.79 26.8697C596.478 26.8697 595.841 23.7861 595.237 21.0712C594.634 18.2892 594.031 14.3342 593.293 9.80933C590.578 -7.45219 585.987 -36.3108 575.831 -42.478C573.786 -43.7181 571.641 -43.9192 569.228 -43.1148C568.222 -42.7797 567.15 -43.3159 566.815 -44.3215C566.479 -45.327 567.016 -46.3995 568.021 -46.7347C571.507 -47.9078 574.792 -47.5727 577.808 -45.7292C589.472 -38.6235 594.031 -9.83194 597.047 9.20601C597.885 14.4683 598.79 20.3003 599.528 22.6465L599.561 22.613C602.611 18.9931 600.935 0.625523 600.366 -5.40763C598.656 -23.8423 591.718 -46.8353 581.663 -55.1476C578.68 -57.5944 575.563 -58.7005 572.378 -58.3988C556.625 -56.8905 552.536 -28.166 552.503 -27.8644C552.369 -26.8253 551.396 -26.0879 550.357 -26.222C549.318 -26.3561 548.581 -27.3281 548.715 -28.3671C548.883 -29.6743 553.273 -60.3763 572.01 -62.1863C576.266 -62.5885 580.322 -61.2143 584.076 -58.0972C595.405 -48.7123 602.444 -24.3785 604.153 -5.77631C605.862 12.6918 605.36 21.6075 602.477 25.0598C601.572 26.1324 600.366 26.7692 598.991 26.8697C598.924 26.8697 598.857 26.8697 598.79 26.8697Z" fill="#FF8126" fill-opacity="0.08"/>
</svg>
