<svg width="48" height="48" viewBox="0 0 48 48" fill="none" xmlns="http://www.w3.org/2000/svg">
<g clip-path="url(#clip0_18_77)">
<path d="M46.5979 12.0888L25.9746 0.513269C24.7574 -0.17109 23.2715 -0.17109 22.0547 0.513269L1.43099 12.0888C0.581399 12.5634 0.102504 13.5036 0.218126 14.4696C0.333749 15.436 1.02162 16.2363 1.9591 16.4969C2.17316 16.5535 2.39347 16.5832 2.61495 16.5848C3.02509 16.5859 3.42821 16.4781 3.78289 16.2727L24.0144 4.92098L44.246 16.2727C44.8003 16.5863 45.4565 16.6672 46.0702 16.4969C47.0077 16.2363 47.6951 15.436 47.8108 14.4696C47.9268 13.5036 47.4475 12.5634 46.5979 12.0888ZM46.1178 14.5766C45.9011 14.9606 45.4143 15.0965 45.03 14.8809L24.8144 3.52101C24.3195 3.23508 23.7094 3.23508 23.2145 3.52101L2.99892 14.8809C2.6126 15.1016 2.12004 14.9672 1.89895 14.5809C1.67825 14.1942 1.81262 13.7016 2.19894 13.4809L22.8387 1.90503C23.5688 1.4945 24.4601 1.4945 25.1906 1.90503L45.8139 13.4809C46.0007 13.5848 46.1378 13.7594 46.1948 13.9653C46.2518 14.1712 46.2241 14.3915 46.1178 14.5766Z" fill="#1F1F1F"/>
<path d="M4.81487 17.9766C4.37309 17.9766 4.01489 18.3348 4.01489 18.7765V47.2001C4.01489 47.6419 4.37309 48.0001 4.81487 48.0001C5.25666 48.0001 5.61485 47.6419 5.61485 47.2001V18.7765C5.61485 18.3348 5.25666 17.9766 4.81487 17.9766Z" fill="#1F1F1F"/>
<path d="M43.214 17.9766C42.7722 17.9766 42.414 18.3348 42.414 18.7765V47.2001C42.414 47.6419 42.7722 48.0001 43.214 48.0001C43.6558 48.0001 44.014 47.6419 44.014 47.2001V18.7765C44.014 18.3348 43.6558 17.9766 43.214 17.9766Z" fill="#1F1F1F"/>
<path d="M40.0141 16.8008H8.01483C7.57304 16.8008 7.21484 17.159 7.21484 17.6008V47.2001C7.21484 47.6418 7.57304 48 8.01483 48C8.45661 48 8.81481 47.6418 8.81481 47.2001V21.6007H39.2141V47.2001C39.2141 47.6418 39.5723 48 40.0141 48C40.4559 48 40.8141 47.6418 40.8141 47.2001V17.6008C40.8141 17.159 40.4559 16.8008 40.0141 16.8008ZM8.81481 20.0007V18.4007H39.2141V20.0007H8.81481Z" fill="#1F1F1F"/>
<path d="M30.4143 12.001C30.8561 12.001 31.2143 11.6428 31.2143 11.201C31.2143 10.7592 30.8561 10.401 30.4143 10.401H17.6146C17.1728 10.401 16.8146 10.7592 16.8146 11.201V14.4009C16.8146 14.8427 17.1728 15.2009 17.6146 15.2009H30.4143C30.8561 15.2009 31.2143 14.8427 31.2143 14.4009C31.2143 13.9591 30.8561 13.6009 30.4143 13.6009H18.4146V12.001H30.4143Z" fill="#1F1F1F"/>
<path d="M36.8142 43.2003H36.0142V34.4005C36.0142 33.9587 35.656 33.6005 35.2142 33.6005H32.8142V24.8007C32.8142 24.3589 32.456 24.0007 32.0143 24.0007H20.8145C20.3727 24.0007 20.0145 24.3589 20.0145 24.8007V28.8006H16.0146C15.5728 28.8006 15.2147 29.1588 15.2147 29.6006V33.6005H12.8147C12.3729 33.6005 12.0147 33.9587 12.0147 34.4005V43.2003H11.2147C10.773 43.2003 10.4148 43.5584 10.4148 44.0002V47.2002C10.4148 47.6419 10.773 48.0001 11.2147 48.0001C11.6565 48.0001 12.0147 47.6419 12.0147 47.2002V44.8002H14.4147V47.2002C14.4147 47.6419 14.7729 48.0001 15.2147 48.0001C15.6564 48.0001 16.0146 47.6419 16.0146 47.2002V44.8002H17.6146V47.2002C17.6146 47.6419 17.9728 48.0001 18.4146 48.0001C18.8564 48.0001 19.2146 47.6419 19.2146 47.2002V44.8002H21.6145V47.2002C21.6145 47.6419 21.9727 48.0001 22.4145 48.0001C22.8563 48.0001 23.2145 47.6419 23.2145 47.2002V44.8002H24.8144V47.2002C24.8144 47.6419 25.1726 48.0001 25.6144 48.0001C26.0562 48.0001 26.4144 47.6419 26.4144 47.2002V44.8002H28.8143V47.2002C28.8143 47.6419 29.1725 48.0001 29.6143 48.0001C30.0561 48.0001 30.4143 47.6419 30.4143 47.2002V44.8002H32.0143V47.2002C32.0143 47.6419 32.3725 48.0001 32.8142 48.0001C33.256 48.0001 33.6142 47.6419 33.6142 47.2002V44.8002H36.0142V47.2002C36.0142 47.6419 36.3724 48.0001 36.8142 48.0001C37.2559 48.0001 37.6141 47.6419 37.6141 47.2002V44.0002C37.6141 43.5584 37.2559 43.2003 36.8142 43.2003ZM28.8143 35.2005H30.4143V36.8004H28.8143V35.2005ZM27.2144 25.6007V27.2007H25.6144V25.6007H27.2144ZM21.6145 25.6007H24.0144V28.0006C24.0144 28.4424 24.3726 28.8006 24.8144 28.8006H28.0144C28.4561 28.8006 28.8143 28.4424 28.8143 28.0006V25.6007H31.2143V33.6005H21.6145V25.6007ZM17.6146 35.2005H19.2146V36.8004H17.6146V35.2005ZM16.8146 30.4006H20.0145V33.6005H16.8146V30.4006ZM13.6147 43.2003V35.2005H16.0146V37.6004C16.0146 38.0422 16.3728 38.4004 16.8146 38.4004H20.0145C20.4563 38.4004 20.8145 38.0422 20.8145 37.6004V35.2005H23.2145V43.2003H13.6147ZM24.8144 43.2003V35.2005H27.2144V37.6004C27.2144 38.0422 27.5726 38.4004 28.0144 38.4004H31.2143C31.6561 38.4004 32.0143 38.0422 32.0143 37.6004V35.2005H34.4142V43.2003H24.8144Z" fill="#1F1F1F"/>
</g>
<defs>
<clipPath id="clip0_18_77">
<rect width="48" height="48" fill="white"/>
</clipPath>
</defs>
</svg>
